<?xml version="1.0" encoding="utf-8"?>
<!-- Generator: Adobe Illustrator 21.0.2, SVG Export Plug-In . SVG Version: 6.00 Build 0)  -->
<svg version="1.1" id="Layer_1" xmlns="http://www.w3.org/2000/svg" xmlns:xlink="http://www.w3.org/1999/xlink" x="0px" y="0px"
	 viewBox="0 0 10 10" style="enable-background:new 0 0 10 10;" xml:space="preserve">
<style type="text/css">
	.st0{fill:#B4B4B4;}
	.st1{enable-background:new    ;}
	.st2{fill:#FFFFFF;}
</style>
<title>tooltip copy 2</title>
<desc>Created with Sketch.</desc>
<g id="Page-1">
	<g id="PROSPECTOS07-Copy-2" transform="translate(-767.000000, -614.000000)">
		<g id="POPOP-Copy" transform="translate(98.000000, 80.000000)">
			<g id="actividad" transform="translate(24.000000, 407.000000)">
				<g id="CHECKS-Copy" transform="translate(561.000000, 127.000000)">
					<g id="tooltip-copy-2" transform="translate(84.000000, 0.000000)">
						<path id="Rectangle-14" class="st0" d="M4.7,0h0.6C7.9,0,10,2.2,10,5l0,0c0,2.8-2.1,5-4.7,5H4.7C2.1,10,0,7.8,0,5l0,0
							C0,2.2,2.1,0,4.7,0z"/>
					</g>
					<g id="PROSPECTOS07-Copy-2_1_" transform="translate(-767.000000, -614.000000)">
						<g id="POPOP-Copy_1_" transform="translate(98.000000, 80.000000)">
							<g id="actividad_1_" transform="translate(24.000000, 407.000000)">
								<g id="CHECKS-Copy_1_" transform="translate(561.000000, 127.000000)">
									<g id="tooltip-copy-2_1_" transform="translate(84.000000, 0.000000)">
										<g class="st1">
											<path class="st2" d="M88.5,5.9c0-1,1.4-1.1,1.4-1.9c0-0.4-0.3-0.7-0.9-0.7c-0.6,0-1,0.3-1.3,0.7l-0.4-0.4
												c0.4-0.5,1-0.8,1.7-0.8c1,0,1.6,0.6,1.6,1.2C90.6,5,89,5.1,89,5.9c0,0.1,0.1,0.3,0.2,0.4l-0.5,0.2
												C88.5,6.3,88.5,6.1,88.5,5.9z M88.5,7.6c0-0.2,0.2-0.4,0.4-0.4c0.2,0,0.4,0.2,0.4,0.4c0,0.2-0.2,0.4-0.4,0.4
												C88.7,8.1,88.5,7.9,88.5,7.6z"/>
										</g>
									</g>
								</g>
							</g>
						</g>
					</g>
				</g>
			</g>
		</g>
	</g>
</g>
</svg>
