<?xml version="1.0" encoding="UTF-8"?>
<svg width="23px" height="12px" viewBox="0 0 23 12" version="1.1" xmlns="http://www.w3.org/2000/svg" xmlns:xlink="http://www.w3.org/1999/xlink">
    <!-- Generator: Sketch 43.2 (39069) - http://www.bohemiancoding.com/sketch -->
    <title>Shape</title>
    <desc>Created with Sketch.</desc>
    <defs></defs>
    <g id="Page-1" stroke="none" stroke-width="1" fill="none" fill-rule="evenodd">
        <g id="PROSPECTOS01" transform="translate(-923.000000, -811.000000)" fill-rule="nonzero" fill="#B4B4B4">
            <g id="ETAPAS" transform="translate(69.000000, 498.000000)">
                <g id="tabla" transform="translate(43.000000, 263.000000)">
                    <path d="M822.524372,50.0857195 C817.935001,50.0857195 813.894936,52.1535161 811.60911,55.3060586 C811.493933,55.4586009 811.493933,55.695889 811.60911,55.8569059 C813.894936,59.0009738 817.935001,61.0857195 822.524372,61.0857195 C827.104884,61.0857195 831.153808,59.0009738 833.439634,55.8569059 C833.545951,55.7043636 833.554811,55.4670754 833.439634,55.3060586 C831.153808,52.1535161 827.104884,50.0857195 822.524372,50.0857195 Z M822.524372,51.0433466 C826.653034,51.0433466 830.258969,52.8653806 832.385319,55.5857195 C830.258969,58.3060587 826.653034,60.1280926 822.524372,60.1280926 C818.39571,60.1280926 814.780915,58.3060587 812.663425,55.5857195 C814.780915,52.8653806 818.38685,51.0433466 822.524372,51.0433466 Z M822.524372,51.7552111 C820.318284,51.7552111 818.519747,53.4755501 818.519747,55.5857195 C818.519747,57.6958892 820.318284,59.4077536 822.524372,59.4077536 C824.7216,59.4077536 826.520137,57.6958892 826.520137,55.5857195 C826.520137,53.4755501 824.7216,51.7552111 822.524372,51.7552111 Z M822.524372,52.7128383 C824.181153,52.7128383 825.518981,53.9924992 825.518981,55.5857195 C825.518981,57.1789398 824.181153,58.458601 822.524372,58.458601 C820.858731,58.458601 819.520903,57.1789398 819.520903,55.5857195 C819.520903,53.9924992 820.858731,52.7128383 822.524372,52.7128383 Z" id="Shape"></path>
                </g>
            </g>
        </g>
    </g>
</svg>