<svg xmlns="http://www.w3.org/2000/svg" width="162" height="101" viewBox="0 0 162 101">
    <g fill="none" fill-rule="evenodd">
        <g fill="#517CBD" fill-rule="nonzero" opacity=".802">
            <path d="M85 65.25c11.184 0 20.25-9.066 20.25-20.25S96.184 24.75 85 24.75 64.75 33.816 64.75 45 73.816 65.25 85 65.25zm0-36.826c9.141 0 16.576 7.436 16.576 16.576 0 9.141-7.436 16.576-16.576 16.576S68.424 54.141 68.424 45c0-9.14 7.435-16.576 16.576-16.576zM83.163 76.086v12.077a1.836 1.836 0 1 0 3.674 0V76.086a1.837 1.837 0 0 0-3.674 0zM85 15.75a1.836 1.836 0 0 0 1.837-1.837V1.837a1.836 1.836 0 1 0-3.674 0v12.076c0 1.015.822 1.837 1.837 1.837zM41.837 46.837h12.077a1.836 1.836 0 0 0 0-3.674H41.837a1.837 1.837 0 0 0 0 3.674zM128.163 43.163h-12.077a1.837 1.837 0 0 0 0 3.674h12.077a1.836 1.836 0 1 0 0-3.674zM61.72 65.683l-8.54 8.54a1.838 1.838 0 0 0 2.598 2.598l8.54-8.54a1.838 1.838 0 0 0-2.598-2.598zM108.28 24.317l8.54-8.54a1.837 1.837 0 1 0-2.598-2.597l-8.54 8.54a1.837 1.837 0 1 0 2.598 2.597zM61.72 24.316a1.838 1.838 0 0 0 2.598-2.597l-8.54-8.539a1.838 1.838 0 0 0-2.598 2.597l8.54 8.539zM105.683 65.683a1.838 1.838 0 0 0 0 2.598l8.54 8.54a1.838 1.838 0 0 0 2.598-2.598l-8.54-8.54a1.838 1.838 0 0 0-2.598 0z"/>
        </g>
        <path fill="#E9F2FF" stroke="#517CBD" stroke-width="1.05" d="M139.432 71.245C137.106 65.831 131.366 62 124.654 62c-4.425 0-8.428 1.665-11.308 4.35-2.88-2.685-6.883-4.35-11.308-4.35-8.772 0-15.884 6.544-15.884 14.615 0 .988.106 1.954.31 2.887A12.853 12.853 0 0 0 84 87.09C84 94.22 89.788 100 96.91 100h51.18c7.13 0 12.91-5.779 12.91-12.91 0-.365-.015-.727-.045-1.085.03-.365.045-.735.045-1.108 0-8.071-7.112-14.615-15.885-14.615-2.002 0-3.918.341-5.683.963z"/>
        <path d="M78.267 56.795c-2.163 0-4.273.386-6.274 1.146l-2.217.844.095-2.358c.01-.23.018-.462.018-.693 0-9.147-7.364-16.588-16.415-16.588-8.188 0-15.18 6.178-16.264 14.368l-.228 1.727-1.701-.421a9.747 9.747 0 0 0-2.342-.286c-3.558 0-6.858 1.965-8.612 5.13l-.57 1.029-1.153-.266a16.025 16.025 0 0 0-3.574-.405c-8.217 0-14.901 6.215-14.901 13.852 0 7.638 6.684 13.854 14.901 13.854.474 0 .944-.024 1.407-.064l.231-.02.229.046c.123.026.245.038.372.038h59.186c.282 0 .556-.064.814-.192l.188-.093.207-.04c7.652-1.483 13.207-7.85 13.207-15.143 0-8.528-7.448-15.465-16.604-15.465z"/>
        <path fill="#E9F2FF" fill-rule="nonzero" stroke="#517CBD" stroke-width="1.05" d="M78.267 53.685c-1.804 0-3.577.228-5.295.679-.7-10.225-9.177-18.329-19.497-18.329-9.21 0-17.148 6.546-19.087 15.47-4.783-.543-9.513 1.695-12.196 5.67a19.173 19.173 0 0 0-3.16-.264C9.088 56.91 1 64.52 1 73.874c0 9.354 8.089 16.963 18.03 16.963.479 0 .973-.02 1.473-.059.253.039.51.06.767.06h59.186c.694 0 1.364-.141 2-.42C91.473 88.58 98 80.974 98 72.26c0-10.242-8.853-18.575-19.733-18.575z"/>
    </g>
</svg>
