<?xml version="1.0" encoding="UTF-8"?>
<svg width="53px" height="53px" viewBox="0 0 53 53" version="1.1" xmlns="http://www.w3.org/2000/svg" xmlns:xlink="http://www.w3.org/1999/xlink">
    <!-- Generator: Sketch 43.2 (39069) - http://www.bohemiancoding.com/sketch -->
    <title>avatar copy 2</title>
    <desc>Created with Sketch.</desc>
    <defs></defs>
    <g id="Page-1" stroke="none" stroke-width="1" fill="none" fill-rule="evenodd">
        <g id="SIMULADOR-Copy-26" transform="translate(-93.000000, -288.000000)">
            <g id="datos-cliente" transform="translate(72.000000, 254.000000)">
                <g id="avatar-copy-2" transform="translate(22.000000, 35.000000)">
                    <path d="M50.873112,25.3026337 C50.873112,39.2771706 39.4846659,50.6054868 25.4364457,50.6054868 C11.3882256,50.6054868 0,39.2771706 0,25.3026337 C0,11.3283162 11.3882256,0 25.4364457,0 C39.4846659,0 50.873112,11.3283162 50.873112,25.3026337" id="Fill-1" stroke="#517CBD" stroke-width="1.5" fill="#E9F2FF"></path>
                    <g id="Group-Copy-3" fill-rule="nonzero" fill="#517CBD">
                        <g id="Group">
                            <g transform="translate(2.856000, 10.958049)" id="Shape">
                                <path d="M11.7096,17.3705366 C11.9544,18.1822439 12.4032,19.7650732 13.3824,20.6985366 C14.1168,23.4989268 16.32,26.7051707 19.8288,27.9227317 C20.6856,28.2068293 21.5424,28.3691707 22.44,28.3691707 C23.3376,28.3691707 24.2352,28.2068293 25.092,27.9227317 C28.6008,26.6645854 30.804,23.4989268 31.5384,20.739122 C32.5176,19.8056585 32.9664,18.2228293 33.2112,17.411122 C33.5784,16.1123902 33.9864,14.204878 32.9664,12.865561 C32.9256,12.8249756 32.8848,12.7438049 32.844,12.7032195 C33.4152,9.21287805 33.0072,6.57482927 31.6608,4.8702439 C31.008,4.05853659 30.3144,3.65268293 29.7432,3.40917073 C29.2944,2.84097561 28.5192,2.06985366 27.336,1.4204878 C25.9488,0.608780488 24.3984,0.202926829 22.6848,0.202926829 C22.3992,0.202926829 22.1136,0.202926829 21.7872,0.243512195 C21.012,0.284097561 20.2776,0.446439024 19.5432,0.68995122 L19.5432,0.68995122 C18.7272,0.97404878 17.9112,1.37990244 17.1768,1.9075122 C16.32,2.43512195 15.5448,3.0844878 14.8512,3.81502439 C13.5048,5.19492683 12.6072,6.73717073 12.1992,8.4417561 C11.8728,9.69990244 11.8728,11.0798049 12.1584,12.7032195 C12.1176,12.7438049 12.0768,12.7843902 12.036,12.865561 C10.9344,14.1642927 11.3424,16.0718049 11.7096,17.3705366 Z M14.2392,13.7178537 L14.3616,13.7178537 C14.3616,13.7178537 15.4632,2.77251997 22.032,5.57291022 C28.6008,8.37330046 25.1643661,5.57291022 25.296,5.57291022 C25.4276339,5.57291022 26.8352285,6.19988573 27.336,6.08780488 C29.4168,7.50829268 30.6408,13.2714146 30.5184,13.6772683 C30.5592,13.7178537 30.6,13.7178537 30.6408,13.7178537 C31.3344,13.7178537 32.028,14.2454634 31.2528,16.8429268 C30.6816,18.8721951 30.1512,19.4403902 29.7432,19.4809756 C29.376,21.9160976 27.4176,24.96 24.3984,26.0558049 C23.7456,26.2993171 23.0928,26.3804878 22.44,26.3804878 C21.7872,26.3804878 21.1344,26.2587317 20.4816,26.0558049 C17.3808,25.0005854 15.504,21.9160976 15.1368,19.4809756 C14.7288,19.4403902 14.1984,18.8721951 13.6272,16.8429268 C12.852,14.2454634 13.5456,13.7178537 14.2392,13.7178537 Z"></path>
                                <path d="M25.704,29.7084878 C24.6432,30.0737561 23.5416,30.2766829 22.3992,30.2766829 C21.2976,30.2766829 20.196,30.0737561 19.1352,29.7084878 C16.9728,28.9373659 15.3,27.6386341 14.0352,26.0963902 C12.24,27.0298537 3.4272,29.2214634 0.1632,31.5754146 C3.9168,36.6891707 15.6264,39.6113171 22.44,39.6113171 C29.2536,39.6113171 41.3712,36.2833171 45.084,31.2101463 C41.8608,28.8156098 32.5992,27.070439 30.804,26.0963902 C29.5392,27.5980488 27.8664,28.9373659 25.704,29.7084878 Z"></path>
                            </g>
                        </g>
                    </g>
                    <ellipse id="Oval-9" stroke="#E9F2FF" fill="#E9F2FF" cx="25.5" cy="21.142439" rx="6.375" ry="4.85756098"></ellipse>
                </g>
            </g>
        </g>
    </g>
</svg>