<?xml version="1.0" encoding="UTF-8"?>
<svg width="12px" height="12px" viewBox="0 0 12 12" version="1.1" xmlns="http://www.w3.org/2000/svg" xmlns:xlink="http://www.w3.org/1999/xlink">
    <!-- Generator: Sketch 43.1 (39012) - http://www.bohemiancoding.com/sketch -->
    <title>ico_cerrar</title>
    <desc>Created with Sketch.</desc>
    <defs></defs>
    <g id="Page-1" stroke="none" stroke-width="1" fill="none" fill-rule="evenodd">
        <g id="DASHBOARD-Copy-15" transform="translate(-1049.000000, -195.000000)" fill="#59617E">
            <g id="CALENDARIO" transform="translate(557.000000, 185.000000)">
                <g id="CALENDARIO-Copy">
                    <g id="ico_cerrar" transform="translate(492.000000, 10.000000)">
                        <path d="M6.06086957,0.173565217 L6.06086957,0.391130435 L6.06086957,0.608347826 C3.04973913,0.614086957 0.613913043,3.04956522 0.608521739,6.06052174 C0.613913043,9.07130435 3.04973913,11.5067826 6.06086957,11.5125217 C9.07147826,11.5067826 11.5069565,9.07130435 11.5126957,6.06052174 C11.5069565,3.04956522 9.07147826,0.614086957 6.06086957,0.608347826 L6.06086957,0.391130435 L6.06086957,0.173565217 C9.312,0.173913043 11.9474783,2.8093913 11.9474783,6.06052174 C11.9474783,9.31165217 9.312,11.9471304 6.06086957,11.9471304 C2.8093913,11.9471304 0.17373913,9.31165217 0.17373913,6.06052174 C0.17373913,2.8093913 2.8093913,0.173913043 6.06086957,0.173565217 Z" id="Shape"></path>
                        <path d="M3.68834783,8.43269565 C3.60347826,8.348 3.60347826,8.21008696 3.68834783,8.12504348 L3.68834783,8.12504348 L8.12504348,3.68834783 C8.20991304,3.60347826 8.34782609,3.60347826 8.43269565,3.68834783 L8.43269565,3.68834783 C8.51756522,3.77321739 8.51756522,3.91078261 8.43269565,3.99565217 L8.43269565,3.99565217 L3.99617391,8.43269565 C3.95373913,8.47513043 3.89808696,8.49634783 3.84226087,8.49634783 L3.84226087,8.49634783 C3.78643478,8.49634783 3.73078261,8.47513043 3.68834783,8.43269565 L3.68834783,8.43269565 L3.68834783,8.43269565 Z" id="Shape"></path>
                        <path d="M8.12504348,8.43269565 L3.68834783,3.99617391 C3.60347826,3.91130435 3.60347826,3.77373913 3.68834783,3.68852174 L3.68834783,3.68852174 C3.77321739,3.604 3.91113043,3.604 3.996,3.68852174 L3.996,3.68852174 L8.43252174,8.12521739 C8.5173913,8.21008696 8.5173913,8.348 8.43252174,8.43286957 L8.43252174,8.43286957 C8.39026087,8.47530435 8.3346087,8.49652174 8.27878261,8.49652174 L8.27878261,8.49652174 C8.22313043,8.49634783 8.16747826,8.47513043 8.12504348,8.43269565 L8.12504348,8.43269565 L8.12504348,8.43269565 Z" id="Shape"></path>
                    </g>
                </g>
            </g>
        </g>
    </g>
</svg>