<?xml version="1.0" encoding="UTF-8"?>
<svg width="20px" height="18px" viewBox="0 0 20 18" version="1.1" xmlns="http://www.w3.org/2000/svg" xmlns:xlink="http://www.w3.org/1999/xlink">
    <!-- Generator: Sketch 43.1 (39012) - http://www.bohemiancoding.com/sketch -->
    <title>Group</title>
    <desc>Created with Sketch.</desc>
    <defs></defs>
    <g id="Page-1" stroke="none" stroke-width="1" fill="none" fill-rule="evenodd">
        <g id="DASHBOARD" transform="translate(-1029.000000, -453.000000)" stroke-width="0.2" stroke="#00BEBE" fill="#00BEBE" fill-rule="nonzero">
            <g id="CALENDARIO" transform="translate(557.000000, 185.000000)">
                <g id="CALENDARIO-Copy">
                    <g id="Group" transform="translate(473.000000, 269.000000)">
                        <path d="M4.84984758,0.616585584 C4.42282612,1.01193494 4.17513514,1.55171805 4.17073173,2.06679597 C4.17073173,2.72003753 4.68029856,3.1168661 5.0967988,3.37893104 L0,3.37893104 L0,7.35671247 L1.097561,7.35671247 L1.097561,16.859187 L16.902439,16.859187 L16.902439,7.35671247 L18,7.35671247 L18,3.37893104 L12.9032012,3.37893104 C13.6097561,2.94101545 13.8163851,2.54001416 13.8292683,2.06679597 C13.8248561,1.55171805 13.5771739,1.01193494 13.1501525,0.616585584 C12.5592498,0.163127143 12.0340844,0.0250518182 11.3803354,0.0986375325 C10.5365854,0.28917 10.0326644,0.771837532 9.63796831,1.24501156 C9.37673783,1.56534013 9.15318661,1.94212195 9.000011,2.3637661 C8.84683539,1.94212195 8.62328197,1.56534013 8.36205368,1.24501156 C7.86447441,0.634866104 7.23022466,0.22128039 6.62653539,0.0986375325 C5.92682929,0.0681920779 5.4878049,0.0681920779 4.84984758,0.616585584 Z M6.54420734,0.533749221 C7.15699978,0.750466104 7.68831149,1.12378169 8.02590368,1.52820506 C8.42568368,2.01840117 8.71495027,2.65409078 8.76675734,3.37897519 L6.5853549,3.37897519 C5.85210075,3.29397519 4.60975612,2.72003753 4.60974514,2.07375052 C4.60975612,1.61510377 4.86975295,1.20414532 5.14480612,0.941263506 C5.62864612,0.564834935 5.92682929,0.510147922 6.54420734,0.533749221 L6.54420734,0.533749221 Z M12.8551829,0.941153117 C13.1926808,1.25364403 13.3849976,1.69707909 13.3902439,2.06679597 C13.1912517,2.92339727 12.1974849,3.3672739 11.4146342,3.37886481 L9.23323173,3.37886481 C9.2850388,2.65398039 9.57430319,2.01829078 9.97408539,1.52809468 C10.413562,0.989194675 10.7560976,0.731147922 11.4489329,0.533638831 C12.0731708,0.510147922 12.5150181,0.647671299 12.8551829,0.941153117 L12.8551829,0.941153117 Z M0.439024412,3.82090896 L17.5609756,3.82090896 L17.5609756,6.91473455 L9.21951222,6.91473455 L9.21951222,5.36782065 L8.78048783,5.36782065 L8.78048783,6.91473455 L0.439024412,6.91473455 L0.439024412,3.82090896 Z M1.53658539,7.35671247 L16.4634147,7.35671247 L16.4634147,16.4172091 L9.21951222,16.4172091 L9.21951222,8.46165065 L8.78048783,8.46165065 L8.78048783,16.4172091 L1.53658539,16.4172091 L1.53658539,7.35671247 Z" id="Shape"></path>
                    </g>
                </g>
            </g>
        </g>
    </g>
</svg>