<?xml version="1.0" encoding="UTF-8"?>
<svg width="127px" height="113px" viewBox="0 0 127 113" version="1.1" xmlns="http://www.w3.org/2000/svg" xmlns:xlink="http://www.w3.org/1999/xlink">
    <!-- Generator: Sketch 43.1 (39012) - http://www.bohemiancoding.com/sketch -->
    <title>Group</title>
    <desc>Created with Sketch.</desc>
    <defs></defs>
    <g id="03_FONDOS-DE-INVERSION" stroke="none" stroke-width="1" fill="none" fill-rule="evenodd">
        <g id="OPERACIONES_00-Copy-55" transform="translate(-826.000000, -589.000000)" fill-rule="nonzero" fill="#517CBD">
            <g id="OPERATIVA" transform="translate(37.000000, 384.000000)">
                <g id="MONEY-ICON" transform="translate(789.000000, 205.000000)">
                    <g id="Group">
                        <path d="M40.7,77 L39.8,77.9 L40.5,78.4 L41.4,77.5 C42.3,78.1 43.3,78.3 44.3,78.1 C45.3,77.9 46.1,77.5 46.8,76.8 C47.4,76.1 47.7,75.5 47.7,74.8 C47.7,74.2 47.2,73.4 46.3,72.4 L49.2,69.5 C49.9,70.1 49.9,70.8 49.3,71.6 L50.6,72.5 C51.7,71.1 51.5,69.8 50.1,68.6 L51,67.7 L50.3,67.2 L49.4,68.1 C48.5,67.6 47.6,67.4 46.7,67.5 C45.8,67.6 45,68 44.4,68.7 C43.2,69.9 43.4,71.3 44.9,72.8 L41.7,76.1 C40.9,75.3 40.9,74.4 41.7,73.3 L40.4,72.4 C38.9,74 39.1,75.6 40.7,77 Z M45.7,69.4 C46.5,68.6 47.4,68.4 48.5,68.9 L45.8,71.7 C45.5,71.3 45.3,70.9 45.2,70.6 C45,70.3 45.2,69.9 45.7,69.4 Z M45.3,73.4 C45.8,74 46,74.4 46,74.8 C46,75.2 45.8,75.5 45.4,75.9 C44.4,76.9 43.4,77.1 42.3,76.5 L45.3,73.4 Z" id="Shape"></path>
                        <path d="M18,65.9 C18.1,66.6 17.8,67.3 17.2,67.9 C17.1,68 17,68.2 17,68.4 C17,68.6 17.1,68.8 17.3,68.9 L55.8,94.9 C55.9,95 56.1,95 56.2,95 C56.4,95 56.6,94.9 56.7,94.8 C57.9,93.5 60.1,93.3 61.5,94.3 C61.8,94.5 62.2,94.5 62.4,94.2 L73.8,82.4 C74,82.2 74,82 74,81.8 C74,81.6 73.9,81.4 73.7,81.3 C73.1,80.9 72.7,80.3 72.6,79.7 C72.5,79.1 72.7,78.4 73.1,77.9 C73.2,77.8 73.2,77.7 73.3,77.7 C73.5,77.5 73.5,77.3 73.5,77.1 C73.5,76.9 73.4,76.7 73.2,76.6 L34.7,50.6 C34.4,50.4 34,50.4 33.8,50.7 C32.6,52 30.4,52.2 29,51.2 C28.7,51 28.3,51 28.1,51.3 L16.8,63 C16.6,63.2 16.6,63.4 16.6,63.6 C16.6,63.8 16.7,64 16.9,64.1 C17.5,64.6 17.9,65.2 18,65.9 Z M28.8,52.7 C30.6,53.6 32.9,53.3 34.5,52.1 L71.9,77.4 C71.4,78.2 71.2,79.1 71.3,80.1 C71.4,80.9 71.8,81.6 72.3,82.1 L61.8,92.8 C60,91.9 57.7,92.2 56.1,93.4 L18.8,68.2 C19.3,67.4 19.5,66.6 19.4,65.7 C19.3,64.9 18.9,64.1 18.3,63.5 L28.8,52.7 Z" id="Shape"></path>
                        <path d="M87,85.8 L63,110.6 C62.1,111.5 60.8,111.6 59.7,110.9 L3.4,72.9 C3.1,72.7 2.6,72.8 2.4,73.1 C2.2,73.4 2.3,73.9 2.6,74.1 L58.9,112.1 C59.6,112.6 60.4,112.8 61.1,112.8 C62.2,112.8 63.2,112.4 64,111.6 L88,86.8 C88.3,86.5 88.3,86 88,85.8 C87.8,85.5 87.3,85.6 87,85.8 Z" id="Shape"></path>
                        <path d="M5.9,69.8 L58.2,105.2 C58.9,105.7 59.7,105.9 60.4,105.9 C61.5,105.9 62.5,105.5 63.3,104.7 L85.3,82 C86.1,81.1 86.5,80 86.4,78.8 C86.3,77.6 85.6,76.6 84.7,75.9 L32.4,40.4 C30.8,39.3 28.6,39.5 27.3,40.9 L5.3,63.6 C4.5,64.5 4.1,65.6 4.2,66.8 C4.3,68 4.9,69.1 5.9,69.8 Z M6.3,64.7 L28.3,42 C28.8,41.5 29.5,41.2 30.1,41.2 C30.6,41.2 31.1,41.3 31.5,41.6 L83.8,76.9 C84.4,77.3 84.8,78 84.9,78.7 C85,79.4 84.7,80.2 84.2,80.7 L62.2,103.4 C61.3,104.3 60,104.4 58.9,103.7 L6.7,68.5 C6.1,68.1 5.7,67.4 5.6,66.7 C5.6,65.9 5.8,65.2 6.3,64.7 Z" id="Shape"></path>
                        <path d="M63.3,36.3 C63.7,36.3 64,36 64,35.6 L64,24.1 C64,23.7 63.7,23.4 63.3,23.4 C62.9,23.4 62.6,23.7 62.6,24.1 L62.6,35.5 C62.5,36 62.9,36.3 63.3,36.3 Z" id="Shape"></path>
                        <path d="M63.3,43.7 C63.7,43.7 64,43.4 64,43 L64,39.3 C64,38.9 63.7,38.6 63.3,38.6 C62.9,38.6 62.6,38.9 62.6,39.3 L62.6,43 C62.5,43.4 62.9,43.7 63.3,43.7 Z" id="Shape"></path>
                        <path d="M125.8,82.7 C125.4,82.7 125.1,83 125.1,83.4 L125.1,94.8 C125.1,95.2 125.4,95.5 125.8,95.5 C126.2,95.5 126.5,95.2 126.5,94.8 L126.5,83.4 C126.5,83 126.2,82.7 125.8,82.7 Z" id="Shape"></path>
                        <path d="M125.8,97.9 C125.4,97.9 125.1,98.2 125.1,98.6 L125.1,102.3 C125.1,102.7 125.4,103 125.8,103 C126.2,103 126.5,102.7 126.5,102.3 L126.5,98.6 C126.5,98.2 126.2,97.9 125.8,97.9 Z" id="Shape"></path>
                        <path d="M2.6,35.1 C2.7,35.2 2.9,35.3 3.1,35.3 C3.3,35.3 3.5,35.2 3.6,35.1 C3.9,34.8 3.9,34.3 3.6,34.1 L2.1,32.6 C1.8,32.3 1.3,32.3 1.1,32.6 C0.8,32.9 0.8,33.4 1.1,33.6 L2.6,35.1 Z" id="Shape"></path>
                        <path d="M7.7,40.1 C7.8,40.2 8,40.3 8.2,40.3 C8.4,40.3 8.6,40.2 8.7,40.1 C9,39.8 9,39.3 8.7,39.1 L7.2,37.6 C6.9,37.3 6.4,37.3 6.2,37.6 C5.9,37.9 5.9,38.4 6.2,38.6 L7.7,40.1 Z" id="Shape"></path>
                        <path d="M1.6,40.4 C1.8,40.4 2,40.3 2.1,40.2 L3.6,38.7 C3.9,38.4 3.9,37.9 3.6,37.7 C3.3,37.4 2.8,37.4 2.6,37.7 L1.1,39.2 C0.8,39.5 0.8,40 1.1,40.2 C1.2,40.3 1.4,40.4 1.6,40.4 Z" id="Shape"></path>
                        <path d="M6.6,35.3 C6.8,35.3 7,35.2 7.1,35.1 L8.6,33.6 C8.9,33.3 8.9,32.8 8.6,32.6 C8.3,32.4 7.8,32.3 7.6,32.6 L6.1,34.1 C5.8,34.4 5.8,34.9 6.1,35.1 C6.3,35.3 6.4,35.3 6.6,35.3 Z" id="Shape"></path>
                        <path d="M24.7,102.7 C24.4,102.4 23.9,102.4 23.7,102.7 C23.5,103 23.4,103.5 23.7,103.7 L25.2,105.2 C25.3,105.3 25.5,105.4 25.7,105.4 C25.9,105.4 26.1,105.3 26.2,105.2 C26.5,104.9 26.5,104.4 26.2,104.2 L24.7,102.7 Z" id="Shape"></path>
                        <path d="M29.8,107.7 C29.5,107.4 29,107.4 28.8,107.7 C28.5,108 28.5,108.5 28.8,108.7 L30.3,110.2 C30.4,110.3 30.6,110.4 30.8,110.4 C31,110.4 31.2,110.3 31.3,110.2 C31.6,109.9 31.6,109.4 31.3,109.2 L29.8,107.7 Z" id="Shape"></path>
                        <path d="M25.2,107.7 L23.7,109.2 C23.4,109.5 23.4,110 23.7,110.2 C23.8,110.3 24,110.4 24.2,110.4 C24.4,110.4 24.6,110.3 24.7,110.2 L26.2,108.7 C26.5,108.4 26.5,107.9 26.2,107.7 C25.9,107.5 25.5,107.5 25.2,107.7 Z" id="Shape"></path>
                        <path d="M30.3,102.7 L28.8,104.2 C28.5,104.5 28.5,105 28.8,105.2 C28.9,105.3 29.1,105.4 29.3,105.4 C29.5,105.4 29.7,105.3 29.8,105.2 L31.3,103.7 C31.6,103.4 31.6,102.9 31.3,102.7 C31,102.5 30.5,102.4 30.3,102.7 Z" id="Shape"></path>
                        <path d="M105.1,90.6 L103.6,89.1 C103.3,88.8 102.8,88.8 102.6,89.1 C102.3,89.4 102.3,89.9 102.6,90.1 L104.1,91.6 C104.2,91.7 104.4,91.8 104.6,91.8 C104.8,91.8 105,91.7 105.1,91.6 C105.4,91.4 105.4,90.9 105.1,90.6 Z" id="Shape"></path>
                        <path d="M110.1,95.6 L108.6,94.1 C108.3,93.8 107.8,93.8 107.6,94.1 C107.3,94.4 107.3,94.9 107.6,95.1 L109.1,96.6 C109.2,96.7 109.4,96.8 109.6,96.8 C109.8,96.8 110,96.7 110.1,96.6 C110.4,96.4 110.4,95.9 110.1,95.6 Z" id="Shape"></path>
                        <path d="M104.1,94.1 L102.6,95.6 C102.3,95.9 102.3,96.4 102.6,96.6 C102.7,96.7 102.9,96.8 103.1,96.8 C103.3,96.8 103.5,96.7 103.6,96.6 L105.1,95.1 C105.4,94.8 105.4,94.3 105.1,94.1 C104.8,93.8 104.4,93.8 104.1,94.1 Z" id="Shape"></path>
                        <path d="M110.1,89.1 C109.8,88.8 109.3,88.8 109.1,89.1 L107.6,90.6 C107.3,90.9 107.3,91.4 107.6,91.6 C107.7,91.7 107.9,91.8 108.1,91.8 C108.3,91.8 108.5,91.7 108.6,91.6 L110.1,90.1 C110.4,89.8 110.4,89.3 110.1,89.1 Z" id="Shape"></path>
                        <path d="M101,50.2 C100.3,49.6 99.9,48.8 99.9,48 C99.9,47.6 99.6,47.3 99.2,47.3 C98.8,47.3 98.5,47.6 98.5,48 C98.5,49.3 99.1,50.4 100.1,51.3 C100.9,52 101.9,52.4 103,52.6 L103,54.7 C103,55.1 103.3,55.4 103.7,55.4 C104.1,55.4 104.4,55.1 104.4,54.7 L104.4,52.6 C105.5,52.5 106.5,52 107.3,51.3 C108.3,50.4 108.9,49.2 108.9,48 C108.9,46.8 108.3,45.6 107.3,44.7 C106.5,44 105.5,43.6 104.4,43.4 L104.4,37.1 C105.1,37.2 105.8,37.5 106.4,38 C107.1,38.6 107.5,39.4 107.5,40.2 C107.5,40.6 107.8,40.9 108.2,40.9 C108.6,40.9 108.9,40.6 108.9,40.2 C108.9,38.9 108.3,37.8 107.3,36.9 C106.5,36.2 105.5,35.8 104.4,35.6 L104.4,33.5 C104.4,33.1 104.1,32.8 103.7,32.8 C103.3,32.8 103,33.1 103,33.5 L103,35.6 C101.9,35.7 100.9,36.2 100.1,36.9 C99.1,37.8 98.5,39 98.5,40.2 C98.5,41.4 99.1,42.6 100.1,43.5 C100.9,44.2 101.9,44.6 103,44.8 L103,51.1 C102.2,51 101.5,50.7 101,50.2 Z M106.4,45.8 C107.1,46.4 107.5,47.2 107.5,48 C107.5,48.8 107.1,49.6 106.4,50.2 C105.9,50.7 105.2,51 104.4,51.1 L104.4,44.9 C105.2,45 105.9,45.4 106.4,45.8 Z M101,42.4 C100.3,41.8 99.9,41 99.9,40.2 C99.9,39.4 100.3,38.6 101,38 C101.5,37.5 102.2,37.2 103,37.1 L103,43.3 C102.2,43.2 101.5,42.9 101,42.4 Z" id="Shape"></path>
                        <path d="M103.7,59.2 C112,59.2 118.8,52.4 118.8,44.1 C118.8,35.8 112,29 103.7,29 C95.4,29 88.6,35.8 88.6,44.1 C88.6,52.4 95.4,59.2 103.7,59.2 Z M103.7,30.5 C111.2,30.5 117.3,36.6 117.3,44.1 C117.3,51.6 111.2,57.7 103.7,57.7 C96.2,57.7 90.1,51.6 90.1,44.1 C90.1,36.6 96.2,30.5 103.7,30.5 Z" id="Shape"></path>
                        <path d="M103.7,70.5 C116.3,70.5 126.5,60.3 126.5,47.7 C126.5,44.5 125.8,41.3 124.5,38.4 L124.2,37.7 C120.2,29.9 111.2,12.6 109.9,10 L113.6,1.9 C113.7,1.7 113.7,1.4 113.5,1.2 C113.4,1 113.1,0.9 112.9,0.9 C111.5,0.9 110.8,1.4 110.2,1.9 C109.7,2.3 109.3,2.6 108.4,2.6 C107.5,2.6 107.1,2.3 106.6,1.9 C106,1.5 105.3,0.9 103.9,0.9 C102.5,0.9 101.8,1.4 101.2,1.9 C100.7,2.3 100.3,2.6 99.4,2.6 C98.5,2.6 98.1,2.3 97.6,1.9 C97,1.5 96.3,0.9 94.9,0.9 C94.6,0.9 94.4,1 94.3,1.2 C94.2,1.4 94.1,1.7 94.2,1.9 L97.9,10 C96.3,13.1 84,36.6 83.2,38.6 C81.9,41.5 81.3,44.5 81.3,47.7 L81.3,47.7 L81.3,47.7 C80.9,60.3 91.1,70.5 103.7,70.5 Z M96.4,3.1 C97,3.5 97.7,4.1 99.1,4.1 C100.5,4.1 101.2,3.6 101.8,3.1 C102.3,2.7 102.7,2.4 103.6,2.4 C104.5,2.4 104.9,2.7 105.4,3.1 C106,3.5 106.7,4.1 108.1,4.1 C109.5,4.1 110.2,3.6 110.8,3.1 C111,3 111.2,2.8 111.4,2.7 L108.4,9.4 L98.7,9.4 L95.7,2.7 C96,2.8 96.2,3 96.4,3.1 Z M82.4,49.2 L82.4,47.8 C82.4,44.8 83,42 84.2,39.3 C85,37.4 97.1,14.2 98.9,10.9 L108.7,10.9 C110.2,13.7 119,30.7 123,38.4 L123.3,39.1 C124.5,41.8 125.2,44.8 125.2,47.8 C125.2,59.6 115.6,69.1 103.9,69.1 C92.4,69.1 83.2,60.3 82.4,49.2 L82.4,49.2 Z" id="Shape"></path>
                    </g>
                </g>
            </g>
        </g>
    </g>
</svg>