<?xml version="1.0" encoding="UTF-8"?>
<svg width="28px" height="17px" viewBox="0 0 28 17" version="1.1" xmlns="http://www.w3.org/2000/svg" xmlns:xlink="http://www.w3.org/1999/xlink">
    <!-- Generator: Sketch 43.2 (39069) - http://www.bohemiancoding.com/sketch -->
    <title>Shape</title>
    <desc>Created with Sketch.</desc>
    <defs></defs>
    <g id="Page-1" stroke="none" stroke-width="1" fill="none" fill-rule="evenodd">
        <g id="ayuda00-copy-4" transform="translate(-788.000000, -209.000000)" fill-rule="nonzero" fill="#195DC4">
            <g id="VIDEOS" transform="translate(788.000000, 207.000000)">
                <path d="M23.8492857,2 L9.69595238,2 C8.40928571,2 7.35238095,3.05690476 7.35238095,4.38952381 L7.35238095,6.36547619 L2.11380952,3.01095238 C1.7002381,2.7352381 1.14880952,2.7352381 0.735238095,2.965 C0.275714286,3.1947619 1.3500312e-13,3.7002381 1.3500312e-13,4.20571429 L1.3500312e-13,15.877619 C1.3500312e-13,16.3830952 0.275714286,16.8885714 0.735238095,17.1183333 C1.1947619,17.3480952 1.7002381,17.3480952 2.11380952,17.072381 L7.35238095,13.7178571 L7.35238095,15.6938095 C7.35238095,17.0264286 8.40928571,18.0833333 9.69595238,18.0833333 L23.8492857,18.0833333 C25.9171429,18.0833333 27.5714286,16.3830952 27.5714286,14.2692857 L27.5714286,5.81404762 C27.5714286,3.7002381 25.9171429,2 23.8492857,2 Z M7.35238095,12.615 L1.65428571,16.2911905 C1.47047619,16.4290476 1.24071429,16.3371429 1.1947619,16.2911905 C1.01095238,16.1992857 0.919047619,16.0154762 0.919047619,15.8316667 L0.919047619,4.20571429 C0.919047619,4.02190476 1.01095238,3.83809524 1.1947619,3.74619048 C1.24071429,3.74619048 1.33261905,3.7002381 1.42452381,3.7002381 C1.51642857,3.7002381 1.56238095,3.7002381 1.65428571,3.79214286 L7.35238095,7.46833333 L7.35238095,12.615 Z M26.652381,14.2692857 C26.652381,15.877619 25.4116667,17.1642857 23.8492857,17.1642857 L9.69595238,17.1642857 C8.9147619,17.1642857 8.27142857,16.5209524 8.27142857,15.6938095 L8.27142857,12.8907143 L8.27142857,4.38952381 C8.27142857,3.56238095 8.9147619,2.91904762 9.69595238,2.91904762 L23.8492857,2.91904762 C25.4116667,2.91904762 26.652381,4.20571429 26.652381,5.81404762 L26.652381,14.2692857 L26.652381,14.2692857 Z" id="Shape" transform="translate(13.785714, 10.041667) rotate(180.000000) translate(-13.785714, -10.041667) "></path>
            </g>
        </g>
    </g>
</svg>