<?xml version="1.0" encoding="UTF-8"?>
<svg width="169px" height="171px" viewBox="0 0 169 171" version="1.1" xmlns="http://www.w3.org/2000/svg" xmlns:xlink="http://www.w3.org/1999/xlink">
    <!-- Generator: Sketch 43.2 (39069) - http://www.bohemiancoding.com/sketch -->
    <title>wrench</title>
    <desc>Created with Sketch.</desc>
    <defs></defs>
    <g id="Page-1" stroke="none" stroke-width="1" fill="none" fill-rule="evenodd" opacity="0.5">
        <g id="ayuda00-copy-4" transform="translate(-834.000000, -449.000000)" fill-rule="nonzero" fill="#517CBD">
            <g id="VIDEOS" transform="translate(751.000000, 207.000000)">
                <g id="wrench" transform="translate(83.000000, 242.000000)">
                    <path d="M163.483641,15.537 L153.288633,5.28166667 C146.639975,-1.40633333 135.436931,-1.79533333 128.31441,4.415 L110.396765,20.0383333 C110.167455,20.2383333 109.97062,20.4736667 109.814212,20.7353333 L92.3724176,49.9606667 L81.173351,53.7156667 C80.226951,54.033 79.5115176,54.8206667 79.2825392,55.797 C79.0535608,56.7733333 79.3431804,57.7993333 80.0483412,58.509 L110.56941,89.2103333 C111.115512,89.7593333 111.850165,90.058 112.604369,90.058 C112.824731,90.058 113.04642,90.0326667 113.265457,89.9806667 C114.236047,89.7503333 115.01908,89.0306667 115.334547,88.0786667 L119.068453,76.8096667 L148.549012,58.903 C148.808476,58.745 149.041763,58.5473333 149.239924,58.316 L164.403531,40.6396667 C170.542871,33.4836667 170.129649,22.2226667 163.483641,15.537 Z M160.046645,36.8573333 L145.182267,54.1846667 L115.186424,72.4043333 C114.600888,72.76 114.160494,73.314 113.944108,73.9673333 L111.347141,81.8046667 L104.469504,74.8863333 C104.468178,74.885 104.467184,74.8833333 104.465859,74.882 L94.2917275,64.6483333 C94.2907333,64.6473333 94.2894078,64.6466667 94.2884137,64.6456667 L87.4101137,57.7266667 L95.2013451,55.1143333 C95.8528235,54.8956667 96.4052216,54.4503333 96.7584647,53.8583333 L114.512743,24.1106667 L132.084104,8.78933333 C136.972843,4.526 144.659361,4.78866667 149.218716,9.37566667 L159.414055,19.631 C163.975729,24.219 164.259384,31.947 160.046645,36.8573333 Z" id="Shape"></path>
                    <path d="M155.326243,116.307333 C146.877569,107.809 134.442814,104.855 123.176478,108.529 L62.0210118,47.0116667 C65.6730686,35.6786667 62.7364451,23.17 54.2884333,14.6713333 C45.3877667,5.71866667 32.0629451,2.918 20.3409725,7.53933333 C19.4373196,7.89566667 18.7725863,8.68633333 18.5740941,9.64233333 C18.375602,10.598 18.6695294,11.5903333 19.3561333,12.281 L37.6614843,30.6943333 L25.4527255,42.975 L7.14770588,24.5613333 C6.46077059,23.871 5.4756,23.576 4.52456078,23.7746667 C3.57418431,23.9743333 2.78783725,24.6426667 2.43393137,25.552 C-2.1595549,37.3426667 0.623643137,50.7466667 9.52397843,59.7003333 C17.9726529,68.1986667 30.4074078,71.1533333 41.6737431,67.4786667 L64.5411,90.4813333 L36.0639373,119.127667 L17.9517765,129.314333 C17.4480902,129.597667 17.040502,130.027 16.7823627,130.546333 L8.64352157,146.920333 C8.08946667,148.034667 8.30651569,149.380667 9.18233333,150.262 L19.355802,160.496 C19.9082,161.051667 20.6448412,161.343667 21.3914235,161.343667 C21.8285039,161.343667 22.268898,161.243667 22.6778118,161.038 L38.9554941,152.851 C39.4717725,152.591333 39.8985804,152.181333 40.1802471,151.674667 L50.3069922,133.455 L78.7848176,104.809667 L102.829541,128.996667 C99.1771529,140.329667 102.114108,152.838333 110.562451,161.337 C116.614308,167.424333 124.710733,170.667 132.958596,170.667 C136.840957,170.666667 140.75778,169.948 144.50958,168.469333 C145.413233,168.113 146.077967,167.322333 146.276459,166.366333 C146.474951,165.410667 146.181024,164.418333 145.49442,163.727667 L127.189069,145.314 L139.397496,133.033667 L157.702516,151.447 C158.38912,152.137667 159.374953,152.434 160.325661,152.233667 C161.276037,152.034 162.062384,151.365667 162.41629,150.456333 C167.010108,138.665 164.22691,125.261 155.326243,116.307333 Z M45.9547451,129.645 C45.7675196,129.833333 45.6074667,130.046667 45.4782314,130.279333 L35.5890804,148.071333 L21.9590647,154.926667 L14.7185745,147.643333 L21.533251,133.932333 L39.2202608,123.985 C39.4515588,123.855 39.6636373,123.694 39.8508627,123.505667 L68.6103549,94.5756667 L74.7145686,100.716 L45.9547451,129.645 Z M158.349686,143.91 L141.432455,126.892667 C140.308439,125.762667 138.486884,125.762667 137.362869,126.892667 L121.085186,143.266667 C120.545712,143.809667 120.242506,144.545667 120.242506,145.313667 C120.242506,146.081667 120.545712,146.817333 121.085186,147.360667 L138.002749,164.378333 C129.614384,166.055 120.817437,163.465333 114.632037,157.243333 C107.349463,149.917667 105.071939,138.949333 108.830698,129.301 C109.247896,128.229667 108.995059,127.011667 108.18651,126.198 L44.4559471,62.0906667 C43.9058686,61.5376667 43.1698902,61.243 42.4203255,61.243 C42.0677451,61.243 41.711851,61.3083333 41.3712,61.4426667 C31.7799529,65.224 20.8761392,62.9323333 13.5932333,55.6073333 C7.40750196,49.3846667 4.83273725,40.5353333 6.50053529,32.098 L23.4177667,49.1156667 C24.5417824,50.246 26.3633373,50.2453333 27.4873529,49.1156667 L43.7650353,32.7416667 C44.8887196,31.611 44.8887196,29.7786667 43.7650353,28.648 L26.8478039,11.6303333 C35.2361686,9.95033333 44.0324529,12.5423333 50.2185157,18.7653333 C57.5010902,26.091 59.7786137,37.0593333 56.0198549,46.7076667 C55.6026569,47.779 55.8554941,48.997 56.6640431,49.8106667 L120.393943,113.917333 C121.203155,114.730667 122.414653,114.985 123.47869,114.565333 C133.0706,110.785333 143.973751,113.075333 151.256657,120.400667 C157.443051,126.623333 160.017153,135.473 158.349686,143.91 Z" id="Shape"></path>
                </g>
            </g>
        </g>
    </g>
</svg>