<?xml version="1.0" encoding="UTF-8"?>
<svg width="27px" height="19px" viewBox="0 0 27 19" version="1.1" xmlns="http://www.w3.org/2000/svg" xmlns:xlink="http://www.w3.org/1999/xlink">
    <!-- Generator: Sketch 43.2 (39069) - http://www.bohemiancoding.com/sketch -->
    <title>Shape</title>
    <desc>Created with Sketch.</desc>
    <defs></defs>
    <g id="Page-1" stroke="none" stroke-width="1" fill="none" fill-rule="evenodd" opacity="0.5">
        <g id="ayuda00-copy-4" transform="translate(-646.000000, -1052.000000)" fill-rule="nonzero" fill="#FFFFFF">
            <g id="btn_ENVIAR" transform="translate(631.000000, 1048.000000)">
                <path d="M36.28,4 C33.8753725,4 31.8420628,5.60618628 31.185625,7.8 L16.63875,7.8 C15.7380436,7.8 15,8.5380436 15,9.43875 L15,21.36125 C15,22.261964 15.7380436,23 16.63875,23 L34.64125,23 C35.5419564,23 36.28,22.261964 36.28,21.36125 L36.28,14.64 C39.2136547,14.64 41.6,12.2536532 41.6,9.32 C41.6,6.386343 39.2136528,4 36.28,4 Z M36.28,4.76 C38.8029192,4.76 40.84,6.7970774 40.84,9.32 C40.84,11.8429188 38.8029173,13.88 36.28,13.88 C33.7570827,13.88 31.72,11.8429188 31.72,9.32 C31.72,6.7970774 33.7570808,4.76 36.28,4.76 Z M37.028125,7.408125 C36.8623503,7.40637512 36.7145701,7.51228687 36.6629602,7.66983286 C36.6113503,7.82737884 36.6678213,8.00020048 36.8025,8.096875 L37.859375,8.94 L33.62,8.94 C33.5963024,8.93776875 33.5724476,8.93776875 33.54875,8.94 C33.3388818,8.95967515 33.1846999,9.1457568 33.204375,9.355625 C33.2240502,9.5654932 33.4101318,9.71967514 33.62,9.7 L37.859375,9.7 L36.8025,10.543125 C36.696394,10.6279619 36.6436192,10.7629692 36.6640617,10.8972744 C36.6845043,11.0315797 36.7750574,11.144771 36.9015995,11.1941966 C37.0281416,11.2436222 37.1714407,11.2217703 37.2775,11.136875 L39.1775,9.616875 C39.2677363,9.54475776 39.3202742,9.43551404 39.3202742,9.32 C39.3202742,9.20448596 39.2677363,9.09524224 39.1775,9.023125 L37.2775,7.503125 C37.2085913,7.44235531 37.1200006,7.40860649 37.028125,7.408125 L37.028125,7.408125 Z M16.63875,8.56 L31.019375,8.56 C30.982949,8.81085434 30.96,9.05920296 30.96,9.32 C30.96,10.4418425 31.3149135,11.4891912 31.91,12.348125 L25.64,16.825 L15.76,9.783125 L15.76,9.43875 C15.76,8.9481928 16.1481943,8.56 16.63875,8.56 Z M15.76,10.709375 L25.414375,17.60875 C25.5485133,17.7077153 25.7314867,17.7077153 25.865625,17.60875 L32.385,12.941875 C33.193412,13.8104798 34.2907171,14.4037441 35.52,14.580625 L35.52,21.36125 C35.52,21.851792 35.1318057,22.24 34.64125,22.24 L16.63875,22.24 C16.1481943,22.24 15.76,21.851792 15.76,21.36125 L15.76,10.709375 Z" id="Shape"></path>
            </g>
        </g>
    </g>
</svg>