<?xml version="1.0" encoding="utf-8"?>
<!-- Generator: Adobe Illustrator 16.0.0, SVG Export Plug-In . SVG Version: 6.00 Build 0)  -->
<!DOCTYPE svg PUBLIC "-//W3C//DTD SVG 1.1//EN" "http://www.w3.org/Graphics/SVG/1.1/DTD/svg11.dtd">
<svg version="1.1" id="Capa_1" xmlns="http://www.w3.org/2000/svg" xmlns:xlink="http://www.w3.org/1999/xlink" x="0px" y="0px"
	 width="678.5px" height="177.446px" viewBox="0 22.446 678.5 177.446" enable-background="new 0 22.446 678.5 177.446"
	 xml:space="preserve">
<g id="blanco_2_">
	<g>
		<g>
			<path fill="#333333" d="M482.092,90.176v27.198h-5.521V96.335h-0.598l-5.319,19.84h-5.516l-5.321-19.84h-0.599v21.039h-5.517
				V90.176h9.399l4.797,19.797l4.8-19.797H482.092z"/>
		</g>
	</g>
	<path fill="#333333" d="M454.93,148.057l-1.303-0.244l0.161-4.557c3.279,0.436,5.666,0.65,7.159,0.65
		c1.003,0,1.793-0.105,2.379-0.324c0.583-0.219,0.87-0.625,0.87-1.22c0-0.543-0.277-0.938-0.833-1.18
		c-0.557-0.245-1.485-0.472-2.787-0.69c-0.487-0.053-0.824-0.109-1.014-0.162c-1.356-0.244-2.468-0.551-3.333-0.914
		c-0.87-0.368-1.573-0.949-2.115-1.751s-0.813-1.918-0.813-3.355c0-2.305,0.705-4.013,2.116-5.124
		c1.407-1.112,3.348-1.669,5.813-1.669c1.467,0,3.62,0.259,6.469,0.771l1.344,0.246l-0.08,4.515c-3.283-0.433-5.711-0.65-7.283-0.65
		c-0.924,0-1.65,0.092-2.176,0.285c-0.53,0.19-0.792,0.557-0.792,1.1c0,0.565,0.267,0.969,0.809,1.198
		c0.545,0.229,1.426,0.457,2.647,0.671l1.421,0.243c2.168,0.434,3.716,1.078,4.637,1.933c0.92,0.852,1.382,2.231,1.382,4.129
		c0,2.331-0.665,4.051-1.993,5.164c-1.331,1.11-3.376,1.667-6.142,1.667C459.687,148.789,457.503,148.548,454.93,148.057z"/>
	<path fill="#333333" d="M473.514,146.39c-1.411-1.6-2.114-4.188-2.114-7.769c0-3.74,0.736-6.534,2.216-8.378
		c1.479-1.845,3.773-2.769,6.893-2.769c2.875,0,5.052,0.767,6.529,2.299c1.479,1.531,2.214,3.831,2.214,6.891l-0.406,3.783h-11.956
		c0.051,0.95,0.222,1.677,0.509,2.176c0.284,0.503,0.746,0.855,1.38,1.058c0.639,0.203,1.526,0.306,2.666,0.306
		c0.896,0,1.969-0.028,3.215-0.086c1.246-0.052,2.153-0.105,2.723-0.158l1.14-0.123l0.084,4.025c-3.064,0.761-5.803,1.14-8.216,1.14
		C477.214,148.789,474.923,147.989,473.514,146.39z M483.889,136.302c0-1.627-0.256-2.759-0.756-3.395
		c-0.501-0.637-1.39-0.955-2.663-0.955c-1.304,0-2.226,0.331-2.765,0.995c-0.545,0.664-0.832,1.784-0.854,3.354H483.889z"/>
	<path fill="#333333" d="M493.422,156.373c-1.613-0.853-2.419-2.241-2.419-4.168c0-1.004,0.236-1.895,0.711-2.662
		c0.473-0.773,1.212-1.567,2.216-2.381c-0.488-0.324-0.862-0.745-1.119-1.258c-0.257-0.515-0.385-1.059-0.385-1.629
		c0-0.406,0.102-0.827,0.304-1.26c0.204-0.434,0.629-1.165,1.281-2.195c-1.844-1.355-2.767-3.334-2.767-5.938
		c0-2.467,0.754-4.302,2.255-5.511c1.507-1.208,3.604-1.809,6.286-1.809c1.141,0,2.509,0.176,4.111,0.525l6.543-0.201v4.353
		l-3.051-0.245c0.354,0.569,0.592,1.056,0.712,1.464c0.123,0.406,0.184,0.962,0.184,1.666c0,2.442-0.691,4.184-2.072,5.228
		c-1.385,1.044-3.486,1.567-6.301,1.567c-0.814,0-1.438-0.055-1.871-0.163c-0.271,0.649-0.407,1.208-0.407,1.667
		c0,0.571,0.278,0.914,0.836,1.037c0.555,0.123,1.59,0.199,3.111,0.224c2.089,0.056,3.747,0.218,4.982,0.489
		c1.232,0.271,2.188,0.82,2.866,1.647c0.676,0.831,1.014,2.039,1.014,3.639c0,2.468-0.838,4.284-2.521,5.449
		c-1.683,1.166-4.255,1.749-7.729,1.749C497.292,157.656,495.035,157.228,493.422,156.373z M503.915,152.651
		c0.691-0.354,1.04-0.892,1.04-1.625c0-0.678-0.254-1.107-0.755-1.282c-0.501-0.178-1.084-0.277-1.75-0.303
		c-0.666-0.027-1.106-0.041-1.32-0.041l-3.664-0.285c-0.731,0.731-1.098,1.464-1.098,2.196c0,0.651,0.347,1.124,1.04,1.422
		c0.691,0.298,1.743,0.446,3.153,0.446C502.105,153.18,503.223,153.006,503.915,152.651z M502.919,134.758
		c0-1.978-1.029-2.969-3.09-2.969c-2.092,0-3.134,0.991-3.134,2.969c0,2.008,1.042,3.009,3.134,3.009
		C501.89,137.766,502.919,136.765,502.919,134.758z"/>
	<path fill="#333333" d="M515.1,147.73c-0.991-0.701-1.693-1.788-2.098-3.25c-0.406-1.465-0.609-3.42-0.609-5.858v-10.657h5.448
		v10.738c0,1.465,0.066,2.557,0.202,3.274c0.136,0.719,0.412,1.219,0.834,1.505c0.421,0.286,1.066,0.428,1.931,0.428
		c0.624,0,1.188-0.052,1.688-0.159c0.504-0.11,1.203-0.301,2.098-0.572v-15.211h5.448v20.335h-5.409v-1.14
		c-1.14,0.625-2.109,1.05-2.909,1.281c-0.801,0.229-1.648,0.345-2.545,0.345C517.452,148.789,516.088,148.437,515.1,147.73z"/>
	<path fill="#333333" d="M533.95,127.965h5.406v2.158c2.33-1.358,4.501-2.237,6.507-2.646v5.491
		c-2.033,0.407-3.917,0.879-5.651,1.423l-0.816,0.284v13.627h-5.444L533.95,127.965L533.95,127.965z"/>
	<path fill="#333333" d="M549.261,146.003c-1.585-1.858-2.377-4.494-2.377-7.908c0-3.392,0.792-6.007,2.377-7.851
		c1.587-1.844,3.91-2.767,6.974-2.767c3.065,0,5.39,0.923,6.979,2.767c1.586,1.844,2.378,4.459,2.378,7.851
		c0,3.414-0.795,6.051-2.378,7.908c-1.589,1.857-3.913,2.785-6.979,2.785C553.172,148.789,550.849,147.86,549.261,146.003z
		 M559.124,142.729c0.623-0.949,0.936-2.494,0.936-4.634c0-2.144-0.313-3.675-0.936-4.598c-0.624-0.921-1.587-1.383-2.889-1.383
		c-1.298,0-2.263,0.462-2.886,1.383c-0.624,0.923-0.934,2.456-0.934,4.598c0,2.14,0.31,3.685,0.934,4.634
		c0.625,0.95,1.586,1.423,2.886,1.423C557.538,144.152,558.499,143.679,559.124,142.729z"/>
	<path fill="#333333" d="M454.504,178.57c-1.194-1.724-1.788-4.319-1.788-7.79c0-3.795,0.669-6.569,2.011-8.314
		c1.343-1.751,3.412-2.625,6.2-2.625c1.008,0,2.535,0.193,4.597,0.571v-8.214h5.449v28.468h-5.412v-0.854
		c-1.108,0.515-2.061,0.868-2.847,1.06c-0.788,0.188-1.573,0.281-2.36,0.281C457.651,181.152,455.699,180.294,454.504,178.57z
		 M464.956,175.785l0.572-0.122v-10.698c-1.438-0.268-2.646-0.404-3.622-0.404c-1.302,0-2.238,0.461-2.806,1.384
		c-0.57,0.92-0.853,2.494-0.853,4.718c0,2.031,0.257,3.477,0.769,4.33c0.517,0.853,1.385,1.282,2.605,1.282
		C462.597,176.274,463.712,176.108,464.956,175.785z"/>
	<path fill="#333333" d="M475.777,178.754c-1.411-1.6-2.115-4.188-2.115-7.769c0-3.74,0.738-6.536,2.216-8.379
		c1.479-1.844,3.775-2.767,6.895-2.767c2.875,0,5.048,0.768,6.527,2.298c1.477,1.534,2.215,3.831,2.215,6.896l-0.406,3.779h-11.957
		c0.054,0.949,0.225,1.676,0.51,2.175c0.283,0.502,0.746,0.855,1.382,1.059c0.635,0.202,1.526,0.305,2.668,0.305
		c0.893,0,1.962-0.026,3.212-0.082c1.244-0.058,2.155-0.109,2.72-0.166l1.143-0.118l0.081,4.025
		c-3.063,0.761-5.801,1.141-8.213,1.141C479.481,181.152,477.185,180.353,475.777,178.754z M486.149,168.667
		c0-1.628-0.251-2.758-0.755-3.396c-0.502-0.637-1.388-0.956-2.664-0.956c-1.301,0-2.223,0.331-2.766,0.995
		c-0.544,0.666-0.827,1.786-0.855,3.356H486.149L486.149,168.667z"/>
	<path fill="#333333" d="M492.939,174.484c0-2.116,0.561-3.641,1.687-4.577c1.127-0.936,2.937-1.483,5.429-1.647l4.355-0.325v-1.261
		c0-0.812-0.185-1.383-0.549-1.709c-0.368-0.324-0.983-0.486-1.853-0.486c-0.896,0-2.13,0.034-3.702,0.102
		c-1.573,0.067-2.885,0.143-3.942,0.222l-0.165-3.779c2.929-0.788,5.695-1.183,8.298-1.183s4.479,0.545,5.632,1.629
		c1.149,1.083,1.728,2.817,1.728,5.205v8.46c0.053,0.677,0.17,1.141,0.344,1.385c0.181,0.241,0.509,0.421,0.999,0.526l-0.161,4.108
		c-1.41,0-2.529-0.095-3.356-0.282c-0.829-0.192-1.648-0.572-2.46-1.141c-1.979,0.948-3.976,1.421-5.979,1.421
		C495.038,181.152,492.939,178.93,492.939,174.484z M503.799,176.232l0.61-0.163v-4.353l-3.704,0.328
		c-1.518,0.134-2.276,0.945-2.276,2.439c0,1.49,0.665,2.237,1.994,2.237C501.452,176.721,502.576,176.558,503.799,176.232z"/>
	<path fill="#333333" d="M516.426,180.095c-0.989-0.704-1.688-1.79-2.096-3.253c-0.409-1.465-0.61-3.418-0.61-5.857v-10.654h5.45
		v10.738c0,1.464,0.065,2.556,0.201,3.275c0.138,0.718,0.413,1.217,0.834,1.504c0.424,0.284,1.067,0.426,1.932,0.426
		c0.625,0,1.186-0.053,1.688-0.16c0.503-0.11,1.203-0.299,2.097-0.569v-15.212h5.448v20.334h-5.408v-1.14
		c-1.139,0.624-2.108,1.05-2.909,1.28c-0.802,0.229-1.646,0.345-2.542,0.345C518.776,181.152,517.415,180.801,516.426,180.095z"/>
	<path fill="#333333" d="M538.531,180.422c-0.87-0.489-1.492-1.288-1.871-2.399c-0.381-1.111-0.571-2.646-0.571-4.597v-8.459h-2.4
		v-4.636h2.4v-5.65h5.45v5.65h5.002v4.636h-5.002v8.34c0,1.055,0.095,1.826,0.283,2.298c0.191,0.473,0.668,0.698,1.426,0.67
		l3.089-0.082l0.247,4.351c-1.085,0.246-1.933,0.408-2.546,0.487c-0.609,0.087-1.227,0.122-1.85,0.122
		C540.617,181.152,539.395,180.91,538.531,180.422z"/>
	<path fill="#333333" d="M550.262,178.365c-1.585-1.857-2.378-4.491-2.378-7.908c0-3.39,0.796-6.005,2.378-7.851
		c1.588-1.844,3.91-2.767,6.978-2.767c3.064,0,5.388,0.923,6.976,2.767c1.589,1.846,2.378,4.46,2.378,7.851
		c0,3.417-0.794,6.055-2.378,7.908c-1.588,1.862-3.911,2.786-6.976,2.786C554.172,181.152,551.849,180.227,550.262,178.365z
		 M560.123,175.094c0.626-0.948,0.94-2.495,0.94-4.637c0-2.141-0.314-3.674-0.94-4.596c-0.621-0.921-1.582-1.383-2.884-1.383
		c-1.3,0-2.269,0.462-2.887,1.383c-0.625,0.922-0.937,2.456-0.937,4.596c0,2.143,0.31,3.688,0.937,4.637
		c0.623,0.947,1.587,1.424,2.887,1.424C558.54,176.515,559.502,176.042,560.123,175.094z"/>
	<g opacity="0.1">
		<g>
			<g>
				<defs>
					<rect id="SVGID_1_" x="392.647" y="100.155" width="42.321" height="94.554"/>
				</defs>
				<clipPath id="SVGID_2_">
					<use xlink:href="#SVGID_1_"  overflow="visible"/>
				</clipPath>
				<path clip-path="url(#SVGID_2_)" fill="#333333" d="M409.384,148.975v14.122c0,6.516,5.282,11.798,11.799,11.798h4.876v14.709
					c0,1.142,0.523,2.219,1.422,2.918c-0.599,1.331-1.917,2.186-3.373,2.186h-11.082c-2.046,0-3.703-1.659-3.703-3.708v-14.712
					h-4.878c-6.516,0-11.798-5.281-11.798-11.794v-14.125c0-6.516,5.282-11.796,11.798-11.796h-0.297l11.486-33.659
					c1.1-2.863,3.85-4.759,6.919-4.759h12.416c-1.174,0.843-2.078,2.013-2.599,3.365l-11.486,33.658
					C420.884,137.178,409.384,141.011,409.384,148.975"/>
			</g>
		</g>
	</g>
	<path fill="#333333" d="M416.653,170.419c-7.177,0.004-12.995-5.809-12.996-12.987c-0.001-7.173,5.812-12.988,12.987-12.99
		c7.174-0.002,12.991,5.816,12.991,12.989C429.628,164.6,423.822,170.411,416.653,170.419 M416.653,151.882
		c-3.066-0.004-5.555,2.479-5.556,5.546c-0.006,3.065,2.479,5.554,5.545,5.554c3.066,0.001,5.553-2.482,5.553-5.55
		C422.195,154.368,419.713,151.885,416.653,151.882"/>
	<path fill="#333333" d="M422.552,104.344h28.283v-8.369h-4.893h-23.41c-4.789,0.028-9.072,2.979-10.805,7.441
		c-0.018,0.047-0.037,0.099-0.055,0.148l-6.554,19.207c-2.381-2.072-5.431-3.215-8.59-3.212h-4.031
		c-3.953,0.002-7.157,3.205-7.16,7.158v5.174c0.003,3.952,3.207,7.154,7.16,7.158h0.677c-3.019,2.994-4.715,7.07-4.713,11.323v14.12
		c0.012,8.826,7.158,15.973,15.982,15.986h0.693v10.524c0.003,4.354,3.533,7.885,7.887,7.889h11.083
		c4.354-0.004,7.886-3.532,7.888-7.889v-10.529h18.837v-8.368h-22.193c-0.547-0.112-1.112-0.112-1.66,0H410.15
		c-0.548-0.112-1.114-0.112-1.663,0h-4.045c-4.201-0.004-7.605-3.41-7.613-7.613V150.37c0.008-4.201,3.412-7.606,7.613-7.613h46.391
		v-8.255l-40.839-0.107l9.566-28.035C420.061,105.143,421.241,104.351,422.552,104.344 M413.505,180.473h10.123v10.049h-10.123
		V180.473z M393.704,130.678v-2.754h2.824c1.852,0,3.532,1.077,4.307,2.754H393.704z"/>
	<path fill="#333333" d="M417.923,71.84c-10.14,0-18.36,8.224-18.36,18.371c0,10.146,8.221,18.371,18.36,18.371
		c10.138-0.011,18.349-8.229,18.361-18.371C436.284,80.064,428.065,71.84,417.923,71.84 M428.505,83.929l-10.44,13.047
		c-0.02,0.023-0.039,0.048-0.059,0.07c-0.588,0.66-1.399,1.041-2.283,1.076c-0.044,0.001-0.089,0.004-0.136,0.004
		c-0.832,0-1.619-0.314-2.226-0.893c-0.004-0.002-0.005-0.004-0.008-0.005l-5.868-5.647c-0.664-0.638-0.684-1.69-0.045-2.354
		c0.635-0.663,1.69-0.682,2.354-0.046l5.788,5.568l10.324-12.902c0.575-0.718,1.622-0.835,2.341-0.261
		C428.963,82.164,429.081,83.211,428.505,83.929"/>
	<path fill="#333333" d="M417.923,66.811c-12.922,0-23.4,10.477-23.4,23.4s10.477,23.398,23.4,23.398
		c12.925,0,23.401-10.475,23.401-23.398S430.848,66.811,417.923,66.811 M417.923,110.88c-11.405,0-20.653-9.254-20.653-20.668
		c0-11.413,9.248-20.667,20.653-20.667c11.403,0.014,20.644,9.261,20.655,20.667C438.578,101.628,429.332,110.88,417.923,110.88"/>
</g>
<path fill="#333333" d="M486.086,116.007c-1.408-1.599-2.115-4.188-2.115-7.767c0-3.741,0.74-6.534,2.217-8.379
	c1.478-1.844,3.775-2.766,6.894-2.766c2.872,0,5.049,0.767,6.527,2.298c1.478,1.53,2.217,3.831,2.217,6.895l-0.408,3.78h-11.958
	c0.055,0.952,0.229,1.676,0.51,2.179c0.284,0.502,0.746,0.852,1.384,1.058c0.638,0.201,1.525,0.304,2.663,0.304
	c0.897,0,1.967-0.026,3.213-0.081s2.156-0.109,2.724-0.163l1.141-0.123l0.083,4.027c-3.063,0.757-5.802,1.138-8.217,1.138
	C489.788,118.408,487.494,117.609,486.086,116.007z M496.456,105.922c0-1.628-0.252-2.758-0.754-3.396
	c-0.501-0.637-1.389-0.954-2.664-0.954c-1.297,0-2.221,0.332-2.764,0.995c-0.545,0.665-0.828,1.785-0.854,3.355H496.456z"/>
<path fill="#333333" d="M500.688,123.248c1.218-0.814,2.096-1.491,2.624-2.033c0.527-0.544,0.878-1.114,1.058-1.707
	c0.177-0.6,0.262-1.455,0.262-2.564v-19.36h5.451v19.4c0,1.898-0.204,3.41-0.61,4.537c-0.407,1.123-1.106,2.107-2.098,2.947
	c-0.986,0.84-2.501,1.775-4.533,2.806L500.688,123.248z M504.631,89.492h5.451v5.49h-5.451V89.492z"/>
<path fill="#333333" d="M515.106,115.622c-1.591-1.855-2.381-4.491-2.381-7.911c0-3.389,0.794-6.005,2.381-7.85
	c1.586-1.844,3.908-2.766,6.973-2.766s5.39,0.922,6.977,2.766c1.588,1.845,2.378,4.46,2.378,7.85c0,3.418-0.792,6.056-2.378,7.911
	c-1.587,1.857-3.911,2.784-6.977,2.784C519.014,118.408,516.69,117.477,515.106,115.622z M524.967,112.348
	c0.625-0.949,0.938-2.495,0.938-4.637c0-2.141-0.312-3.674-0.938-4.596c-0.626-0.921-1.588-1.382-2.889-1.382
	c-1.298,0-2.262,0.461-2.885,1.382c-0.624,0.924-0.938,2.455-0.938,4.596c0,2.142,0.312,3.688,0.938,4.637
	c0.625,0.949,1.587,1.424,2.885,1.424C523.38,113.772,524.341,113.298,524.967,112.348z"/>
<path fill="#333333" d="M534.278,97.586h5.413v2.155c2.33-1.355,4.503-2.237,6.504-2.645v5.49c-2.031,0.407-3.916,0.881-5.65,1.423
	l-0.813,0.285v13.625h-5.446V97.586H534.278L534.278,97.586z"/>
<g>
	<g>
		<path fill="#E40520" d="M177.627,27.34c-28.064,0-50.817,22.75-50.817,50.816c0,28.067,22.752,50.815,50.817,50.815
			c28.062,0,50.814-22.748,50.814-50.815C228.438,50.09,205.689,27.34,177.627,27.34z M177.627,124.135
			c-25.391,0-45.975-20.588-45.975-45.978s20.584-45.976,45.975-45.976S223.6,52.765,223.6,78.156
			C223.6,103.547,203.018,124.135,177.627,124.135z"/>
		<path fill="#E40520" d="M211.201,80.18c-0.002-0.401-0.047-0.747-0.096-1.024c-0.587-3.296-1.749-6.542-3.511-9.594
			c-1.771-3.066-4.387-5.992-6.962-8.156c-1.733-1.315-3.934-1.787-6.06-1.301c-0.808-2.35-2.74-4.317-4.907-5.26
			c-3.764-1.368-7.821-2.111-12.042-2.111c-4.197,0-8.236,0.737-11.982,2.092c-0.285,0.104-0.627,0.248-0.99,0.456
			c-1.924,1.003-3.402,2.761-4.03,4.886c-2.229-0.39-4.648,0.251-6.376,1.526c-2.576,2.164-4.822,4.803-6.592,7.871
			c-1.763,3.05-2.923,6.298-3.512,9.593c-0.05,0.278-0.093,0.623-0.094,1.024c-0.109,2.693,1.24,5.369,3.753,6.821
			c1.296,0.747,2.734,1.068,4.135,0.997l16.531-0.041c1.177,0.042,4.286,0.05,6.667,0.052v15.572h4.983V88.01
			c2.383-0.002,5.489-0.01,6.662-0.052l16.53,0.041c1.4,0.071,2.838-0.25,4.134-0.997C209.96,85.548,211.312,82.873,211.201,80.18z
			 M169.792,82.344c-0.253,0.437-0.729,0.667-1.2,0.624l-16.818,0.044c-0.498,0.043-1.015-0.062-1.479-0.33
			c-0.876-0.508-1.338-1.459-1.259-2.407c-0.005-0.066-0.002-0.145,0.017-0.245c0.488-2.735,1.452-5.433,2.917-7.978
			c1.478-2.558,3.345-4.749,5.481-6.545c0.03-0.023,0.056-0.042,0.083-0.061c0.788-0.599,1.888-0.701,2.798-0.176
			c0.48,0.275,0.83,0.683,1.043,1.151l8.375,14.596C170.006,81.406,170.04,81.916,169.792,82.344z M179.014,82.166
			c-0.252,0.51-0.78,0.859-1.387,0.859c-0.62,0-1.156-0.365-1.402-0.893l-10.388-17.885c-0.353-0.505-0.558-1.117-0.558-1.778
			c0-1.246,0.732-2.323,1.789-2.819c0.065-0.048,0.155-0.092,0.271-0.134c3.212-1.163,6.68-1.796,10.289-1.796
			c3.632,0,7.113,0.64,10.34,1.813c0.042,0.016,0.08,0.032,0.114,0.048c1.122,0.472,1.907,1.581,1.907,2.875
			c0,0.679-0.216,1.31-0.584,1.821L179.014,82.166z M204.956,82.682c-0.466,0.267-0.982,0.374-1.479,0.33l-16.818-0.044
			c-0.472,0.042-0.946-0.187-1.199-0.624c-0.247-0.428-0.214-0.941,0.042-1.327l8.373-14.594c0.211-0.469,0.567-0.875,1.043-1.152
			c0.909-0.525,2.012-0.422,2.799,0.176c0.027,0.019,0.054,0.039,0.082,0.062c2.139,1.796,4.007,3.986,5.481,6.544
			c1.468,2.544,2.431,5.241,2.918,7.978c0.016,0.096,0.022,0.178,0.016,0.246C206.293,81.223,205.835,82.175,204.956,82.682z"/>
	</g>
	<g>
		<polygon fill="#E40520" points="31.893,174.707 19.596,149.528 1,149.528 1,199.888 19.596,199.888 19.596,174.707 
			31.893,199.888 44.192,174.707 44.192,199.89 62.787,199.89 62.787,149.532 44.192,149.528 		"/>
		<path fill="#E40520" d="M83.221,149.528L68.756,199.89h18.596l2.375-8.266h19.846l2.377,8.266h18.593l-14.462-50.362H83.221z
			 M92.099,183.361l7.549-26.289l7.552,26.289H92.099z"/>
		<path fill="#E40520" d="M171.272,149.552h-34.8v50.34h18.591v-20.976h16.208c8.11,0,14.682-6.573,14.682-14.685
			C185.953,156.125,179.381,149.552,171.272,149.552z M159.412,170.387h-4.033v-15.071h4.033c4.191,0,8.265,2.243,8.265,6.809
			C167.677,166.688,164.084,170.387,159.412,170.387z"/>
		<polygon fill="#E40520" points="192.403,199.89 210.996,199.89 210.996,178.865 241.842,178.865 241.842,170.6 210.996,170.6 
			210.996,157.792 241.842,157.792 241.842,149.528 192.403,149.528 		"/>
		<polygon fill="#E40520" points="354.249,157.792 354.249,149.527 304.806,149.527 304.806,199.888 354.249,199.888 
			354.249,191.625 323.403,191.625 323.403,178.864 354.249,178.864 354.249,170.6 323.403,170.6 323.403,157.792 		"/>
		<path fill="#E40520" d="M297.825,162.13c0-6.948-5.635-12.585-12.589-12.585h-16.236h-20.654v25.173v25.173l18.906-0.002V179.04
			h4.031c4.557,0,8.263,3.698,8.263,8.262c0,0.137-0.004,0.271-0.011,0.405v12.181h5.702h12.587v-12.586
			c0-0.136,0.004-0.275,0-0.413c-0.221-6.762-5.773-12.173-12.587-12.173C292.19,174.718,297.825,169.083,297.825,162.13z
			 M271.284,170.392h-4.031v-15.066h4.031c4.083,0,8.263,2.241,8.263,6.804C279.547,166.696,275.851,170.392,271.284,170.392z"/>
	</g>
</g>
</svg>
