<?xml version="1.0" encoding="utf-8"?>
<!-- Generator: Adobe Illustrator 21.0.2, SVG Export Plug-In . SVG Version: 6.00 Build 0)  -->
<svg version="1.1" id="Layer_1" xmlns="http://www.w3.org/2000/svg" xmlns:xlink="http://www.w3.org/1999/xlink" x="0px" y="0px"
	 viewBox="0 0 21.9 22.9" style="enable-background:new 0 0 21.9 22.9;" xml:space="preserve">
<style type="text/css">
	.st0{clip-path:url(#SVGID_2_);}
	.st1{clip-path:url(#SVGID_4_);fill:#D7D7D7;}
	.st2{clip-path:url(#SVGID_6_);}
	.st3{clip-path:url(#SVGID_8_);fill:none;stroke:#969696;stroke-width:2;stroke-miterlimit:10;}
	.st4{fill:#113C7F;}
</style>
<g>
	<defs>
		<rect id="SVGID_1_" x="630" y="-380.1" width="11" height="18"/>
	</defs>
	<clipPath id="SVGID_2_">
		<use xlink:href="#SVGID_1_"  style="overflow:visible;"/>
	</clipPath>
	<g class="st0">
		<defs>
			<rect id="SVGID_3_" x="-462" y="-441.1" width="1124" height="1039"/>
		</defs>
		<clipPath id="SVGID_4_">
			<use xlink:href="#SVGID_3_"  style="overflow:visible;"/>
		</clipPath>
		<rect x="630" y="-380.1" class="st1" width="11" height="18"/>
	</g>
</g>
<g>
	<defs>
		<rect id="SVGID_5_" x="630" y="-380.1" width="11" height="18"/>
	</defs>
	<clipPath id="SVGID_6_">
		<use xlink:href="#SVGID_5_"  style="overflow:visible;"/>
	</clipPath>
	<g class="st2">
		<defs>
			<rect id="SVGID_7_" x="-462" y="-441.1" width="1124" height="1039"/>
		</defs>
		<clipPath id="SVGID_8_">
			<use xlink:href="#SVGID_7_"  style="overflow:visible;"/>
		</clipPath>
		<rect x="630" y="-380.1" class="st3" width="11" height="18"/>
	</g>
</g>
<path class="st4" d="M8.7,14c0-3.3,4.7-3.6,4.7-6.3c0-1.3-1-2.4-3-2.4c-2,0-3.2,0.8-4.2,2.1L4.9,6C6.1,4.3,8,3.3,10.5,3.3
	c3.2,0,5.1,1.8,5.1,4c0,3.9-5,4.3-5,6.8c0,0.4,0.2,0.9,0.7,1.2l-1.6,0.7C9,15.5,8.7,14.8,8.7,14z M8.8,19.7c0-0.8,0.7-1.4,1.4-1.4
	s1.4,0.6,1.4,1.4c0,0.8-0.7,1.4-1.4,1.4S8.8,20.5,8.8,19.7z"/>
</svg>
