<?xml version="1.0" encoding="UTF-8"?>
<svg width="20px" height="20px" viewBox="0 0 20 20" version="1.1" xmlns="http://www.w3.org/2000/svg" xmlns:xlink="http://www.w3.org/1999/xlink">
    <!-- Generator: Sketch 43.1 (39012) - http://www.bohemiancoding.com/sketch -->
    <title>Icn_Tooltip_Off Copy 2</title>
    <desc>Created with Sketch.</desc>
    <defs></defs>
    <g id="02_PORTAFOLIO" stroke="none" stroke-width="1" fill="none" fill-rule="evenodd">
        <g id="PORTAFOLIO01" transform="translate(-1027.000000, -264.000000)" fill="#3C86F6">
            <g id="tooltip" transform="translate(1021.000000, 259.000000)">
                <path d="M16.866,17.312 C16.866,17.934 16.354,18.444 15.732,18.444 C15.11,18.444 14.6,17.934 14.6,17.312 C14.6,15.378 15.532,14.378 16.222,13.644 C16.822,13 17.11,12.666 17.11,11.934 C17.11,11.178 16.488,10.556 15.732,10.556 C14.976,10.556 14.354,11.178 14.354,11.934 C14.354,12.556 13.844,13.066 13.222,13.066 C12.6,13.066 12.088,12.556 12.088,11.934 C12.088,9.934 13.71,8.312 15.71,8.312 C17.71,8.312 19.332,9.934 19.332,11.934 C19.376,13.6 18.554,14.488 17.888,15.2 C17.288,15.822 16.866,16.288 16.866,17.312 Z M14.376,20.8 C14.376,20.044 14.976,19.444 15.732,19.444 C16.488,19.444 17.088,20.066 17.088,20.8 C17.088,21.556 16.488,22.156 15.732,22.156 C14.976,22.156 14.376,21.556 14.376,20.8 Z M6,15 C6,20.512 10.466,25 16,25 C21.532,25 26,20.512 26,15 C26,9.466 21.532,5 16,5 C10.466,5 6,9.466 6,15 Z" id="Icn_Tooltip_Off-Copy-2"></path>
            </g>
        </g>
    </g>
</svg>