<?xml version="1.0" encoding="UTF-8"?>
<svg width="34px" height="32px" viewBox="0 0 34 32" version="1.1" xmlns="http://www.w3.org/2000/svg" xmlns:xlink="http://www.w3.org/1999/xlink">
    <!-- Generator: Sketch 43.1 (39012) - http://www.bohemiancoding.com/sketch -->
    <title>Shape</title>
    <desc>Created with Sketch.</desc>
    <defs></defs>
    <g id="Page-1" stroke="none" stroke-width="1" fill="none" fill-rule="evenodd">
        <g id="BITACORA00-Copy-22" transform="translate(-89.000000, -515.000000)" stroke="#00BEBE" stroke-width="0.5" fill="#00BEBE" fill-rule="nonzero">
            <g id="RESUMEN-Copy-3" transform="translate(69.000000, 483.000000)">
                <path d="M29.6219512,33.9594408 C28.862802,34.6662959 28.4224625,35.6313878 28.4146342,36.5523087 C28.4146342,37.7202559 29.3205308,38.4297557 30.0609756,38.8983083 L21,38.8983083 L21,46.0102846 L22.9512195,46.0102846 L22.9512195,63 L51.0487805,63 L51.0487805,46.0102846 L53,46.0102846 L53,38.8983083 L43.9390244,38.8983083 C45.195122,38.1153479 45.5624624,37.3983875 45.5853659,36.5523087 C45.577522,35.6313878 45.1371981,34.6662959 44.3780488,33.9594408 C43.3275551,33.1486909 42.3939278,32.9018225 41.2317073,33.0333883 C39.7317073,33.3740461 38.8358478,34.2370196 38.1341659,35.0830195 C37.6697561,35.6557431 37.2723317,36.3294009 37.0000195,37.0832691 C36.7277073,36.3294009 36.330279,35.6557431 35.8658732,35.0830195 C34.9812878,33.992125 33.8537327,33.2526646 32.7805073,33.0333883 C31.5365854,32.9789541 30.7560976,32.9789541 29.6219512,33.9594408 Z M32.6341464,33.8113355 C33.7235551,34.1988091 34.6681093,34.8662695 35.2682732,35.5893484 C35.9789932,36.4657824 36.4932449,37.602348 36.5853464,38.8983872 L32.7072976,38.8983872 C31.4037347,38.7464136 29.195122,37.7202559 29.1951025,36.5647429 C29.195122,35.7447167 29.6573386,35.0099537 30.146322,34.5399406 C31.006482,33.8669145 31.5365854,33.7691382 32.6341464,33.8113355 L32.6341464,33.8113355 Z M43.8536585,34.5397433 C44.4536546,35.0984537 44.7955512,35.8912825 44.8048781,36.5523087 C44.4511142,38.0838479 42.6844176,38.8774662 41.2926829,38.8981899 L37.4146342,38.8981899 C37.5067356,37.6021506 38.0209834,36.465585 38.7317073,35.589151 C39.512999,34.625638 40.1219512,34.1642697 41.3536586,33.8111381 C42.4634146,33.7691382 43.248921,34.0150197 43.8536585,34.5397433 L43.8536585,34.5397433 Z M21.7804878,39.6885318 L52.2195122,39.6885318 L52.2195122,45.2200611 L37.3902439,45.2200611 L37.3902439,42.4542945 L36.6097561,42.4542945 L36.6097561,45.2200611 L21.7804878,45.2200611 L21.7804878,39.6885318 Z M23.7317074,46.0102846 L50.2682927,46.0102846 L50.2682927,62.2097765 L37.3902439,62.2097765 L37.3902439,47.9858316 L36.6097561,47.9858316 L36.6097561,62.2097765 L23.7317074,62.2097765 L23.7317074,46.0102846 Z" id="Shape"></path>
            </g>
        </g>
    </g>
</svg>