<svg xmlns="http://www.w3.org/2000/svg" width="45" height="45" viewBox="0 0 45 45">
    <path fill="#29D787" fill-rule="nonzero" d="M22.5 0C10.087 0 0 10.087 0 22.5S10.087 45 22.5 45 45 34.913 45 22.5 34.913 0 22.5 0zm-.195 2C33.532 2 42.61 11.078 42.61 22.305S33.532 42.61 22.305 42.61 2 33.532 2 22.305 11.078 2 22.305 2zm12.184 10.002c-.254.021-.49.202-.621.31-5.102 5.338-10.885 11.983-15.99 17.365l-7.365-5.635c-.395-.302-1.03-.217-1.331.178-.302.394-.218 1.029.177 1.33l8.047 6.154a.98.98 0 0 0 1.257-.104c5.285-5.53 11.332-12.51 16.565-17.986a.972.972 0 0 0 .19-1.062.972.972 0 0 0-.93-.55z"/>
</svg>
