<?xml version="1.0" encoding="UTF-8"?>
<svg width="50px" height="31px" viewBox="0 0 50 31" version="1.1" xmlns="http://www.w3.org/2000/svg" xmlns:xlink="http://www.w3.org/1999/xlink">
    <!-- Generator: Sketch 43.2 (39069) - http://www.bohemiancoding.com/sketch -->
    <title>datos asesor</title>
    <desc>Created with Sketch.</desc>
    <defs>
        <path d="M0,3.37631243 C0,1.71562765 1.34297237,0.369376643 2.9936666,0.369376643 L40.712218,0.369376643 L50,9.3524587 L50,27.0206925 C50,28.6809969 48.6626208,30.0269395 47.0034676,30.0269395 L2.99653242,30.0269395 C1.34159326,30.0269395 0,28.67555 0,27.0200037 L0,3.37631243 Z" id="path-1"></path>
        <path d="M39.1958481,1.8687381 C38.3776601,1.1315378 38.6006656,0.533918873 39.7146528,0.533918873 L47.5056103,0.533918873 C48.6103262,0.533918873 49.5058755,1.42146827 49.5058755,2.53227139 L49.5058755,9.15988205 C49.5058755,10.2635417 48.838129,10.5565845 48.0244149,9.82341533 L39.1958481,1.8687381 Z" id="path-2"></path>
    </defs>
    <g id="Page-1" stroke="none" stroke-width="1" fill="none" fill-rule="evenodd">
        <g id="Administrador-Copy-52" transform="translate(-300.000000, -317.000000)">
            <g id="POPOP-Copy" transform="translate(259.000000, 80.000000)">
                <g id="DATOS-PROSPECTO" transform="translate(40.000000, 76.000000)">
                    <g id="pestaña00-copy-2" transform="translate(0.000000, 132.000000)">
                        <g id="DATOS-PROSPECTO">
                            <g id="pestaña00-copy-2">
                                <g id="datos-asesor">
                                    <g id="pestaña00-copy-2">
                                        <g id="datos-asesor">
                                            <g id="Group-10-Copy-2">
                                                <g id="datos-asesor" transform="translate(1.000000, 26.000000)">
                                                    <g transform="translate(0.000000, 3.000000)" id="adjuntar">
                                                        <g>
                                                            <g id="Rectangle-4-Copy">
                                                                <use fill="#FFFFFF" fill-rule="evenodd" xlink:href="#path-1"></use>
                                                                <path stroke="#00BEBE" stroke-width="1" d="M40.5099786,0.869376643 L49.5,9.5644666 L49.5,27.0206925 C49.5,28.406786 48.3845508,29.5269395 47.0034676,29.5269395 L2.99653242,29.5269395 C1.62002342,29.5269395 0.5,28.4017009 0.5,27.0200037 L0.5,3.37631243 C0.5,1.99226759 1.61862249,0.869376643 2.9936666,0.869376643 L40.5099786,0.869376643 Z"></path>
                                                            </g>
                                                            <g id="Rectangle-4-Copy" transform="translate(44.104996, 5.380308) rotate(-180.000000) translate(-44.104996, -5.380308) ">
                                                                <use fill="#00BEBE" fill-rule="evenodd" xlink:href="#path-2"></use>
                                                                <path stroke="#00BEBE" stroke-width="1" d="M39.5305389,1.49727869 C39.0502673,1.06454642 39.0620244,1.03391887 39.7146528,1.03391887 L47.5056103,1.03391887 C48.3370426,1.03391887 49.0058755,1.70046233 49.0058755,2.53227139 L49.0058755,9.15988205 C49.0058755,9.82845784 48.8526566,9.89665302 48.3591057,9.45195592 L39.5305389,1.49727869 L39.5305389,1.49727869 Z"></path>
                                                            </g>
                                                            <g id="noun_600412_cc" transform="translate(6.000000, 5.000000)" fill-rule="nonzero" fill="#00BEBE">
                                                                <g id="Group">
                                                                    <path d="M17.5235294,21.0244898 C17.1632353,21.0244898 16.8029412,20.9204082 16.4941176,20.6602041 C16.0823529,20.3479592 15.9279412,19.9316327 16.0308824,19.4632653 C16.2882353,17.9540816 19.325,16.0285714 22.0014706,14.727551 C22.4647059,13.894898 22.8764706,13.0102041 23.3397059,12.0214286 C23.9573529,10.6163265 24.4720588,9.26326531 24.8838235,7.9622449 C23.9058824,5.25612245 23.5970588,2.2377551 24.2661765,0.884693878 C24.6264706,0.104081633 25.1926471,0 25.5014706,0 C25.9647059,0 26.325,0.208163265 26.5823529,0.624489796 C27.3544118,1.87346939 26.8911765,4.94387755 25.9647059,7.9622449 C26.3764706,9.00306122 26.8911765,9.93979592 27.5088235,10.7204082 C28.075,11.3969388 28.7441176,12.0214286 29.4132353,12.5418367 C32.3985294,12.0734694 35.3323529,12.0734694 36.3617647,13.1142857 C36.7220588,13.4785714 36.8764706,13.9989796 36.6705882,14.5714286 C36.5161765,15.0397959 36.1558824,15.6122449 35.2294118,15.7683673 C33.6852941,16.0806122 31.2147059,15.1438776 29.1044118,13.6346939 C27.8176471,13.8428571 26.4279412,14.2071429 25.0382353,14.6234694 L25.0382353,14.6234694 C24.3176471,14.8836735 23.5455882,15.1959184 22.7220588,15.5602041 C21.4352941,17.9540816 19.6852941,20.5561224 17.9867647,20.972449 C17.8323529,20.972449 17.6779412,21.0244898 17.5235294,21.0244898 Z M21.0235294,16.3928571 C18.9132353,17.5377551 17.1632353,18.8908163 17.0088235,19.6193878 C17.0088235,19.6714286 17.0088235,19.7234694 17.1117647,19.827551 C17.3176471,19.9836735 17.4720588,19.9836735 17.7294118,19.9316327 C18.6044118,19.7234694 19.7367647,18.422449 21.0235294,16.3928571 Z M30.6485294,13.3744898 C32.2955882,14.3632653 34.0455882,14.8836735 34.9720588,14.6755102 C35.4352941,14.5714286 35.5897059,14.3112245 35.6411765,14.155102 C35.6926471,13.9469388 35.6411765,13.8428571 35.5897059,13.7908163 C35.0235294,13.2704082 33.1191176,13.1142857 30.6485294,13.3744898 Z M25.3985294,9.41938776 C25.0382353,10.5122449 24.6264706,11.5530612 24.2147059,12.4377551 C24.0088235,12.8540816 23.7514706,13.4265306 23.4426471,14.0510204 C23.9058824,13.8428571 24.3176471,13.6867347 24.6779412,13.5826531 L24.6779412,13.5826531 C25.6558824,13.2704082 26.7882353,12.9581633 27.9720588,12.75 C27.4573529,12.3336735 26.9941176,11.8653061 26.5823529,11.344898 C26.1705882,10.772449 25.7588235,10.1479592 25.3985294,9.41938776 Z M25.3985294,1.04081633 C25.3470588,1.04081633 25.2441176,1.04081633 25.0897059,1.35306122 C24.6779412,2.18571429 24.7808824,4.11122449 25.2955882,6.14081633 C25.9132353,3.69489796 26.0161765,1.82142857 25.6044118,1.19693878 C25.5529412,1.09285714 25.5014706,1.04081633 25.3985294,1.04081633 Z" id="Shape"></path>
                                                                    <path d="M1.90441176,5.73571429 L1.08088235,5.73571429 L1.08088235,8.9622449 L0,8.9622449 L0,1 L2.05882353,1 C3.70588235,1 4.73529412,1.83265306 4.73529412,3.28979592 C4.73529412,4.90306122 3.60294118,5.73571429 1.90441176,5.73571429 Z M2.00735294,1.98877551 L1.02941176,1.98877551 L1.02941176,4.79897959 L1.90441176,4.79897959 C2.98529412,4.79897959 3.60294118,4.33061224 3.60294118,3.34183673 C3.65441176,2.40510204 3.08823529,1.98877551 2.00735294,1.98877551 Z" id="Shape"></path>
                                                                    <path d="M8.28676471,8.91020408 L6.07352941,8.91020408 L6.07352941,1 L8.33823529,1 C11.0661765,1 12.4558824,2.61326531 12.4558824,4.95510204 C12.4558824,7.29693878 11.0147059,8.91020408 8.28676471,8.91020408 Z M8.38970588,1.98877551 L7.15441176,1.98877551 L7.15441176,7.97346939 L8.33823529,7.97346939 C10.2426471,7.97346939 11.375,6.98469388 11.375,5.00714286 C11.375,2.97755102 10.1911765,1.98877551 8.38970588,1.98877551 Z" id="Shape"></path>
                                                                    <polygon id="Shape" points="15.1323529 1.98877551 15.1323529 4.43469388 17.5 4.43469388 17.6544118 5.42346939 15.1323529 5.42346939 15.1323529 8.9622449 14.0514706 8.9622449 14.0514706 1 18.1176471 1 18.1176471 1.98877551 15.1323529 1.98877551"></polygon>
                                                                </g>
                                                            </g>
                                                        </g>
                                                    </g>
                                                </g>
                                            </g>
                                        </g>
                                    </g>
                                </g>
                            </g>
                        </g>
                    </g>
                </g>
            </g>
        </g>
    </g>
</svg>