<?xml version="1.0" encoding="UTF-8"?>
<svg width="39px" height="39px" viewBox="0 0 39 39" version="1.1" xmlns="http://www.w3.org/2000/svg" xmlns:xlink="http://www.w3.org/1999/xlink">
    <!-- Generator: Sketch 43.2 (39069) - http://www.bohemiancoding.com/sketch -->
    <title>Group</title>
    <desc>Created with Sketch.</desc>
    <defs></defs>
    <g id="Page-1" stroke="none" stroke-width="1" fill="none" fill-rule="evenodd" opacity="0.5">
        <g id="Administrador-Copy-95" transform="translate(-771.000000, -271.000000)" fill-rule="nonzero">
            <g id="ETAPAS" transform="translate(205.000000, 263.000000)">
                <g id="ETAPAS01-Copy-2">
                    <g>
                        <g id="etapa-1-copy-3" transform="translate(508.000000, 0.000000)">
                            <g id="Group" transform="translate(59.000000, 8.000000)">
                                <path d="M17.3208791,0.35625 C13.7021978,0.35625 10.5714286,2.21666667 8.82307692,5.02708333 L8.82307692,5.06666667 C8.82307692,5.06666667 8.82307692,5.10625 8.78241758,5.10625 C8.61978022,5.38333333 8.45714286,5.62083333 8.33516484,5.89791667 C8.33516484,5.89791667 8.33516484,5.89791667 8.33516484,5.9375 C8.21318681,6.21458333 8.09120879,6.49166667 7.96923077,6.76875 L7.96923077,6.80833333 C7.84725275,7.08541667 7.76593407,7.3625 7.68461538,7.67916667 C7.6032967,7.99583333 7.56263736,8.27291667 7.48131868,8.58958333 L7.48131868,8.66875 C7.4,9.14375 7.35934066,9.61875 7.35934066,10.09375 C7.35934066,10.4895833 7.4,10.8854167 7.44065934,11.28125 C7.52197802,11.28125 7.6032967,11.3208333 7.64395604,11.3208333 L7.84725275,11.3208333 L7.92857143,11.3208333 C7.96923077,11.3208333 7.96923077,11.3208333 8.00989011,11.28125 C8.09120879,11.2416667 8.17252747,11.2416667 8.25384615,11.2020833 C8.21318681,10.8458333 8.17252747,10.4895833 8.17252747,10.1333333 C8.17252747,9.77708333 8.21318681,9.42083333 8.25384615,9.06458333 L8.29450549,8.86666667 L8.33516484,8.62916667 C8.37582418,8.47083333 8.41648352,8.27291667 8.41648352,8.11458333 C8.41648352,8.03541667 8.45714286,7.99583333 8.45714286,7.91666667 C8.61978022,7.32291667 8.82307692,6.72916667 9.10769231,6.175 C9.10769231,6.175 9.10769231,6.13541667 9.14835165,6.13541667 C9.18901099,6.05625 9.22967033,6.01666667 9.27032967,5.9375 C9.39230769,5.7 9.55494505,5.4625 9.67692308,5.26458333 C9.75824176,5.10625 9.88021978,4.9875 9.96153846,4.86875 L10.0021978,4.78958333 L10.3274725,4.35416667 C12.0351648,2.45416667 14.556044,1.22708333 17.3208791,1.22708333 C19.1505495,1.22708333 20.8175824,1.74166667 22.2813187,2.65208333 C22.5252747,2.49375 22.8098901,2.33541667 23.0538462,2.21666667 C21.3868132,1.02916667 19.4351648,0.35625 17.3208791,0.35625 Z" id="Shape" fill="#051C48"></path>
                                <path d="M27.1197802,11.7958333 L27.1604396,11.51875 C27.2417582,11.04375 27.2824176,10.56875 27.2824176,10.0541667 C27.2824176,9.65833333 27.2417582,9.2625 27.2010989,8.90625 C27.1197802,8.90625 26.9978022,8.86666667 26.9164835,8.86666667 C26.7131868,8.86666667 26.5505495,8.94583333 26.3879121,9.025 C26.4285714,9.34166667 26.4692308,9.69791667 26.4692308,10.0541667 C26.4692308,10.45 26.4285714,10.8458333 26.3879121,11.2020833 L26.3879121,11.2020833 L26.3472527,11.3604167 C25.9,14.13125 24.1923077,16.4666667 21.7527473,17.8125 L21.7527473,17.8125 C21.4274725,17.9708333 21.1021978,18.1291667 20.7362637,18.2875 L20.6956044,18.2875 L19.5978022,18.7229167 L19.5978022,18.64375 C18.8659341,18.8416667 18.0934066,18.9208333 17.3208791,18.9208333 C15.8164835,18.9208333 14.3934066,18.5645833 13.132967,17.93125 C13.0923077,17.9708333 13.0923077,17.9708333 13.0516484,18.0104167 C12.8483516,18.16875 12.6450549,18.3270833 12.4417582,18.4458333 C13.9054945,19.2375 15.5318681,19.7125 17.3208791,19.7125 C19.3538462,19.7125 21.2648352,19.11875 22.8098901,18.0895833 L23.0538462,17.93125 C25.1681319,16.50625 26.6725275,14.25 27.1197802,11.7958333 Z" id="Shape" fill="#051C48"></path>
                                <path d="M12.5230769,17.45625 C12.6857143,17.3375 12.8483516,17.1791667 13.010989,17.0208333 C14.5153846,15.5166667 15.3285714,13.4583333 15.1659341,11.3604167 C15.0032967,9.38125 13.9868132,7.52083333 12.4010989,6.29375 C11.8725275,5.85833333 11.2626374,5.50208333 10.6120879,5.26458333 C9.83956044,6.25416667 9.31098901,7.44166667 9.06703297,8.74791667 C9.51428571,9.18333333 9.75824176,9.81666667 9.67692308,10.4895833 C9.63626374,10.8854167 9.43296703,11.28125 9.10769231,11.5583333 C8.7010989,11.9541667 8.13186813,12.1520833 7.56263736,12.1125 C7.23736264,12.0729167 6.95274725,11.99375 6.66813187,11.8354167 C6.01758242,11.4791667 5.61098901,10.80625 5.65164835,10.0541667 C5.69230769,9.38125 6.0989011,8.82708333 6.66813187,8.47083333 C6.87142857,7.125 7.35934066,5.85833333 8.09120879,4.71041667 C6.46483516,4.63125 4.87912088,5.02708333 3.4967033,5.9375 C1.87032967,7.00625 0.691208791,8.66875 0.325274725,10.5291667 C-0.0813186813,12.5083333 0.406593407,14.60625 1.62637363,16.2291667 C2.23626374,17.0604167 3.04945055,17.7333333 3.98461538,18.2479167 C4.39120879,18.4854167 5.0010989,18.5645833 5.04175824,19.0791667 C5.08241758,20.9395833 5.04175824,22.8 5.04175824,24.6604167 L5.04175824,35.03125 C5.04175824,35.15 5.04175824,35.2291667 5.08241758,35.3083333 C5.16373626,35.4666667 5.40769231,35.5854167 5.52967033,35.7041667 C5.77362637,35.9416667 6.01758242,36.1395833 6.26153846,36.3770833 C6.66813187,36.7729167 7.11538462,37.2875 7.6032967,37.6041667 C7.72527473,37.6833333 7.64395604,37.6833333 7.76593407,37.64375 C7.92857143,37.6041667 8.13186813,37.3270833 8.21318681,37.2083333 C8.74175824,36.7333333 9.22967033,36.2979167 9.75824176,35.8229167 C9.92087912,35.6645833 10.2868132,35.4666667 10.3681319,35.26875 C10.4087912,35.15 10.3681319,34.8729167 10.3681319,34.7541667 L10.3681319,19.3958333 L10.3681319,18.9604167 C10.4087912,18.6833333 10.6527473,18.5645833 10.8967033,18.4458333 C11.0186813,18.40625 11.1406593,18.3666667 11.2626374,18.2875 C11.6692308,18.05 12.1164835,17.7729167 12.5230769,17.45625 Z" id="Shape" stroke="#051C48" stroke-width="0.8"></path>
                                <path d="M27.8923077,11.9145833 C27.3637363,14.6854167 25.778022,17.0604167 23.5010989,18.6041667 L33.1373626,18.6041667 C33.3813187,18.6041667 33.543956,18.4458333 33.543956,18.2083333 L33.543956,7.28333333 L33.5846154,7.28333333 L36.5527473,7.28333333 C36.9593407,7.28333333 37.121978,6.76875 36.756044,6.57083333 C33.7879121,4.75 28.3802198,1.50416667 27.2417582,0.791666667 C27.1197802,0.7125 26.9571429,0.7125 26.8351648,0.791666667 C25.5340659,1.58333333 19.8417582,5.02708333 17.3208791,6.57083333 C16.9549451,6.76875 17.1175824,7.28333333 17.5241758,7.28333333 L20.410989,7.28333333 L20.410989,17.575 C23.0538462,16.5458333 25.0054945,14.25 25.4934066,11.4791667 C25.1274725,11.1229167 24.8835165,10.6083333 24.8835165,10.09375 C24.8835165,9.53958333 25.1274725,9.06458333 25.4934066,8.66875 C25.8593407,8.3125 26.3065934,8.075 26.8351648,8.03541667 C27.2010989,8.03541667 27.567033,8.11458333 27.8923077,8.27291667 C28.5021978,8.58958333 28.9901099,9.14375 29.0714286,9.85625 C29.1934066,10.7666667 28.6648352,11.5583333 27.8923077,11.9145833 Z" id="Shape" stroke="#051C48" stroke-width="0.8"></path>
                            </g>
                        </g>
                    </g>
                </g>
            </g>
        </g>
    </g>
</svg>