<?xml version="1.0" encoding="UTF-8"?>
<svg width="30px" height="37px" viewBox="0 0 30 37" version="1.1" xmlns="http://www.w3.org/2000/svg" xmlns:xlink="http://www.w3.org/1999/xlink">
    <!-- Generator: Sketch 43.2 (39069) - http://www.bohemiancoding.com/sketch -->
    <title>Group 2</title>
    <desc>Created with Sketch.</desc>
    <defs></defs>
    <g id="Page-1" stroke="none" stroke-width="1" fill="none" fill-rule="evenodd" opacity="0.5">
        <g id="Administrador-Copy-90" transform="translate(-444.000000, -272.000000)" fill="#051C48">
            <g id="ETAPAS" transform="translate(205.000000, 263.000000)">
                <g id="ETAPAS01-Copy-2">
                    <g>
                        <g id="etapa-1-copy" transform="translate(176.000000, 0.000000)">
                            <g id="Group-2" transform="translate(63.000000, 9.000000)">
                                <g id="Group" opacity="0.900000036" fill-rule="nonzero">
                                    <path d="M29.047619,2.69900901 C27.8571429,2.84792793 26.6190476,2.89756757 25.3809524,2.89756757 C22.1904762,2.89756757 19.1428571,1.8054955 16.4761905,0.812702703 C16.1428571,0.663783784 15.7619048,0.564504505 15.4285714,0.415585586 C15.2857143,0.365945946 15.0952381,0.365945946 14.9047619,0.415585586 C14.5714286,0.514864865 14.2380952,0.663783784 13.8571429,0.812702703 C11.1904762,1.8054955 8.14285714,2.89756757 4.95238095,2.89756757 C3.71428571,2.89756757 2.52380952,2.84792793 1.28571429,2.69900901 C1.04761905,2.69900901 0.857142857,2.74864865 0.666666667,2.89756757 C0.523809524,3.04648649 0.428571429,3.29468468 0.428571429,3.49324324 L0.428571429,21.5620721 C0.428571429,30.0008108 14.1904762,36.5532432 14.8095238,36.8014414 C14.9047619,36.8510811 15,36.8510811 15.1428571,36.8510811 C15.2857143,36.8510811 15.3809524,36.8510811 15.4761905,36.8014414 C16.047619,36.5036036 29.8571429,30.0008108 29.8571429,21.5620721 L29.8571429,3.49324324 C29.8571429,3.24504505 29.7619048,3.04648649 29.6190476,2.89756757 C29.5238095,2.74864865 29.2857143,2.64936937 29.047619,2.69900901 Z M28.3333333,21.5620721 C28.3333333,28.3130631 17.2380952,34.1209009 15.2380952,35.1633333 C14.3333333,34.7165766 11.5238095,33.2273874 8.76190476,31.1425225 C5.71428571,28.8590991 2.14285714,25.3843243 2.14285714,21.5620721 L2.14285714,4.38675676 C3.0952381,4.48603604 4.0952381,4.53567568 5.0952381,4.53567568 C8.57142857,4.53567568 11.7142857,3.39396396 14.5238095,2.35153153 C14.7619048,2.25225225 15.047619,2.15297297 15.2857143,2.05369369 C15.5238095,2.15297297 15.8095238,2.25225225 16.047619,2.35153153 C18.8571429,3.39396396 22,4.53567568 25.4761905,4.53567568 C26.4761905,4.53567568 27.4285714,4.48603604 28.4285714,4.38675676 L28.4285714,21.5620721 L28.3333333,21.5620721 Z" id="Shape" opacity="0.5"></path>
                                </g>
                                <text id="+" opacity="0.5" font-family="ProximaNova-Semibold, Proxima Nova" font-size="25" font-weight="500">
                                    <tspan x="9" y="25">+</tspan>
                                </text>
                            </g>
                        </g>
                    </g>
                </g>
            </g>
        </g>
    </g>
</svg>
