<?xml version="1.0" encoding="UTF-8"?>
<svg width="10px" height="10px" viewBox="0 0 10 10" version="1.1" xmlns="http://www.w3.org/2000/svg" xmlns:xlink="http://www.w3.org/1999/xlink">
    <!-- Generator: Sketch 43.1 (39012) - http://www.bohemiancoding.com/sketch -->
    <title>Icn_Tooltip_Off</title>
    <desc>Created with Sketch.</desc>
    <defs></defs>
    <g id="02_PORTAFOLIO" stroke="none" stroke-width="1" fill="none" fill-rule="evenodd">
        <g id="PORTAFOLIO01" transform="translate(-185.000000, -268.000000)" fill="#C4C7D1">
            <g id="PORTAFOLIO" transform="translate(71.000000, 260.000000)">
                <g id="tabs-internas">
                    <path d="M119.944,13.1 C119.644,13.411 119.433,13.644 119.433,14.156 C119.433,14.467 119.177,14.722 118.866,14.722 C118.555,14.722 118.3,14.467 118.3,14.156 C118.3,13.189 118.766,12.689 119.111,12.322 C119.411,12 119.555,11.833 119.555,11.467 C119.555,11.089 119.244,10.778 118.866,10.778 C118.488,10.778 118.177,11.089 118.177,11.467 C118.177,11.778 117.922,12.033 117.611,12.033 C117.3,12.033 117.044,11.778 117.044,11.467 C117.044,10.467 117.855,9.656 118.855,9.656 C119.855,9.656 120.666,10.467 120.666,11.467 C120.688,12.3 120.277,12.744 119.944,13.1 M118.866,16.578 C118.488,16.578 118.188,16.278 118.188,15.9 C118.188,15.522 118.488,15.222 118.866,15.222 C119.244,15.222 119.544,15.533 119.544,15.9 C119.544,16.278 119.244,16.578 118.866,16.578 M119,8 C116.233,8 114,10.233 114,13 C114,15.756 116.233,18 119,18 C121.766,18 124,15.756 124,13 C124,10.233 121.766,8 119,8" id="Icn_Tooltip_Off"></path>
                </g>
            </g>
        </g>
    </g>
</svg>