<?xml version="1.0" encoding="UTF-8"?>
<svg width="10px" height="10px" viewBox="0 0 10 10" version="1.1" xmlns="http://www.w3.org/2000/svg" xmlns:xlink="http://www.w3.org/1999/xlink">
    <!-- Generator: Sketch 43.1 (39012) - http://www.bohemiancoding.com/sketch -->
    <title>Icn_Tooltip_Off Copy</title>
    <desc>Created with Sketch.</desc>
    <defs></defs>
    <g id="02_PORTAFOLIO" stroke="none" stroke-width="1" fill="none" fill-rule="evenodd" opacity="0.5">
        <g id="PORTAFOLIO01" transform="translate(-331.000000, -270.000000)" fill="#C4C7D1">
            <g id="PORTAFOLIO" transform="translate(71.000000, 260.000000)">
                <g id="tabs-internas">
                    <path d="M265.944,15.1 C265.644,15.411 265.433,15.644 265.433,16.156 C265.433,16.467 265.177,16.722 264.866,16.722 C264.555,16.722 264.3,16.467 264.3,16.156 C264.3,15.189 264.766,14.689 265.111,14.322 C265.411,14 265.555,13.833 265.555,13.467 C265.555,13.089 265.244,12.778 264.866,12.778 C264.488,12.778 264.177,13.089 264.177,13.467 C264.177,13.778 263.922,14.033 263.611,14.033 C263.3,14.033 263.044,13.778 263.044,13.467 C263.044,12.467 263.855,11.656 264.855,11.656 C265.855,11.656 266.666,12.467 266.666,13.467 C266.688,14.3 266.277,14.744 265.944,15.1 M264.866,18.578 C264.488,18.578 264.188,18.278 264.188,17.9 C264.188,17.522 264.488,17.222 264.866,17.222 C265.244,17.222 265.544,17.533 265.544,17.9 C265.544,18.278 265.244,18.578 264.866,18.578 M265,10 C262.233,10 260,12.233 260,15 C260,17.756 262.233,20 265,20 C267.766,20 270,17.756 270,15 C270,12.233 267.766,10 265,10" id="Icn_Tooltip_Off-Copy"></path>
                </g>
            </g>
        </g>
    </g>
</svg>