<?xml version="1.0" encoding="UTF-8"?>
<svg width="11px" height="13px" viewBox="0 0 11 13" version="1.1" xmlns="http://www.w3.org/2000/svg" xmlns:xlink="http://www.w3.org/1999/xlink">
    <!-- Generator: Sketch 42 (36781) - http://www.bohemiancoding.com/sketch -->
    <title>LOG OUT</title>
    <desc>Created with Sketch.</desc>
    <defs></defs>
    <g id="KIT:-HEADER-E-ICONOS" stroke="none" stroke-width="1" fill="none" fill-rule="evenodd">
        <g id="logout_icon" transform="translate(-1.000000, -1.000000)" stroke="#FFFFFF" stroke-width="0.35" fill="#FFFFFF" fill-rule="nonzero">
            <path d="M9.11058673,3.77235053 C9.01335111,3.72053282 8.89134209,3.75934449 8.83993727,3.85781878 C8.78853246,3.95629306 8.82693124,4.07747631 8.92540552,4.12846823 C10.413255,4.90119204 11.3379223,6.42165981 11.3379223,8.09696136 C11.3379223,10.560883 9.33354738,12.5652579 6.86962575,12.5652579 C4.40611701,12.5652579 2.40174206,10.5606765 2.40174206,8.09696136 C2.40174206,6.43012405 3.31918385,4.9133723 4.79609171,4.13817115 C4.8941531,4.08676633 4.93213899,3.9651702 4.88052773,3.8671088 C4.82912291,3.76863452 4.706701,3.7318873 4.60946539,3.78287922 C3.0000198,4.62744591 2,6.28045139 2,8.09696136 C2,10.7823985 4.18460148,12.967 6.86962575,12.967 C9.55506292,12.967 11.7396644,10.7823985 11.7396644,8.09696136 C11.7396644,6.27095492 10.732419,4.61402698 9.11058673,3.77235053 Z M6.86962575,8.2515887 C6.98069319,8.2515887 7.07049678,8.1617851 7.07049678,8.05071767 L7.07049678,1.20087103 C7.07049678,1.0898036 6.98069319,1 6.86962575,1 C6.75855832,1 6.66875472,1.0898036 6.66875472,1.20087103 L6.66875472,8.05071767 C6.66875472,8.1617851 6.75855832,8.2515887 6.86962575,8.2515887 Z" id="LOG-OUT"></path>
        </g>
    </g>
</svg>