<?xml version="1.0" encoding="UTF-8"?>
<svg width="20px" height="20px" viewBox="0 0 20 20" version="1.1" xmlns="http://www.w3.org/2000/svg" xmlns:xlink="http://www.w3.org/1999/xlink">
    <!-- Generator: Sketch 42 (36781) - http://www.bohemiancoding.com/sketch -->
    <title>presentaciones_icon</title>
    <desc>Created with Sketch.</desc>
    <defs>
        <rect id="path-1" x="0" y="2.15384615" width="10.1504398" height="1.07692308"></rect>
        <mask id="mask-2" maskContentUnits="userSpaceOnUse" maskUnits="objectBoundingBox" x="0" y="0" width="10.1504398" height="1.07692308" fill="white">
            <use xlink:href="#path-1"></use>
        </mask>
    </defs>
    <g id="KIT:-HEADER-E-ICONOS" stroke="none" stroke-width="1" fill="none" fill-rule="evenodd">
        <g id="presentaciones_icon">
            <g id="Group-3" transform="translate(1.000000, 3.000000)">
                <g id="Group-2-Copy-8" stroke="#0F3F88">
                    <polyline id="Path-2-Copy-4" points="17.68027 14.4890427 17.68027 0 2.4158453e-13 0"></polyline>
                </g>
                <g id="Group-2-Copy-9" transform="translate(9.000000, 10.000000) scale(-1, -1) translate(-9.000000, -10.000000) translate(0.000000, 6.000000)" stroke="#0F3F88">
                    <polyline id="Path-2-Copy-4" points="17.68027 7.53064009 17.68027 -7.10542736e-15 2.27373675e-13 -7.10542736e-15"></polyline>
                </g>
                <use id="Rectangle-2-Copy-5" stroke="#0F3F88" mask="url(#mask-2)" stroke-width="2" fill="#D8D8D8" xlink:href="#path-1"></use>
                <ellipse id="Oval-2-Copy-7" fill="#0F3F88" cx="8.47058824" cy="10.7692308" rx="1.05882353" ry="1.07692308"></ellipse>
                <g id="Group-7" transform="translate(13.764706, 5.384615)" fill="#0F3F88">
                    <ellipse id="Oval-2-Copy-6" cx="1.05882353" cy="1.07692308" rx="1.05882353" ry="1.07692308"></ellipse>
                    <ellipse id="Oval-2-Copy-8" cx="1.05882353" cy="5.38461538" rx="1.05882353" ry="1.07692308"></ellipse>
                    <rect id="Rectangle-6" x="0" y="1.07692308" width="2.11764706" height="4.30769231"></rect>
                </g>
                <g id="Group-7-Copy" transform="translate(10.588235, 7.538462)" fill="#0F3F88">
                    <ellipse id="Oval-2-Copy-6" cx="1.05882353" cy="0.717948718" rx="1.05882353" ry="0.717948718"></ellipse>
                    <ellipse id="Oval-2-Copy-8" cx="1.05882353" cy="3.58974359" rx="1.05882353" ry="0.717948718"></ellipse>
                    <rect id="Rectangle-6" x="0" y="0.717948718" width="2.11764706" height="2.87179487"></rect>
                </g>
            </g>
        </g>
    </g>
</svg>