<?xml version="1.0" encoding="UTF-8"?>
<svg width="19px" height="20px" viewBox="0 0 19 20" version="1.1" xmlns="http://www.w3.org/2000/svg" xmlns:xlink="http://www.w3.org/1999/xlink">
    <!-- Generator: Sketch 42 (36781) - http://www.bohemiancoding.com/sketch -->
    <title>PROSPECTOS_ICON Copy 5</title>
    <desc>Created with Sketch.</desc>
    <defs></defs>
    <g id="Page-1" stroke="none" stroke-width="1" fill="none" fill-rule="evenodd">
        <g id="PROSPECTOS_ICON-Copy-5" fill-rule="nonzero" fill="#0F3F88">
            <g id="Group-Copy-8">
                <path d="M7.33333333,8.64147005 C9.73032184,8.64147005 11.6812414,6.75122505 11.6812414,4.42902904 C11.6812414,2.10560799 9.73032184,0.215362976 7.33333333,0.215362976 C4.93634483,0.215362976 2.98567816,2.10560799 2.98567816,4.42902904 C2.98567816,6.75122505 4.93634483,8.64147005 7.33333333,8.64147005 Z M7.33333333,1.16893829 C9.18816092,1.16893829 10.6968046,2.63164247 10.6968046,4.42878403 C10.6968046,6.22568058 9.18816092,7.68740472 7.33333333,7.68740472 C5.47875862,7.68740472 3.97011494,6.22568058 3.97011494,4.42878403 C3.97011494,2.63188748 5.47875862,1.16893829 7.33333333,1.16893829 Z" id="Shape"></path>
                <path d="M7.33333333,10.0583575 C4.01234483,10.0583575 1.09216092,12.1127586 0.0675172414,15.1709619 L1.00416092,15.4652178 C1.89731034,12.8017241 4.44045977,11.0124229 7.33333333,11.0124229 C8.28887884,11.0124229 9.24659173,11.2063434 10.0385989,11.5650141 C10.0385989,11.5650141 10.401426,11.2390375 10.401426,11.2390375 C10.401426,11.2390375 10.8277851,10.8727586 10.8277851,10.8727586 C9.95328828,10.401184 8.58116786,10.0583575 7.33333333,10.0583575 Z" id="Shape"></path>
            </g>
            <path d="M18.6296256,18.7092639 L16.6009771,16.7265182 C17.8446712,15.4113301 17.8140885,13.3688031 16.5092291,12.0835056 C15.836411,11.4259115 14.9597086,11.107078 14.0932005,11.107078 C13.2266923,11.107078 12.3397957,11.4358751 11.6771718,12.0835056 C10.3315355,13.3986937 10.3315355,15.5209291 11.6669775,16.8261537 C12.3397957,17.4837477 13.2164981,17.8025812 14.0830062,17.8025812 C14.9128268,17.8025812 15.7426473,17.5080249 16.3929631,16.928659 C16.3977475,16.9243966 18.4313944,18.9075142 18.4313944,18.9075142 C18.4619771,18.9374049 18.4925597,18.9473684 18.5231424,18.9473684 C18.553725,18.9473684 18.599043,18.9284619 18.6194314,18.8985713 C18.6805967,18.8487536 18.6805967,18.7590817 18.6296256,18.7092639 Z M14.0761929,17.4788407 C13.249351,17.4788407 12.4723188,17.1672714 11.8945256,16.5928156 C10.6891295,15.4146944 10.6891295,13.4965961 11.8945256,12.3282114 C12.4822807,11.7537556 13.249351,11.4421863 14.0761929,11.4421863 C14.9030349,11.4421863 15.6800671,11.7537556 16.2578603,12.3282114 C17.4632564,13.5063327 17.4632564,15.4244309 16.2578603,16.5928156 C15.6800671,17.1672714 14.9030349,17.4788407 14.0761929,17.4788407 Z" id="Shape-Copy-6" stroke="#0F3F88" stroke-width="0.5"></path>
        </g>
    </g>
</svg>