<?xml version="1.0" encoding="UTF-8"?>
<svg width="22px" height="27px" viewBox="0 0 22 27" version="1.1" xmlns="http://www.w3.org/2000/svg" xmlns:xlink="http://www.w3.org/1999/xlink">
    <!-- Generator: Sketch 42 (36781) - http://www.bohemiancoding.com/sketch -->
    <title>Shape Copy</title>
    <desc>Created with Sketch.</desc>
    <defs></defs>
    <g id="Page-1" stroke="none" stroke-width="1" fill="none" fill-rule="evenodd">
        <g id="Artboard" transform="translate(-7.000000, -2.000000)" stroke="#195DC4" stroke-width="1.04">
            <path d="M26.7326298,12.7645623 L25.2369895,12.7645623 L25.2369895,10.3243493 C25.2369895,6.28559528 21.8532359,3 17.8118248,3 C13.7706789,3 10.3866601,6.28559528 10.3866601,10.3243493 L10.3866601,12.7645623 L8.73800833,12.7645623 C8.40891443,12.7645623 8,13.3261187 8,13.6549963 L8,26.9934849 C8,27.3220974 8.40891443,27.6051282 8.73800833,27.6051282 L26.7326298,27.6051282 C27.0617237,27.6051282 27.6236496,27.3220974 27.6236496,26.9934849 L27.6236496,13.6549963 C27.6236496,13.3261187 27.0617237,12.7645623 26.7326298,12.7645623 L26.7326298,12.7645623 Z M20.9940382,12.7645623 L14.6296113,12.7645623 L14.6296113,10.3243493 C14.6296113,8.58402792 16.0706237,7.16807893 17.8118248,7.16807893 C19.5532911,7.16807893 20.9940382,8.58402792 20.9940382,10.3243493 L20.9940382,12.7645623 L20.9940382,12.7645623 Z" id="Shape-Copy"></path>
        </g>
    </g>
</svg>