<?xml version="1.0" encoding="UTF-8"?>
<svg width="42px" height="42px" viewBox="0 0 42 42" version="1.1" xmlns="http://www.w3.org/2000/svg" xmlns:xlink="http://www.w3.org/1999/xlink">
    <!-- Generator: Sketch 43.2 (39069) - http://www.bohemiancoding.com/sketch -->
    <title>avatar copy 2</title>
    <desc>Created with Sketch.</desc>
    <defs></defs>
    <g id="Page-1" stroke="none" stroke-width="1" fill="none" fill-rule="evenodd">
        <g id="EMPTY_STATES-CALENDARIO" transform="translate(-826.000000, -610.000000)">
            <g id="RED-SOCIAL" transform="translate(798.000000, 560.000000)">
                <g id="1" transform="translate(29.000000, 46.000000)">
                    <g id="avatar-copy-2" transform="translate(0.000000, 5.000000)">
                        <path d="M39.90048,19.9501535 C39.90048,30.9685383 30.9683654,39.90048 19.9501535,39.90048 C8.93194165,39.90048 0,30.9685383 0,19.9501535 C0,8.93194165 8.93194165,0 19.9501535,0 C30.9683654,0 39.90048,8.93194165 39.90048,19.9501535" id="Fill-1" stroke="#517CBD" stroke-width="1.5" fill="#E9F2FF"></path>
                        <g id="Group-Copy-3" fill-rule="nonzero" fill="#517CBD">
                            <g id="Group">
                                <g transform="translate(2.240000, 8.640000)" id="Shape">
                                    <path d="M9.184,13.696 C9.376,14.336 9.728,15.584 10.496,16.32 C11.072,18.528 12.8,21.056 15.552,22.016 C16.224,22.24 16.896,22.368 17.6,22.368 C18.304,22.368 19.008,22.24 19.68,22.016 C22.432,21.024 24.16,18.528 24.736,16.352 C25.504,15.616 25.856,14.368 26.048,13.728 C26.336,12.704 26.656,11.2 25.856,10.144 C25.824,10.112 25.792,10.048 25.76,10.016 C26.208,7.264 25.888,5.184 24.832,3.84 C24.32,3.2 23.776,2.88 23.328,2.688 C22.976,2.24 22.368,1.632 21.44,1.12 C20.352,0.48 19.136,0.16 17.792,0.16 C17.568,0.16 17.344,0.16 17.088,0.192 C16.48,0.224 15.904,0.352 15.328,0.544 L15.328,0.544 C14.688,0.768 14.048,1.088 13.472,1.504 C12.8,1.92 12.192,2.432 11.648,3.008 C10.592,4.096 9.888,5.312 9.568,6.656 C9.312,7.648 9.312,8.736 9.536,10.016 C9.504,10.048 9.472,10.08 9.44,10.144 C8.576,11.168 8.896,12.672 9.184,13.696 Z M11.168,10.816 L11.264,10.816 C11.264,10.816 12.128,2.18602536 17.28,4.39402536 C22.432,6.60202536 19.7367577,4.39402536 19.84,4.39402536 C19.9432423,4.39402536 21.0472381,4.88837144 21.44,4.8 C23.072,5.92 24.032,10.464 23.936,10.784 C23.968,10.816 24,10.816 24.032,10.816 C24.576,10.816 25.12,11.232 24.512,13.28 C24.064,14.88 23.648,15.328 23.328,15.36 C23.04,17.28 21.504,19.68 19.136,20.544 C18.624,20.736 18.112,20.8 17.6,20.8 C17.088,20.8 16.576,20.704 16.064,20.544 C13.632,19.712 12.16,17.28 11.872,15.36 C11.552,15.328 11.136,14.88 10.688,13.28 C10.08,11.232 10.624,10.816 11.168,10.816 Z"></path>
                                    <path d="M20.16,23.424 C19.328,23.712 18.464,23.872 17.568,23.872 C16.704,23.872 15.84,23.712 15.008,23.424 C13.312,22.816 12,21.792 11.008,20.576 C9.6,21.312 2.688,23.04 0.128,24.896 C3.072,28.928 12.256,31.232 17.6,31.232 C22.944,31.232 32.448,28.608 35.36,24.608 C32.832,22.72 25.568,21.344 24.16,20.576 C23.168,21.76 21.856,22.816 20.16,23.424 Z"></path>
                                </g>
                            </g>
                        </g>
                        <ellipse id="Oval-9" stroke="#E9F2FF" fill="#E9F2FF" cx="20" cy="16.67" rx="5" ry="3.83"></ellipse>
                    </g>
                </g>
            </g>
        </g>
    </g>
</svg>