<?xml version="1.0" encoding="UTF-8"?>
<svg width="23px" height="12px" viewBox="0 0 23 12" version="1.1" xmlns="http://www.w3.org/2000/svg" xmlns:xlink="http://www.w3.org/1999/xlink">
    <!-- Generator: Sketch 43.2 (39069) - http://www.bohemiancoding.com/sketch -->
    <title>Shape Copy 4</title>
    <desc>Created with Sketch.</desc>
    <defs></defs>
    <g id="Page-1" stroke="none" stroke-width="1" fill="none" fill-rule="evenodd">
        <g id="PROSPECTOS00" transform="translate(-923.000000, -791.000000)" fill-rule="nonzero" fill="#3C86F6">
            <g id="ETAPAS" transform="translate(69.000000, 448.000000)">
                <g id="tabla" transform="translate(43.000000, 263.000000)">
                    <path d="M822.524372,80.0857195 C817.935001,80.0857195 813.894936,82.1535161 811.60911,85.3060586 C811.493933,85.4586009 811.493933,85.695889 811.60911,85.8569059 C813.894936,89.0009738 817.935001,91.0857195 822.524372,91.0857195 C827.104884,91.0857195 831.153808,89.0009738 833.439634,85.8569059 C833.545951,85.7043636 833.554811,85.4670754 833.439634,85.3060586 C831.153808,82.1535161 827.104884,80.0857195 822.524372,80.0857195 Z M822.524372,81.0433466 C826.653034,81.0433466 830.258969,82.8653806 832.385319,85.5857195 C830.258969,88.3060587 826.653034,90.1280926 822.524372,90.1280926 C818.39571,90.1280926 814.780915,88.3060587 812.663425,85.5857195 C814.780915,82.8653806 818.38685,81.0433466 822.524372,81.0433466 Z M822.524372,81.7552111 C820.318284,81.7552111 818.519747,83.4755501 818.519747,85.5857195 C818.519747,87.6958892 820.318284,89.4077536 822.524372,89.4077536 C824.7216,89.4077536 826.520137,87.6958892 826.520137,85.5857195 C826.520137,83.4755501 824.7216,81.7552111 822.524372,81.7552111 Z M822.524372,82.7128383 C824.181153,82.7128383 825.518981,83.9924992 825.518981,85.5857195 C825.518981,87.1789398 824.181153,88.458601 822.524372,88.458601 C820.858731,88.458601 819.520903,87.1789398 819.520903,85.5857195 C819.520903,83.9924992 820.858731,82.7128383 822.524372,82.7128383 Z" id="Shape-Copy-4"></path>
                </g>
            </g>
        </g>
    </g>
</svg>