<?xml version="1.0" encoding="UTF-8"?>
<svg width="69px" height="52px" viewBox="0 0 69 52" version="1.1" xmlns="http://www.w3.org/2000/svg" xmlns:xlink="http://www.w3.org/1999/xlink">
    <!-- Generator: Sketch 43.2 (39069) - http://www.bohemiancoding.com/sketch -->
    <title>icono_money</title>
    <desc>Created with Sketch.</desc>
    <defs></defs>
    <g id="Page-1" stroke="none" stroke-width="1" fill="none" fill-rule="evenodd">
        <g id="SIMULADOR-Copy-27" transform="translate(-90.000000, -400.000000)" fill-rule="nonzero">
            <g id="datos-cotizacion" transform="translate(72.000000, 355.000000)">
                <g id="icono_money" transform="translate(18.000000, 46.000000)">
                    <g id="Group-Copy-2" transform="translate(18.417258, 0.000000)">
                        <path d="M49.3879602,24.7512594 L35.5128662,37.9531654 C34.9925502,38.4322668 34.2409826,38.4855003 33.6050408,38.1128659 L1.05638293,17.8841389 C0.882944253,17.7776719 0.593879795,17.8309054 0.478254012,17.9906059 C0.362628229,18.1503063 0.420441121,18.4164738 0.593879795,18.5229408 L33.1425377,38.7516678 C33.5472279,39.0178353 34.0097311,39.1243022 34.4144213,39.1243022 C35.0503631,39.1243022 35.628492,38.9113683 36.0909952,38.4855003 L49.9660891,25.2835943 C50.1395278,25.1238938 50.1395278,24.8577263 49.9660891,24.7512594 C49.8504633,24.5915589 49.5613989,24.6447924 49.3879602,24.7512594 Z" id="Shape" fill="#517CBD"></path>
                        <path d="M2.50170521,16.2339006 L32.7378474,35.0785568 C33.1425377,35.3447243 33.6050408,35.4511913 34.0097311,35.4511913 C34.6456729,35.4511913 35.2238018,35.2382573 35.6863049,34.8123894 L48.405141,22.7283867 C48.8676442,22.2492852 49.0988957,21.6637168 49.0410828,21.0249149 C48.9832699,20.386113 48.5785797,19.8537781 48.0582637,19.4811436 L17.8221215,0.583253914 C16.8971152,-0.00231449966 15.6252316,0.104152485 14.873664,0.849421375 L2.15482786,12.9334241 C1.69232473,13.4125255 1.46107317,13.9980939 1.51888606,14.6368958 C1.57669895,15.2756978 1.9235763,15.8612662 2.50170521,16.2339006 Z" id="Shape" stroke="#517CBD" fill="#E8F1FF"></path>
                        <path d="M9.49706508,14.1577944 C9.55487797,14.5304289 9.3814393,14.9030633 9.03456195,15.2224643 C8.97674906,15.2756978 8.91893617,15.3821647 8.91893617,15.4886317 C8.91893617,15.5950987 8.97674906,15.7015657 9.09237484,15.7547992 L31.3503381,29.5955071 C31.4081509,29.6487406 31.5237767,29.6487406 31.5815896,29.6487406 C31.6972154,29.6487406 31.8128412,29.5955071 31.8706541,29.5422737 C32.5644088,28.8502383 33.8362924,28.7437713 34.6456729,29.2761062 C34.8191115,29.3825732 35.0503631,29.3825732 35.1659889,29.2228727 L41.7566585,22.9413206 C41.8722843,22.8348536 41.8722843,22.7283867 41.8722843,22.6219197 C41.8722843,22.5154527 41.8144714,22.4089857 41.6988456,22.3557522 C41.3519683,22.1428182 41.1207167,21.8234173 41.0629038,21.5040163 C41.0050909,21.1846154 41.1207167,20.8119809 41.3519683,20.5458135 C41.4097812,20.49258 41.4097812,20.4393465 41.4675941,20.4393465 C41.5832198,20.3328795 41.5832198,20.2264125 41.5832198,20.1199455 C41.5832198,20.0134786 41.5254069,19.9070116 41.4097812,19.8537781 L19.151818,6.01307012 C18.9783793,5.90660313 18.7471277,5.90660313 18.6315019,6.06630361 C17.9377472,6.75833901 16.6658636,6.86480599 15.8564831,6.33247107 C15.6830445,6.22600408 15.4517929,6.22600408 15.3361671,6.38570456 L8.80331038,12.6140231 C8.6876846,12.7204901 8.6876846,12.8269571 8.6876846,12.9334241 C8.6876846,13.0398911 8.74549749,13.1463581 8.86112327,13.1995916 C9.20800062,13.465759 9.43925219,13.78516 9.49706508,14.1577944 Z" id="Shape" stroke="#517CBD" fill="#E8F1FF"></path>
                        <path d="M22.6205914,20.066712 L22.1002754,20.5458135 L22.5049657,20.8119809 L23.0252817,20.3328795 C23.5455977,20.6522805 24.1237266,20.7587474 24.7018555,20.6522805 C25.2799844,20.5458135 25.7424876,20.3328795 26.1471778,19.9602451 C26.4940552,19.5876106 26.6674938,19.2682097 26.6674938,18.8955752 C26.6674938,18.5761743 26.3784294,18.1503063 25.8581134,17.6179714 L27.5346872,16.0742001 C27.9393775,16.3936011 27.9393775,16.7662355 27.5925001,17.1921035 L28.3440677,17.6712049 C28.9800095,16.925936 28.8643837,16.2339006 28.0550032,15.5950987 L28.5753193,15.1159973 L28.170629,14.8498298 L27.650313,15.3289312 C27.129997,15.0627638 26.609681,14.9562968 26.0893649,15.0095303 C25.5690489,15.0627638 25.1065458,15.2756978 24.7596684,15.6483322 C24.0659137,16.2871341 24.1815395,17.032403 25.0487329,17.8309054 L23.1987204,19.5876106 C22.7362172,19.1617427 22.7362172,18.6826413 23.1987204,18.0970728 L22.4471528,17.6179714 C21.5799594,18.4697073 21.6955852,19.3214432 22.6205914,20.066712 Z M25.511236,16.0209666 C25.9737391,15.5950987 26.4940552,15.4886317 27.129997,15.7547992 L25.5690489,17.245337 C25.3956102,17.032403 25.2799844,16.819469 25.2221716,16.6597686 C25.1065458,16.5000681 25.2221716,16.2871341 25.511236,16.0209666 Z M25.2799844,18.1503063 C25.5690489,18.4697073 25.6846747,18.6826413 25.6846747,18.8955752 C25.6846747,19.1085092 25.5690489,19.2682097 25.3377973,19.4811436 C24.7596684,20.0134786 24.1815395,20.1199455 23.5455977,19.8005446 L25.2799844,18.1503063 Z" id="Shape" fill="#517CBD"></path>
                    </g>
                    <g id="Group" transform="translate(0.000000, 3.923077)">
                        <path d="M58.8452292,29.7015112 L42.3132023,45.5437985 C41.6932513,46.1187202 40.7977665,46.1826004 40.0400486,45.7354391 L1.25866902,21.4609666 C1.05201868,21.3332063 0.707601458,21.3970865 0.569834568,21.588727 C0.432067678,21.7803676 0.500951123,22.0997686 0.707601458,22.2275289 L39.4889811,46.5020014 C39.9711652,46.8214023 40.5222328,46.9491627 41.0044169,46.9491627 C41.7621348,46.9491627 42.4509692,46.6936419 43.0020368,46.1826004 L59.5340636,30.3403131 C59.7407139,30.1486726 59.7407139,29.8292716 59.5340636,29.7015112 C59.3962967,29.5098707 59.0518795,29.5737509 58.8452292,29.7015112 Z" id="Shape" fill="#517CBD"></path>
                        <path d="M2.98075515,19.4806807 L39.006797,42.0942682 C39.4889811,42.4136692 40.0400486,42.5414295 40.5222328,42.5414295 C41.2799506,42.5414295 41.9687851,42.2859088 42.5198527,41.7748673 L57.6742106,27.274064 C58.2252782,26.6991423 58.5008119,25.9964602 58.4319285,25.2298979 C58.363045,24.4633356 57.8808609,23.8245337 57.2609099,23.3773724 L21.2348681,0.699904697 C20.132733,-0.00277739959 18.6172972,0.124982982 17.7218124,1.01930565 L2.56745448,15.5201089 C2.01638692,16.0950306 1.74085314,16.7977127 1.80973658,17.564275 C1.87862003,18.3308373 2.2919207,19.0335194 2.98075515,19.4806807 Z" id="Shape" stroke="#517CBD" fill="#E8F1FF"></path>
                        <path d="M11.315652,16.9893533 C11.3845355,17.4365146 11.1778851,17.883676 10.7645844,18.2669571 C10.695701,18.3308373 10.6268176,18.4585977 10.6268176,18.5863581 C10.6268176,18.7141184 10.695701,18.8418788 10.8334679,18.905759 L37.3535943,35.5146086 C37.4224777,35.5784888 37.5602446,35.5784888 37.6291281,35.5784888 C37.7668949,35.5784888 37.9046618,35.5146086 37.9735453,35.4507284 C38.8001466,34.6202859 40.3155824,34.4925255 41.2799506,35.1313274 C41.486601,35.2590878 41.7621348,35.2590878 41.8999017,35.0674472 L49.7526144,27.5295848 C49.8903813,27.4018244 49.8903813,27.274064 49.8903813,27.1463036 C49.8903813,27.0185432 49.8214978,26.8907828 49.683731,26.8269027 C49.2704303,26.5713819 48.9948965,26.1881007 48.9260131,25.8048196 C48.8571296,25.4215385 48.9948965,24.9743771 49.2704303,24.6549762 C49.3393137,24.591096 49.3393137,24.5272158 49.4081972,24.5272158 C49.5459641,24.3994554 49.5459641,24.271695 49.5459641,24.1439346 C49.5459641,24.0161743 49.4770806,23.8884139 49.3393137,23.8245337 L22.8191873,7.21568414 C22.612537,7.08792376 22.3370032,7.08792376 22.1992363,7.27956433 C21.372635,8.11000681 19.8571992,8.23776719 18.892831,7.59896528 C18.6861806,7.4712049 18.4106469,7.4712049 18.27288,7.66284547 L10.4890507,15.1368278 C10.3512838,15.2645882 10.3512838,15.3923485 10.3512838,15.5201089 C10.3512838,15.6478693 10.4201672,15.7756297 10.5579341,15.8395099 C10.9712348,16.1589108 11.2467686,16.542192 11.315652,16.9893533 Z" id="Shape" stroke="#517CBD" fill="#E8F1FF"></path>
                        <path d="M26.9521941,24.0800545 L26.3322431,24.6549762 L26.8144272,24.9743771 L27.4343782,24.3994554 C28.0543292,24.7827366 28.7431636,24.9104969 29.4319981,24.7827366 C30.1208325,24.6549762 30.6719001,24.3994554 31.1540842,23.9522941 C31.5673849,23.5051327 31.7740352,23.1218516 31.7740352,22.6746903 C31.7740352,22.2914091 31.429618,21.7803676 30.809667,21.1415657 L32.8072869,19.2890402 C33.289471,19.6723213 33.289471,20.1194826 32.8761703,20.6305242 L33.7716551,21.2054459 C34.529373,20.3111232 34.3916061,19.4806807 33.4272379,18.7141184 L34.0471889,18.1391967 L33.5650048,17.8197958 L32.9450538,18.3947175 C32.3251028,18.0753165 31.7051518,17.9475562 31.0852008,18.0114364 C30.4652498,18.0753165 29.9141822,18.3308373 29.5008815,18.7779986 C28.6742802,19.5445609 28.8120471,20.4388836 29.8452988,21.3970865 L27.6410285,23.5051327 C27.0899609,22.9940912 27.0899609,22.4191695 27.6410285,21.7164874 L26.7455437,21.1415657 C25.712292,22.1636487 25.8500589,23.1857318 26.9521941,24.0800545 Z M30.3963663,19.22516 C30.9474339,18.7141184 31.5673849,18.5863581 32.3251028,18.905759 L30.4652498,20.6944044 C30.2585994,20.4388836 30.1208325,20.1833628 30.0519491,19.9917223 C29.9141822,19.8000817 30.0519491,19.5445609 30.3963663,19.22516 Z M30.1208325,21.7803676 C30.4652498,22.1636487 30.6030167,22.4191695 30.6030167,22.6746903 C30.6030167,22.930211 30.4652498,23.1218516 30.189716,23.3773724 C29.5008815,24.0161743 28.8120471,24.1439346 28.0543292,23.7606535 L30.1208325,21.7803676 Z" id="Shape" fill="#517CBD"></path>
                    </g>
                </g>
            </g>
        </g>
    </g>
</svg>