<?xml version="1.0" encoding="UTF-8"?>
<svg width="21px" height="21px" viewBox="0 0 21 21" version="1.1" xmlns="http://www.w3.org/2000/svg" xmlns:xlink="http://www.w3.org/1999/xlink">
    <!-- Generator: Sketch 43.1 (39012) - http://www.bohemiancoding.com/sketch -->
    <title>Group 6</title>
    <desc>Created with Sketch.</desc>
    <defs></defs>
    <g id="03_FONDOS-DE-INVERSION" stroke="none" stroke-width="1" fill="none" fill-rule="evenodd">
        <g id="OPERACIONES_00-Copy-62" transform="translate(-872.000000, -511.000000)">
            <g id="Group-8" transform="translate(784.000000, 512.000000)">
                <g id="Group-6" transform="translate(89.000000, 0.000000)">
                    <circle id="Oval" stroke="#F9BE00" stroke-width="0.96" fill="#FFFFFF" cx="9.5" cy="9.5" r="9.5"></circle>
                    <path d="M14.580292,5.00094015 C14.4749329,5.00954674 14.3770866,5.08411114 14.3224296,5.12929575 C12.2047824,7.33518521 9.80434341,10.8632911 7.68554088,13.0878021 L4.628029,10.7588971 C4.46407935,10.6340623 4.20083979,10.6690168 4.07546657,10.8322487 C3.95009335,10.995461 3.98519192,11.2575513 4.14914156,11.3823861 L7.48907424,13.9252432 C7.64149522,14.0398869 7.87941043,14.0203852 8.01093875,13.882445 C10.2046617,11.5973553 12.7150515,7.92993993 14.8872711,5.66720784 C14.9994145,5.5550874 15.0322557,5.37184521 14.9659896,5.22801729 C14.8997214,5.08418938 14.7388094,4.98945817 14.580292,5.00094015 Z" id="icon_completar-copy" fill="#F9BE00" fill-rule="nonzero"></path>
                </g>
            </g>
        </g>
    </g>
</svg>