<?xml version="1.0" encoding="UTF-8"?>
<svg width="188px" height="205px" viewBox="0 0 188 205" version="1.1" xmlns="http://www.w3.org/2000/svg" xmlns:xlink="http://www.w3.org/1999/xlink">
    <!-- Generator: Sketch 43.1 (39012) - http://www.bohemiancoding.com/sketch -->
    <title>MONEY ICON</title>
    <desc>Created with Sketch.</desc>
    <defs></defs>
    <g id="03_FONDOS-DE-INVERSION" stroke="none" stroke-width="1" fill="none" fill-rule="evenodd" opacity="0.440613678">
        <g id="OPERACIONES_00-Copy-56" transform="translate(-784.000000, -525.000000)">
            <g id="OPERATIVA" transform="translate(37.000000, 384.000000)">
                <g id="MONEY-ICON" transform="translate(747.000000, 141.000000)">
                    <g id="Group" fill-rule="nonzero" fill="#517CBD">
                        <path d="M27.1261682,26.5441176 L26.4953271,27.1727941 L26.9859813,27.5220588 L27.6168224,26.8933824 C28.2476636,27.3125 28.9485981,27.4522059 29.6495327,27.3125 C30.3504673,27.1727941 30.911215,26.8933824 31.4018692,26.4044118 C31.8224299,25.9154412 32.0327103,25.4963235 32.0327103,25.0073529 C32.0327103,24.5882353 31.682243,24.0294118 31.0514019,23.3308824 L33.0841121,21.3051471 C33.5747664,21.7242647 33.5747664,22.2132353 33.1542056,22.7720588 L34.0654206,23.4007353 C34.8364486,22.4227941 34.6962617,21.5147059 33.7149533,20.6764706 L34.3457944,20.0477941 L33.8551402,19.6985294 L33.2242991,20.3272059 C32.5934579,19.9779412 31.9626168,19.8382353 31.3317757,19.9080882 C30.7009346,19.9779412 30.1401869,20.2573529 29.7196262,20.7463235 C28.8785047,21.5845588 29.0186916,22.5625 30.0700935,23.6102941 L27.8271028,25.9154412 C27.2663551,25.3566176 27.2663551,24.7279412 27.8271028,23.9595588 L26.9158879,23.3308824 C25.864486,24.4485294 26.0046729,25.5661765 27.1261682,26.5441176 Z M30.6308411,21.2352941 C31.1915888,20.6764706 31.8224299,20.5367647 32.5934579,20.8860294 L30.7009346,22.8419118 C30.4906542,22.5625 30.3504673,22.2830882 30.2803738,22.0735294 C30.1401869,21.8639706 30.2803738,21.5845588 30.6308411,21.2352941 Z M30.3504673,24.0294118 C30.7009346,24.4485294 30.8411215,24.7279412 30.8411215,25.0073529 C30.8411215,25.2867647 30.7009346,25.4963235 30.4205607,25.7757353 C29.7196262,26.4742647 29.0186916,26.6139706 28.2476636,26.1948529 L30.3504673,24.0294118 Z" id="Shape"></path>
                        <path d="M11.2149533,18.7904412 C11.2850467,19.2794118 11.0747664,19.7683824 10.6542056,20.1875 C10.5841121,20.2573529 10.5140187,20.3970588 10.5140187,20.5367647 C10.5140187,20.6764706 10.5841121,20.8161765 10.7242991,20.8860294 L37.7102804,39.0477941 C37.7803738,39.1176471 37.9205607,39.1176471 37.9906542,39.1176471 C38.1308411,39.1176471 38.271028,39.0477941 38.3411215,38.9779412 C39.182243,38.0698529 40.7242991,37.9301471 41.7056075,38.6286765 C41.9158879,38.7683824 42.1962617,38.7683824 42.3364486,38.5588235 L50.3271028,30.3161765 C50.4672897,30.1764706 50.4672897,30.0367647 50.4672897,29.8970588 C50.4672897,29.7573529 50.3971963,29.6176471 50.2570093,29.5477941 C49.8364486,29.2683824 49.5560748,28.8492647 49.4859813,28.4301471 C49.4158879,28.0110294 49.5560748,27.5220588 49.8364486,27.1727941 C49.9065421,27.1029412 49.9065421,27.0330882 49.9766355,27.0330882 C50.1168224,26.8933824 50.1168224,26.7536765 50.1168224,26.6139706 C50.1168224,26.4742647 50.046729,26.3345588 49.9065421,26.2647059 L22.9205607,8.10294118 C22.7102804,7.96323529 22.4299065,7.96323529 22.2897196,8.17279412 C21.4485981,9.08088235 19.9065421,9.22058824 18.9252336,8.52205882 C18.7149533,8.38235294 18.4345794,8.38235294 18.2943925,8.59191176 L10.3738318,16.7647059 C10.2336449,16.9044118 10.2336449,17.0441176 10.2336449,17.1838235 C10.2336449,17.3235294 10.3037383,17.4632353 10.4439252,17.5330882 C10.864486,17.8823529 11.1448598,18.3014706 11.2149533,18.7904412 Z M18.7850467,9.56985294 C20.046729,10.1985294 21.6588785,9.98897059 22.7803738,9.15073529 L48.9953271,26.8235294 C48.6448598,27.3823529 48.5046729,28.0110294 48.5747664,28.7095588 C48.6448598,29.2683824 48.9252336,29.7573529 49.2757009,30.1066176 L41.9158879,37.5808824 C40.6542056,36.9522059 39.0420561,37.1617647 37.9205607,38 L11.7757009,20.3970588 C12.1261682,19.8382353 12.2663551,19.2794118 12.1962617,18.6507353 C12.1261682,18.0919118 11.8457944,17.5330882 11.4252336,17.1139706 L18.7850467,9.56985294 Z" id="Shape"></path>
                        <path d="M59.5794393,32.6911765 L42.7570093,50.0147059 C42.1261682,50.6433824 41.2149533,50.7132353 40.4439252,50.2242647 L0.981308411,23.6801471 C0.771028037,23.5404412 0.420560748,23.6102941 0.280373832,23.8198529 C0.140186916,24.0294118 0.210280374,24.3786765 0.420560748,24.5183824 L39.8831776,51.0625 C40.3738318,51.4117647 40.9345794,51.5514706 41.4252336,51.5514706 C42.1962617,51.5514706 42.8971963,51.2720588 43.4579439,50.7132353 L60.2803738,33.3897059 C60.4906542,33.1801471 60.4906542,32.8308824 60.2803738,32.6911765 C60.1401869,32.4816176 59.7897196,32.5514706 59.5794393,32.6911765 Z" id="Shape"></path>
                        <path d="M2.73364486,21.5147059 L39.3925234,46.2426471 C39.8831776,46.5919118 40.4439252,46.7316176 40.9345794,46.7316176 C41.7056075,46.7316176 42.4065421,46.4522059 42.9672897,45.8933824 L58.3878505,30.0367647 C58.9485981,29.4080882 59.228972,28.6397059 59.1588785,27.8014706 C59.088785,26.9632353 58.5981308,26.2647059 57.9672897,25.7757353 L21.3084112,0.977941176 C20.1869159,0.209558824 18.6448598,0.349264706 17.7336449,1.32720588 L2.31308411,17.1838235 C1.75233645,17.8125 1.47196262,18.5808824 1.54205607,19.4191176 C1.61214953,20.2573529 2.03271028,21.0257353 2.73364486,21.5147059 Z M3.01401869,17.9522059 L18.4345794,2.09558824 C18.7850467,1.74632353 19.2757009,1.53676471 19.6962617,1.53676471 C20.046729,1.53676471 20.3971963,1.60661765 20.6775701,1.81617647 L57.3364486,26.4742647 C57.7570093,26.7536765 58.0373832,27.2426471 58.1074766,27.7316176 C58.1775701,28.2205882 57.9672897,28.7794118 57.6168224,29.1286765 L42.1962617,44.9852941 C41.5654206,45.6139706 40.6542056,45.6838235 39.8831776,45.1948529 L3.29439252,20.6066176 C2.87383178,20.3272059 2.59345794,19.8382353 2.52336449,19.3492647 C2.52336449,18.7904412 2.6635514,18.3014706 3.01401869,17.9522059 Z" id="Shape"></path>
                        <path d="M169.962617,38.5588235 C169.471963,38.1397059 169.191589,37.5808824 169.191589,37.0220588 C169.191589,36.7426471 168.981308,36.5330882 168.700935,36.5330882 C168.420561,36.5330882 168.21028,36.7426471 168.21028,37.0220588 C168.21028,37.9301471 168.630841,38.6985294 169.331776,39.3272059 C169.892523,39.8161765 170.593458,40.0955882 171.364486,40.2352941 L171.364486,41.7022059 C171.364486,41.9816176 171.574766,42.1911765 171.85514,42.1911765 C172.135514,42.1911765 172.345794,41.9816176 172.345794,41.7022059 L172.345794,40.2352941 C173.116822,40.1654412 173.817757,39.8161765 174.378505,39.3272059 C175.079439,38.6985294 175.5,37.8602941 175.5,37.0220588 C175.5,36.1838235 175.079439,35.3455882 174.378505,34.7169118 C173.817757,34.2279412 173.116822,33.9485294 172.345794,33.8088235 L172.345794,29.4080882 C172.836449,29.4779412 173.327103,29.6875 173.747664,30.0367647 C174.238318,30.4558824 174.518692,31.0147059 174.518692,31.5735294 C174.518692,31.8529412 174.728972,32.0625 175.009346,32.0625 C175.28972,32.0625 175.5,31.8529412 175.5,31.5735294 C175.5,30.6654412 175.079439,29.8970588 174.378505,29.2683824 C173.817757,28.7794118 173.116822,28.5 172.345794,28.3602941 L172.345794,26.8933824 C172.345794,26.6139706 172.135514,26.4044118 171.85514,26.4044118 C171.574766,26.4044118 171.364486,26.6139706 171.364486,26.8933824 L171.364486,28.3602941 C170.593458,28.4301471 169.892523,28.7794118 169.331776,29.2683824 C168.630841,29.8970588 168.21028,30.7352941 168.21028,31.5735294 C168.21028,32.4117647 168.630841,33.25 169.331776,33.8786765 C169.892523,34.3676471 170.593458,34.6470588 171.364486,34.7867647 L171.364486,39.1875 C170.803738,39.1176471 170.313084,38.9080882 169.962617,38.5588235 Z M173.747664,35.4852941 C174.238318,35.9044118 174.518692,36.4632353 174.518692,37.0220588 C174.518692,37.5808824 174.238318,38.1397059 173.747664,38.5588235 C173.397196,38.9080882 172.906542,39.1176471 172.345794,39.1875 L172.345794,34.8566176 C172.906542,34.9264706 173.397196,35.2058824 173.747664,35.4852941 Z M169.962617,33.1102941 C169.471963,32.6911765 169.191589,32.1323529 169.191589,31.5735294 C169.191589,31.0147059 169.471963,30.4558824 169.962617,30.0367647 C170.313084,29.6875 170.803738,29.4779412 171.364486,29.4080882 L171.364486,33.7389706 C170.803738,33.6691176 170.313084,33.4595588 169.962617,33.1102941 Z" id="Shape"></path>
                        <path d="M171.85514,44.8455882 C177.672897,44.8455882 182.439252,40.0955882 182.439252,34.2977941 C182.439252,28.5 177.672897,23.75 171.85514,23.75 C166.037383,23.75 161.271028,28.5 161.271028,34.2977941 C161.271028,40.0955882 166.037383,44.8455882 171.85514,44.8455882 Z M171.85514,24.7977941 C177.11215,24.7977941 181.38785,29.0588235 181.38785,34.2977941 C181.38785,39.5367647 177.11215,43.7977941 171.85514,43.7977941 C166.598131,43.7977941 162.32243,39.5367647 162.32243,34.2977941 C162.32243,29.0588235 166.598131,24.7977941 171.85514,24.7977941 Z" id="Shape"></path>
                        <path d="M171.85514,52.7389706 C180.686916,52.7389706 187.836449,45.6139706 187.836449,36.8125 C187.836449,34.5772059 187.345794,32.3419118 186.434579,30.3161765 L186.224299,29.8272059 C183.420561,24.3786765 177.11215,12.2941176 176.200935,10.4779412 L178.794393,4.81985294 C178.864486,4.68014706 178.864486,4.47058824 178.724299,4.33088235 C178.654206,4.19117647 178.443925,4.12132353 178.303738,4.12132353 C177.32243,4.12132353 176.831776,4.47058824 176.411215,4.81985294 C176.060748,5.09926471 175.780374,5.30882353 175.149533,5.30882353 C174.518692,5.30882353 174.238318,5.09926471 173.88785,4.81985294 C173.46729,4.54044118 172.976636,4.12132353 171.995327,4.12132353 C171.014019,4.12132353 170.523364,4.47058824 170.102804,4.81985294 C169.752336,5.09926471 169.471963,5.30882353 168.841121,5.30882353 C168.21028,5.30882353 167.929907,5.09926471 167.579439,4.81985294 C167.158879,4.54044118 166.668224,4.12132353 165.686916,4.12132353 C165.476636,4.12132353 165.336449,4.19117647 165.266355,4.33088235 C165.196262,4.47058824 165.126168,4.68014706 165.196262,4.81985294 L167.78972,10.4779412 C166.668224,12.6433824 158.046729,29.0588235 157.485981,30.4558824 C156.574766,32.4816176 156.154206,34.5772059 156.154206,36.8125 L156.154206,36.8125 L156.154206,36.8125 C155.873832,45.6139706 163.023364,52.7389706 171.85514,52.7389706 Z M166.738318,5.65808824 C167.158879,5.9375 167.649533,6.35661765 168.630841,6.35661765 C169.61215,6.35661765 170.102804,6.00735294 170.523364,5.65808824 C170.873832,5.37867647 171.154206,5.16911765 171.785047,5.16911765 C172.415888,5.16911765 172.696262,5.37867647 173.046729,5.65808824 C173.46729,5.9375 173.957944,6.35661765 174.939252,6.35661765 C175.920561,6.35661765 176.411215,6.00735294 176.831776,5.65808824 C176.971963,5.58823529 177.11215,5.44852941 177.252336,5.37867647 L175.149533,10.0588235 L168.350467,10.0588235 L166.247664,5.37867647 C166.457944,5.44852941 166.598131,5.58823529 166.738318,5.65808824 Z M156.925234,37.8602941 L156.925234,36.8823529 C156.925234,34.7867647 157.345794,32.8308824 158.186916,30.9448529 C158.747664,29.6176471 167.228972,13.4117647 168.490654,11.1066176 L175.359813,11.1066176 C176.411215,13.0625 182.579439,24.9375 185.383178,30.3161765 L185.593458,30.8051471 C186.434579,32.6911765 186.925234,34.7867647 186.925234,36.8823529 C186.925234,45.125 180.196262,51.7610294 171.995327,51.7610294 C163.934579,51.7610294 157.485981,45.6139706 156.925234,37.8602941 L156.925234,37.8602941 Z" id="Shape"></path>
                    </g>
                    <polygon id="Icn_Ordenar-Copy-5" fill="#517CBD" transform="translate(104.025643, 48.869973) rotate(-168.000000) translate(-104.025643, -48.869973) " points="99.5258672 45.8700946 104.025643 51.8698508 108.52542 45.8700946"></polygon>
                    <path d="M133.808572,55.5804799 C109.057798,87.0569217 167.411698,120.185846 138.990775,155.330388 C121.233534,177.288511 65.8461757,108.997215 52.7706095,139.416607 C44.880498,157.7724 65.81352,196.840628 65.81352,196.840628" id="Path-1496" stroke="#517CBD" stroke-dasharray="2,2" transform="translate(98.993044, 126.210554) rotate(-22.000000) translate(-98.993044, -126.210554) "></path>
                </g>
            </g>
        </g>
    </g>
</svg>