<?xml version="1.0" encoding="UTF-8"?>
<svg width="20px" height="20px" viewBox="0 0 20 20" version="1.1" xmlns="http://www.w3.org/2000/svg" xmlns:xlink="http://www.w3.org/1999/xlink">
    <!-- Generator: Sketch 42 (36781) - http://www.bohemiancoding.com/sketch -->
    <title>administrador_icon</title>
    <desc>Created with Sketch.</desc>
    <defs></defs>
    <g id="KIT:-HEADER-E-ICONOS" stroke="none" stroke-width="1" fill="none" fill-rule="evenodd">
        <g id="administrador_icon" fill-rule="nonzero" fill="#0F3F88">
            <g id="ico_admin" transform="translate(1.000000, 0.000000)">
                <g id="Group-Copy-8">
                    <path d="M9.28888889,10.8018376 C12.3250743,10.8018376 14.7962391,8.43903131 14.7962391,5.5362863 C14.7962391,2.63200998 12.3250743,0.269203721 9.28888889,0.269203721 C6.25270345,0.269203721 3.781859,2.63200998 3.781859,5.5362863 C3.781859,8.43903131 6.25270345,10.8018376 9.28888889,10.8018376 Z M9.28888889,1.46117287 C11.6383372,1.46117287 13.5492858,3.28955309 13.5492858,5.53598004 C13.5492858,7.78210073 11.6383372,9.6092559 9.28888889,9.6092559 C6.93976092,9.6092559 5.02881226,7.78210073 5.02881226,5.53598004 C5.02881226,3.28985935 6.93976092,1.46117287 9.28888889,1.46117287 Z" id="Shape"></path>
                    <path d="M9.28888889,12.5729469 C5.08230345,12.5729469 1.38340383,15.1409483 0.0855218391,18.9637024 L1.27193716,19.3315222 C2.40325977,16.0021552 5.62458238,13.7655286 9.28888889,13.7655286 C12.9535157,13.7655286 16.1748383,16.0021552 17.3061609,19.3315222 L18.4922559,18.9637024 C17.1943739,15.1409483 13.4954743,12.5729469 9.28888889,12.5729469 Z" id="Shape"></path>
                </g>
            </g>
        </g>
    </g>
</svg>