<?xml version="1.0" encoding="UTF-8"?>
<svg width="32px" height="29px" viewBox="0 0 32 29" version="1.1" xmlns="http://www.w3.org/2000/svg" xmlns:xlink="http://www.w3.org/1999/xlink">
    <!-- Generator: Sketch 42 (36781) - http://www.bohemiancoding.com/sketch -->
    <title>AVATAR</title>
    <desc>Created with Sketch.</desc>
    <defs></defs>
    <g id="KIT:-HEADER-E-ICONOS" stroke="none" stroke-width="1" fill="none" fill-rule="evenodd">
        <g id="avatar_icon" fill-rule="nonzero" fill="#FFD13A">
            <path d="M5.20882466,27.8122017 L5.72099427,28.2799789 L5.99894402,27.6439079 C6.24774052,27.0750883 6.52635284,26.4897042 6.82649881,25.9046515 C8.0197944,23.586968 9.65105132,21.5856636 11.676871,19.9557318 C11.9710538,19.7175365 12.279482,19.5078318 12.5932107,19.332581 L13.2846065,18.9453066 L12.6352841,18.4914435 C12.0654706,18.0932366 11.5738408,17.6009442 11.1743087,17.028149 C9.31976437,14.3655959 9.97504995,10.6912923 12.6342903,8.83741058 C13.6278198,8.14601472 14.7896431,7.78060522 15.9945338,7.78060522 C17.9203048,7.78060522 19.7264812,8.72245401 20.82536,10.3000424 C22.6789105,12.9612705 22.0222998,16.635574 19.3620656,18.4911122 L18.709099,18.9463005 L19.4051329,19.3332436 C19.718199,19.5071693 20.0272898,19.7165426 20.3234603,19.9563944 C22.3479548,21.5856636 23.979543,23.586968 25.1728386,25.9039889 C25.4733159,26.4897042 25.7519282,27.0750883 26.0007247,27.6439079 L26.2786744,28.2799789 L26.7911753,27.8122017 C30.1013945,24.7895396 32,20.4844657 32,16.0001656 C32,7.17766298 24.822337,0 15.9998344,0 C7.17733169,0 0,7.17733169 0,15.9998344 C0,20.4841345 1.89860549,24.7895396 5.20882466,27.8122017 Z M16.0001656,0.993529552 C24.2747197,0.993529552 31.0064704,7.7252803 31.0064704,15.9998344 C31.0064704,19.9746151 29.4159618,23.7996542 26.6205626,26.6003541 C26.4433241,26.2197054 26.2548218,25.8344186 26.0573748,25.4494632 C24.8001408,23.0075471 23.0810928,20.8989057 20.9482675,19.1821768 C20.8051515,19.0668889 20.6593853,18.9569016 20.5116313,18.8542027 C23.1287982,16.5805804 23.6661456,12.6389283 21.6413198,9.73188533 C20.3569203,7.8876109 18.2462911,6.78641309 15.9951963,6.78641309 C14.5865642,6.78641309 13.2279565,7.21344197 12.0667957,8.02178212 C8.95766774,10.1890613 8.19173232,14.4841966 10.3593428,17.5963062 C10.6849979,18.0630895 11.0633276,18.4844865 11.4883687,18.8542027 C11.3406147,18.9575642 11.1955111,19.0672202 11.053389,19.1815142 C8.91990103,20.8989057 7.20052178,23.0075471 5.94328782,25.4501258 C5.7458408,25.8344186 5.55733852,26.2193741 5.38010001,26.6003541 C2.58470075,23.7996542 0.994192126,19.9746151 0.994192126,15.9998344 C0.993860839,7.72561159 7.72561159,0.993529552 16.0001656,0.993529552 Z" id="AVATAR"></path>
        </g>
    </g>
</svg>