<?xml version="1.0" encoding="UTF-8"?>
<svg width="17px" height="20px" viewBox="0 0 17 20" version="1.1" xmlns="http://www.w3.org/2000/svg" xmlns:xlink="http://www.w3.org/1999/xlink">
    <!-- Generator: Sketch 42 (36781) - http://www.bohemiancoding.com/sketch -->
    <title>reporte</title>
    <desc>Created with Sketch.</desc>
    <defs></defs>
    <g id="Page-1" stroke="none" stroke-width="1" fill="none" fill-rule="evenodd">
        <g id="Artboard" transform="translate(-7.000000, -6.000000)" fill-rule="nonzero" fill="#FFFFFF">
            <g id="reporte" transform="translate(3.000000, 2.000000)">
                <path d="M8.36875,10.96 L5.60625,10.96 C5.240625,10.96 4.915625,11.28 4.915625,11.64 L4.915625,13.68 C4.915625,14.04 5.240625,14.36 5.60625,14.36 L8.36875,14.36 C8.734375,14.36 9.059375,14.04 9.059375,13.68 L9.059375,11.64 C9.01875,11.28 8.734375,10.96 8.36875,10.96 Z" id="Shape"></path>
                <path d="M14.178125,7.92 L11.415625,7.92 C11.05,7.92 10.725,8.24 10.725,8.6 L10.725,13.72 C10.725,14.08 11.05,14.4 11.415625,14.4 L14.178125,14.4 C14.54375,14.4 14.86875,14.08 14.86875,13.72 L14.86875,8.6 C14.86875,8.24 14.584375,7.92 14.178125,7.92 Z" id="Shape"></path>
                <path d="M20.028125,4.84 L17.265625,4.84 C16.9,4.84 16.575,5.16 16.575,5.52 L16.575,13.72 C16.575,14.08 16.9,14.4 17.265625,14.4 L20.028125,14.4 C20.39375,14.4 20.71875,14.08 20.71875,13.72 L20.71875,5.52 C20.71875,5.12 20.39375,4.84 20.028125,4.84 Z" id="Shape"></path>
                <path d="M20.190625,18 L5.60625,18 C5.28125,18 4.996875,17.72 4.996875,17.4 C4.996875,17.08 5.28125,16.8 5.60625,16.8 L20.190625,16.8 C20.515625,16.8 20.8,17.08 20.8,17.4 C20.8,17.72 20.55625,18 20.190625,18 Z" id="Shape"></path>
                <path d="M20.190625,20.8 L5.60625,20.8 C5.28125,20.8 4.996875,20.52 4.996875,20.2 C4.996875,19.88 5.28125,19.6 5.60625,19.6 L20.190625,19.6 C20.515625,19.6 20.8,19.88 20.8,20.2 C20.8,20.52 20.55625,20.8 20.190625,20.8 Z" id="Shape"></path>
                <path d="M20.190625,23.6 L5.60625,23.6 C5.28125,23.6 4.996875,23.32 4.996875,23 C4.996875,22.68 5.28125,22.4 5.60625,22.4 L20.190625,22.4 C20.515625,22.4 20.8,22.68 20.8,23 C20.8,23.32 20.55625,23.6 20.190625,23.6 Z" id="Shape"></path>
            </g>
        </g>
    </g>
</svg>