<?xml version="1.0" encoding="UTF-8"?>
<svg width="20px" height="20px" viewBox="0 0 20 20" version="1.1" xmlns="http://www.w3.org/2000/svg" xmlns:xlink="http://www.w3.org/1999/xlink">
    <!-- Generator: Sketch 43.1 (39012) - http://www.bohemiancoding.com/sketch -->
    <title>ico_cerrar</title>
    <desc>Created with Sketch.</desc>
    <defs></defs>
    <g id="MI-CUENTA" stroke="none" stroke-width="1" fill="none" fill-rule="evenodd">
        <g id="OPERACIONES_00-Copy-83" transform="translate(-963.000000, -91.000000)" fill="#59617E">
            <g id="POPOP-Copy" transform="translate(98.000000, 80.000000)">
                <g id="ico_cerrar" transform="translate(865.000000, 11.000000)">
                    <path d="M10.1014493,0.289275362 L10.1014493,0.651884058 L10.1014493,1.01391304 C5.08289855,1.02347826 1.02318841,5.0826087 1.0142029,10.1008696 C1.02318841,15.1188406 5.08289855,19.177971 10.1014493,19.1875362 C15.1191304,19.177971 19.1782609,15.1188406 19.1878261,10.1008696 C19.1782609,5.0826087 15.1191304,1.02347826 10.1014493,1.01391304 L10.1014493,0.651884058 L10.1014493,0.289275362 C15.52,0.289855072 19.9124638,4.68231884 19.9124638,10.1008696 C19.9124638,15.5194203 15.52,19.9118841 10.1014493,19.9118841 C4.68231884,19.9118841 0.289565217,15.5194203 0.289565217,10.1008696 C0.289565217,4.68231884 4.68231884,0.289855072 10.1014493,0.289275362 Z" id="Shape"></path>
                    <path d="M6.14724638,14.0544928 C6.0057971,13.9133333 6.0057971,13.6834783 6.14724638,13.5417391 L6.14724638,13.5417391 L13.5417391,6.14724638 C13.6831884,6.0057971 13.9130435,6.0057971 14.0544928,6.14724638 L14.0544928,6.14724638 C14.195942,6.28869565 14.195942,6.51797101 14.0544928,6.65942029 L14.0544928,6.65942029 L6.66028986,14.0544928 C6.58956522,14.1252174 6.49681159,14.1605797 6.40376812,14.1605797 L6.40376812,14.1605797 C6.31072464,14.1605797 6.21797101,14.1252174 6.14724638,14.0544928 L6.14724638,14.0544928 L6.14724638,14.0544928 Z" id="Shape"></path>
                    <path d="M13.5417391,14.0544928 L6.14724638,6.66028986 C6.0057971,6.51884058 6.0057971,6.28956522 6.14724638,6.14753623 L6.14724638,6.14753623 C6.28869565,6.00666667 6.51855072,6.00666667 6.66,6.14753623 L6.66,6.14753623 L14.0542029,13.542029 C14.1956522,13.6834783 14.1956522,13.9133333 14.0542029,14.0547826 L14.0542029,14.0547826 C13.9837681,14.1255072 13.8910145,14.1608696 13.797971,14.1608696 L13.797971,14.1608696 C13.7052174,14.1605797 13.6124638,14.1252174 13.5417391,14.0544928 L13.5417391,14.0544928 L13.5417391,14.0544928 Z" id="Shape"></path>
                </g>
            </g>
        </g>
    </g>
</svg>