<?xml version="1.0" encoding="utf-8"?>
<!-- Generator: Adobe Illustrator 21.0.2, SVG Export Plug-In . SVG Version: 6.00 Build 0)  -->
<svg version="1.1" id="Layer_1" xmlns="http://www.w3.org/2000/svg" xmlns:xlink="http://www.w3.org/1999/xlink" x="0px" y="0px"
	 viewBox="0 0 215.5 188.5" style="enable-background:new 0 0 215.5 188.5;" xml:space="preserve">
<style type="text/css">
	.st0{opacity:0.5016;enable-background:new    ;}
	.st1{clip-path:url(#SVGID_2_);}
	.st2{clip-path:url(#SVGID_4_);}
	.st3{clip-path:url(#SVGID_6_);enable-background:new    ;}
	.st4{clip-path:url(#SVGID_8_);}
	.st5{clip-path:url(#SVGID_10_);fill:#E9EFF8;}
	.st6{clip-path:url(#SVGID_10_);}
	.st7{fill:#6C88B9;}
	.st8{clip-path:url(#SVGID_12_);}
	.st9{clip-path:url(#SVGID_14_);fill:#5C75AE;}
	.st10{clip-path:url(#SVGID_16_);fill:none;stroke:#5C75AE;stroke-width:3.95;stroke-miterlimit:10;}
	.st11{opacity:0.5;enable-background:new    ;}
	.st12{clip-path:url(#SVGID_18_);}
	.st13{clip-path:url(#SVGID_20_);}
	.st14{clip-path:url(#SVGID_22_);fill:#FFFFFF;}
	.st15{clip-path:url(#SVGID_24_);}
	.st16{clip-path:url(#SVGID_26_);fill:none;stroke:#5C75AE;stroke-width:4;stroke-miterlimit:10;}
	.st17{opacity:0.3618;enable-background:new    ;}
	.st18{clip-path:url(#SVGID_28_);}
	.st19{clip-path:url(#SVGID_30_);}
	.st20{clip-path:url(#SVGID_32_);fill:#5C75AE;}
	.st21{clip-path:url(#SVGID_34_);fill:none;stroke:#5C75AE;stroke-width:1;stroke-miterlimit:10;}
	.st22{opacity:0.2557;enable-background:new    ;}
	.st23{clip-path:url(#SVGID_36_);}
	.st24{clip-path:url(#SVGID_38_);}
	.st25{clip-path:url(#SVGID_40_);fill:#5C75AE;}
	.st26{clip-path:url(#SVGID_42_);fill:none;stroke:#5C75AE;stroke-width:1;stroke-miterlimit:10;}
	.st27{clip-path:url(#SVGID_44_);}
	.st28{clip-path:url(#SVGID_46_);}
	.st29{clip-path:url(#SVGID_48_);fill:#5C75AE;}
	.st30{clip-path:url(#SVGID_50_);fill:none;stroke:#5C75AE;stroke-miterlimit:10;}
</style>
<g>
	<g class="st0">
		<g>
			<defs>
				<rect id="SVGID_1_" x="15.5" y="14.5" width="177" height="157"/>
			</defs>
			<clipPath id="SVGID_2_">
				<use xlink:href="#SVGID_1_"  style="overflow:visible;"/>
			</clipPath>
			<g class="st1">
				<defs>
					<path id="SVGID_3_" d="M76.2,33.4c0-3.9,3.3-7.2,7.3-7.2H124c3.9,0,7.3,3.3,7.3,7.2v6.1H76.2V33.4z M106.8,132.4
						c0-28.4,23.1-51.5,51.7-51.5c12.9,0,24.7,4.7,33.9,12.7v-44c0-5.7-4.5-10.2-10.2-10.2h-39.6v-6.1c0-10.4-8.4-18.6-18.6-18.6
						H83.5c-10.4,0-18.6,8.4-18.6,18.6v6.1H25.6c-5.7,0-10.2,4.5-10.2,10.2v110.8c0,5.7,4.5,10.2,10.2,10.2h98
						C113.4,161.2,106.8,147.5,106.8,132.4z"/>
				</defs>
				<clipPath id="SVGID_4_">
					<use xlink:href="#SVGID_3_"  style="overflow:visible;"/>
				</clipPath>
				<g class="st2">
					<defs>
						<rect id="SVGID_5_" x="15.5" y="14.5" width="177" height="157"/>
					</defs>
					<clipPath id="SVGID_6_">
						<use xlink:href="#SVGID_5_"  style="overflow:visible;"/>
					</clipPath>
					<g class="st3">
						<g>
							<defs>
								<rect id="SVGID_7_" x="-4.5" y="-5.5" width="217" height="196"/>
							</defs>
							<clipPath id="SVGID_8_">
								<use xlink:href="#SVGID_7_"  style="overflow:visible;"/>
							</clipPath>
							<g class="st4">
								<defs>
									<rect id="SVGID_9_" x="15.5" y="14.5" width="177" height="157"/>
								</defs>
								<clipPath id="SVGID_10_">
									<use xlink:href="#SVGID_9_"  style="overflow:visible;"/>
								</clipPath>
								<rect x="10.5" y="9.8" class="st5" width="187" height="165.8"/>
								<g class="st6">
									<path class="st7" d="M153.4,86.5l-4.9-7.3l-5,7.3h-6.3l7.7-11.1l-7.3-10.5h6.4l4.5,6.6l4.4-6.6h6.4l-7.2,10.5l7.7,11.1
										H153.4z"/>
								</g>
								<g class="st6">
									<path class="st7" d="M69.2,86.5l-4.9-7.3l-5,7.3h-6.3l7.7-11.1l-7.3-10.5h6.4l4.5,6.6l4.4-6.6H75l-7.2,10.5l7.7,11.1H69.2z
										"/>
								</g>
							</g>
							<g class="st4">
								<defs>
									<path id="SVGID_11_" d="M98.6,142c25.4,0,49,28.3,49,2.9s-20.6-46-46.1-46c-25.4,0-46.1,20.6-46.1,46S73.2,142,98.6,142z"
										/>
								</defs>
								<clipPath id="SVGID_12_">
									<use xlink:href="#SVGID_11_"  style="overflow:visible;"/>
								</clipPath>
								<g class="st8">
									<defs>
										<rect id="SVGID_13_" x="15.5" y="14.5" width="177" height="157"/>
									</defs>
									<clipPath id="SVGID_14_">
										<use xlink:href="#SVGID_13_"  style="overflow:visible;"/>
									</clipPath>
									<rect x="50.5" y="93.9" class="st9" width="102.1" height="66.6"/>
								</g>
							</g>
							<g class="st4">
								<defs>
									<rect id="SVGID_15_" x="15.5" y="14.5" width="177" height="157"/>
								</defs>
								<clipPath id="SVGID_16_">
									<use xlink:href="#SVGID_15_"  style="overflow:visible;"/>
								</clipPath>
								<path class="st10" d="M76.2,33.4c0-3.9,3.3-7.2,7.3-7.2H124c3.9,0,7.3,3.3,7.3,7.2v6.1H76.2V33.4z M106.8,132.4
									c0-28.4,23.1-51.5,51.7-51.5c12.9,0,24.7,4.7,33.9,12.7v-44c0-5.7-4.5-10.2-10.2-10.2h-39.6v-6.1c0-10.4-8.4-18.6-18.6-18.6
									H83.5c-10.4,0-18.6,8.4-18.6,18.6v6.1H25.6c-5.7,0-10.2,4.5-10.2,10.2v110.8c0,5.7,4.5,10.2,10.2,10.2h98
									C113.4,161.2,106.8,147.5,106.8,132.4z"/>
							</g>
						</g>
					</g>
				</g>
			</g>
		</g>
	</g>
</g>
<g>
	<g class="st11">
		<g>
			<defs>
				<rect id="SVGID_17_" x="101.5" y="74.5" width="114" height="114"/>
			</defs>
			<clipPath id="SVGID_18_">
				<use xlink:href="#SVGID_17_"  style="overflow:visible;"/>
			</clipPath>
			<g class="st12">
				<defs>
					<circle id="SVGID_19_" cx="158" cy="131.2" r="44.5"/>
				</defs>
				<clipPath id="SVGID_20_">
					<use xlink:href="#SVGID_19_"  style="overflow:visible;"/>
				</clipPath>
				<g class="st13">
					<defs>
						<rect id="SVGID_21_" x="111.5" y="84.5" width="94" height="94"/>
					</defs>
					<clipPath id="SVGID_22_">
						<use xlink:href="#SVGID_21_"  style="overflow:visible;"/>
					</clipPath>
					<rect x="108.5" y="81.7" class="st14" width="99" height="99"/>
				</g>
			</g>
			<g class="st12">
				<defs>
					<path id="SVGID_23_" d="M158,175.7c24.6,0,44.5-19.9,44.5-44.5S182.6,86.7,158,86.7c-24.6,0-44.5,19.9-44.5,44.5
						S133.5,175.7,158,175.7z M101.5,74.7h113v113h-113V74.7z"/>
				</defs>
				<clipPath id="SVGID_24_">
					<use xlink:href="#SVGID_23_"  style="overflow:visible;"/>
				</clipPath>
				<g class="st15">
					<defs>
						<rect id="SVGID_25_" x="111.5" y="84.5" width="94" height="94"/>
					</defs>
					<clipPath id="SVGID_26_">
						<use xlink:href="#SVGID_25_"  style="overflow:visible;"/>
					</clipPath>
					<circle class="st16" cx="158" cy="131.2" r="44.5"/>
				</g>
			</g>
		</g>
	</g>
</g>
<g>
	<g class="st17">
		<g>
			<defs>
				<rect id="SVGID_27_" x="118.5" y="107.5" width="31" height="35"/>
			</defs>
			<clipPath id="SVGID_28_">
				<use xlink:href="#SVGID_27_"  style="overflow:visible;"/>
			</clipPath>
			<g class="st18">
				<defs>
					<path id="SVGID_29_" d="M129.7,123.8c-1.1-0.4-2-1.2-2.3-2.2c-0.4-1-0.2-2.2,0.4-3.2c0.4-0.8,1.1-1.5,2.1-2l2.8,7.6
						C131.5,124.2,130.5,124.1,129.7,123.8z M137.9,125.5c1.1,0.4,2,1.2,2.3,2.2c0.4,1,0.2,2.2-0.4,3.2c-0.4,0.8-1.1,1.5-2.1,2
						l-2.8-7.6C136,125.1,137.1,125.3,137.9,125.5z M133.2,133.4c-1.1-0.4-2-1.2-2.3-2.2c-0.2-0.5-0.7-0.7-1.2-0.5
						c-0.5,0.2-0.7,0.7-0.5,1.2c0.6,1.6,1.8,2.7,3.5,3.3c1.3,0.5,2.7,0.5,4.2,0.3l0.9,2.6c0.2,0.5,0.7,0.7,1.2,0.5
						c0.5-0.2,0.7-0.7,0.5-1.2l-0.9-2.6c1.3-0.6,2.3-1.7,3-2.9c0.8-1.6,1-3.3,0.5-4.8c-0.5-1.5-1.8-2.7-3.5-3.3
						c-1.3-0.5-2.7-0.5-4.2-0.3l-2.8-7.8c0.9-0.2,1.9-0.1,2.9,0.2c1.1,0.4,2,1.2,2.3,2.2c0.2,0.5,0.7,0.7,1.2,0.5
						c0.5-0.2,0.7-0.7,0.5-1.2c-0.6-1.6-1.8-2.7-3.5-3.3c-1.3-0.5-2.7-0.5-4.2-0.3l-0.9-2.6c-0.2-0.5-0.7-0.7-1.2-0.5
						c-0.5,0.2-0.7,0.7-0.5,1.2l0.9,2.6c-1.3,0.6-2.3,1.7-3,2.9c-0.8,1.6-1,3.3-0.5,4.8c0.5,1.5,1.8,2.7,3.5,3.3
						c1.3,0.5,2.7,0.5,4.2,0.3l2.8,7.8C135,133.8,134,133.8,133.2,133.4z"/>
				</defs>
				<clipPath id="SVGID_30_">
					<use xlink:href="#SVGID_29_"  style="overflow:visible;"/>
				</clipPath>
				<g class="st19">
					<defs>
						<rect id="SVGID_31_" x="121.5" y="107.5" width="25" height="35"/>
					</defs>
					<clipPath id="SVGID_32_">
						<use xlink:href="#SVGID_31_"  style="overflow:visible;"/>
					</clipPath>
					
						<rect x="122" y="104.8" transform="matrix(0.9397 -0.342 0.342 0.9397 -34.5603 53.2743)" class="st20" width="23.7" height="39.6"/>
				</g>
			</g>
			<g class="st18">
				<defs>
					<rect id="SVGID_33_" x="121.5" y="107.5" width="25" height="35"/>
				</defs>
				<clipPath id="SVGID_34_">
					<use xlink:href="#SVGID_33_"  style="overflow:visible;"/>
				</clipPath>
				<path class="st21" d="M129.7,123.8c-1.1-0.4-2-1.2-2.3-2.2c-0.4-1-0.2-2.2,0.4-3.2c0.4-0.8,1.1-1.5,2.1-2l2.8,7.6
					C131.5,124.2,130.5,124.1,129.7,123.8z M137.9,125.5c1.1,0.4,2,1.2,2.3,2.2c0.4,1,0.2,2.2-0.4,3.2c-0.4,0.8-1.1,1.5-2.1,2
					l-2.8-7.6C136,125.1,137.1,125.3,137.9,125.5z M133.2,133.4c-1.1-0.4-2-1.2-2.3-2.2c-0.2-0.5-0.7-0.7-1.2-0.5
					c-0.5,0.2-0.7,0.7-0.5,1.2c0.6,1.6,1.8,2.7,3.5,3.3c1.3,0.5,2.7,0.5,4.2,0.3l0.9,2.6c0.2,0.5,0.7,0.7,1.2,0.5
					c0.5-0.2,0.7-0.7,0.5-1.2l-0.9-2.6c1.3-0.6,2.3-1.7,3-2.9c0.8-1.6,1-3.3,0.5-4.8c-0.5-1.5-1.8-2.7-3.5-3.3
					c-1.3-0.5-2.7-0.5-4.2-0.3l-2.8-7.8c0.9-0.2,1.9-0.1,2.9,0.2c1.1,0.4,2,1.2,2.3,2.2c0.2,0.5,0.7,0.7,1.2,0.5
					c0.5-0.2,0.7-0.7,0.5-1.2c-0.6-1.6-1.8-2.7-3.5-3.3c-1.3-0.5-2.7-0.5-4.2-0.3l-0.9-2.6c-0.2-0.5-0.7-0.7-1.2-0.5
					s-0.7,0.7-0.5,1.2l0.9,2.6c-1.3,0.6-2.3,1.7-3,2.9c-0.8,1.6-1,3.3-0.5,4.8c0.5,1.5,1.8,2.7,3.5,3.3c1.3,0.5,2.7,0.5,4.2,0.3
					l2.8,7.8C135,133.8,134,133.8,133.2,133.4z"/>
			</g>
		</g>
	</g>
</g>
<g>
	<g class="st22">
		<g>
			<defs>
				<rect id="SVGID_35_" x="170.5" y="102.5" width="21" height="37"/>
			</defs>
			<clipPath id="SVGID_36_">
				<use xlink:href="#SVGID_35_"  style="overflow:visible;"/>
			</clipPath>
			<g class="st23">
				<defs>
					<path id="SVGID_37_" d="M179,118.5c-0.5-0.9-0.6-1.8-0.3-2.7c0.3-0.8,1-1.5,1.9-1.8c0.7-0.3,1.5-0.4,2.4-0.2l-2.3,6.4
						C179.9,119.7,179.3,119.2,179,118.5z M183.3,124c0.5,0.9,0.6,1.8,0.3,2.7c-0.3,0.8-1,1.5-1.9,1.8c-0.7,0.3-1.5,0.4-2.4,0.2
						l2.3-6.4C182.3,122.7,182.9,123.4,183.3,124z M176.1,126.5c-0.5-0.9-0.6-1.8-0.3-2.7c0.1-0.4,0-0.8-0.5-1s-0.8,0-1,0.5
						c-0.5,1.3-0.3,2.7,0.4,4c0.6,1,1.4,1.8,2.5,2.4l-0.8,2.2c-0.1,0.4,0,0.8,0.5,1c0.4,0.1,0.8,0,1-0.5l0.8-2.2
						c1.2,0.3,2.4,0.2,3.5-0.2c1.4-0.5,2.4-1.6,2.9-2.8c0.4-1.2,0.3-2.7-0.4-4c-0.6-1-1.4-1.8-2.5-2.4l2.4-6.5
						c0.7,0.4,1.3,0.9,1.7,1.7c0.5,0.9,0.6,1.8,0.3,2.7c-0.1,0.4,0,0.8,0.5,1c0.4,0.1,0.8,0,1-0.5c0.5-1.3,0.3-2.7-0.4-4
						c-0.6-1-1.4-1.8-2.5-2.4l0.8-2.2c0.1-0.4,0-0.8-0.5-1c-0.4-0.1-0.8,0-1,0.5l-0.8,2.2c-1.2-0.3-2.4-0.2-3.5,0.2
						c-1.4,0.5-2.4,1.6-2.9,2.8c-0.4,1.2-0.3,2.7,0.4,4c0.6,1,1.4,1.8,2.5,2.4l-2.4,6.5C177,127.7,176.4,127.2,176.1,126.5z"/>
				</defs>
				<clipPath id="SVGID_38_">
					<use xlink:href="#SVGID_37_"  style="overflow:visible;"/>
				</clipPath>
				<g class="st24">
					<defs>
						<rect id="SVGID_39_" x="170.5" y="106.5" width="21" height="29"/>
					</defs>
					<clipPath id="SVGID_40_">
						<use xlink:href="#SVGID_39_"  style="overflow:visible;"/>
					</clipPath>
					
						<rect x="163.8" y="110.5" transform="matrix(0.342 -0.9397 0.9397 0.342 5.2615 249.9641)" class="st25" width="34.7" height="21.4"/>
				</g>
			</g>
			<g class="st23">
				<defs>
					<rect id="SVGID_41_" x="170.5" y="106.5" width="21" height="29"/>
				</defs>
				<clipPath id="SVGID_42_">
					<use xlink:href="#SVGID_41_"  style="overflow:visible;"/>
				</clipPath>
				<path class="st26" d="M179,118.5c-0.5-0.9-0.6-1.8-0.3-2.7c0.3-0.8,1-1.5,1.9-1.8c0.7-0.3,1.5-0.4,2.4-0.2l-2.3,6.4
					C179.9,119.7,179.3,119.2,179,118.5z M183.3,124c0.5,0.9,0.6,1.8,0.3,2.7c-0.3,0.8-1,1.5-1.9,1.8c-0.7,0.3-1.5,0.4-2.4,0.2
					l2.3-6.4C182.3,122.7,182.9,123.4,183.3,124z M176.1,126.5c-0.5-0.9-0.6-1.8-0.3-2.7c0.1-0.4,0-0.8-0.5-1s-0.8,0-1,0.5
					c-0.5,1.3-0.3,2.7,0.4,4c0.6,1,1.4,1.8,2.5,2.4l-0.8,2.2c-0.1,0.4,0,0.8,0.5,1c0.4,0.1,0.8,0,1-0.5l0.8-2.2
					c1.2,0.3,2.4,0.2,3.5-0.2c1.4-0.5,2.4-1.6,2.9-2.8c0.4-1.2,0.3-2.7-0.4-4c-0.6-1-1.4-1.8-2.5-2.4l2.4-6.5
					c0.7,0.4,1.3,0.9,1.7,1.7c0.5,0.9,0.6,1.8,0.3,2.7c-0.1,0.4,0,0.8,0.5,1s0.8,0,1-0.5c0.5-1.3,0.3-2.7-0.4-4
					c-0.6-1-1.4-1.8-2.5-2.4l0.8-2.2c0.1-0.4,0-0.8-0.5-1c-0.4-0.1-0.8,0-1,0.5l-0.8,2.2c-1.2-0.3-2.4-0.2-3.5,0.2
					c-1.4,0.5-2.4,1.6-2.9,2.8c-0.4,1.2-0.3,2.7,0.4,4c0.6,1,1.4,1.8,2.5,2.4l-2.4,6.5C177,127.7,176.4,127.2,176.1,126.5z"/>
			</g>
		</g>
	</g>
</g>
<g>
	<g class="st17">
		<g>
			<defs>
				<rect id="SVGID_43_" x="140.5" y="98.5" width="34" height="62"/>
			</defs>
			<clipPath id="SVGID_44_">
				<use xlink:href="#SVGID_43_"  style="overflow:visible;"/>
			</clipPath>
			<g class="st27">
				<defs>
					<path id="SVGID_45_" d="M151.7,125.9c-1.6-1.3-2.5-3.1-2.5-4.9c0-1.8,0.9-3.6,2.5-4.9c1.1-1.1,2.7-1.8,4.5-2v13.9
						C154.4,127.7,152.8,127,151.7,125.9z M163.8,133.5c1.6,1.3,2.5,3.1,2.5,4.9c0,1.8-0.9,3.6-2.5,4.9c-1.1,1.1-2.7,1.8-4.5,2
						v-13.9C161.1,131.7,162.7,132.6,163.8,133.5z M151.7,143.4c-1.6-1.3-2.5-3.1-2.5-4.9c0-0.9-0.7-1.6-1.6-1.6
						c-0.9,0-1.6,0.7-1.6,1.6c0,2.9,1.4,5.4,3.6,7.4c1.8,1.6,4.1,2.5,6.5,2.9v4.7c0,0.9,0.7,1.6,1.6,1.6c0.9,0,1.6-0.7,1.6-1.6v-4.7
						c2.5-0.2,4.7-1.3,6.5-2.9c2.3-2,3.6-4.7,3.6-7.4c0-2.7-1.4-5.4-3.6-7.4c-1.8-1.6-4.1-2.5-6.5-2.9v-14.2c1.6,0.2,3.2,0.9,4.5,2
						c1.6,1.3,2.5,3.1,2.5,4.9c0,0.9,0.7,1.6,1.6,1.6c0.9,0,1.6-0.7,1.6-1.6c0-2.9-1.4-5.4-3.6-7.4c-1.8-1.6-4.1-2.5-6.5-2.9v-4.7
						c0-0.9-0.7-1.6-1.6-1.6c-0.9,0-1.6,0.7-1.6,1.6v4.7c-2.5,0.2-4.7,1.3-6.5,2.9c-2.3,2-3.6,4.7-3.6,7.4s1.4,5.4,3.6,7.4
						c1.8,1.6,4.1,2.5,6.5,2.9v14.2C154.4,145.2,152.8,144.5,151.7,143.4z"/>
				</defs>
				<clipPath id="SVGID_46_">
					<use xlink:href="#SVGID_45_"  style="overflow:visible;"/>
				</clipPath>
				<g class="st28">
					<defs>
						<rect id="SVGID_47_" x="145.5" y="103.5" width="25" height="53"/>
					</defs>
					<clipPath id="SVGID_48_">
						<use xlink:href="#SVGID_47_"  style="overflow:visible;"/>
					</clipPath>
					<rect x="141" y="99.3" class="st29" width="33.4" height="60.8"/>
				</g>
			</g>
			<g class="st27">
				<defs>
					<rect id="SVGID_49_" x="145.5" y="103.5" width="25" height="53"/>
				</defs>
				<clipPath id="SVGID_50_">
					<use xlink:href="#SVGID_49_"  style="overflow:visible;"/>
				</clipPath>
				<path class="st30" d="M151.7,125.9c-1.6-1.3-2.5-3.1-2.5-4.9c0-1.8,0.9-3.6,2.5-4.9c1.1-1.1,2.7-1.8,4.5-2v13.9
					C154.4,127.7,152.8,127,151.7,125.9z M163.8,133.5c1.6,1.3,2.5,3.1,2.5,4.9c0,1.8-0.9,3.6-2.5,4.9c-1.1,1.1-2.7,1.8-4.5,2v-13.9
					C161.1,131.7,162.7,132.6,163.8,133.5z M151.7,143.4c-1.6-1.3-2.5-3.1-2.5-4.9c0-0.9-0.7-1.6-1.6-1.6c-0.9,0-1.6,0.7-1.6,1.6
					c0,2.9,1.4,5.4,3.6,7.4c1.8,1.6,4.1,2.5,6.5,2.9v4.7c0,0.9,0.7,1.6,1.6,1.6s1.6-0.7,1.6-1.6v-4.7c2.5-0.2,4.7-1.3,6.5-2.9
					c2.3-2,3.6-4.7,3.6-7.4c0-2.7-1.4-5.4-3.6-7.4c-1.8-1.6-4.1-2.5-6.5-2.9v-14.2c1.6,0.2,3.2,0.9,4.5,2c1.6,1.3,2.5,3.1,2.5,4.9
					c0,0.9,0.7,1.6,1.6,1.6s1.6-0.7,1.6-1.6c0-2.9-1.4-5.4-3.6-7.4c-1.8-1.6-4.1-2.5-6.5-2.9v-4.7c0-0.9-0.7-1.6-1.6-1.6
					s-1.6,0.7-1.6,1.6v4.7c-2.5,0.2-4.7,1.3-6.5,2.9c-2.3,2-3.6,4.7-3.6,7.4c0,2.7,1.4,5.4,3.6,7.4c1.8,1.6,4.1,2.5,6.5,2.9v14.2
					C154.4,145.2,152.8,144.5,151.7,143.4z"/>
			</g>
		</g>
	</g>
</g>
</svg>
