<?xml version="1.0" encoding="UTF-8"?>
<svg width="23px" height="21px" viewBox="0 0 23 21" version="1.1" xmlns="http://www.w3.org/2000/svg" xmlns:xlink="http://www.w3.org/1999/xlink">
    <!-- Generator: Sketch 42 (36781) - http://www.bohemiancoding.com/sketch -->
    <title>HOME_ICON</title>
    <desc>Created with Sketch.</desc>
    <defs>
        <polygon id="path-1" points="0 5.82380515 0 0 22.55491 0 22.55491 11.6476103 0 11.6476103 0 5.82380515"></polygon>
    </defs>
    <g id="Page-1" stroke="none" stroke-width="1" fill="none" fill-rule="evenodd">
        <g id="HOME_ICON">
            <path d="M18.5149632,20.220435 L13.6891577,20.220435 L13.6891577,16.2375919 C13.6891577,12.9992341 8.86335223,12.9924939 8.86335223,16.2375919 L8.86335223,20.220435 L4.03754675,20.220435 L4.03754675,11.6420037 L3.43432106,11.6420037 L3.43432106,11.9483762 L3.43432106,13.6818321 L3.43432106,20.5268076 C3.43432106,20.7109375 3.5549662,20.8331801 3.73593391,20.8331801 L9.16496508,20.8331801 C9.34593278,20.8331801 9.46657792,20.7109375 9.46657792,20.5268076 L9.46657792,16.2375919 C9.46657792,13.808364 13.085932,13.8043811 13.085932,16.2375919 L13.085932,20.5268076 C13.085932,20.7109375 13.2062756,20.8331801 13.3875449,20.8331801 L18.816576,20.8331801 C18.9975438,20.8331801 19.1181889,20.7109375 19.1181889,20.5268076 L19.1181889,13.1248468 L19.1181889,11.9483762 L19.1181889,11.6420037 L18.5149632,11.6420037 L18.5149632,20.220435 Z" id="Fill-7" stroke="#0F3F88" stroke-width="0.25" fill="#0F3F88"></path>
            <g id="Group-3">
                <mask id="mask-2" fill="white">
                    <use xlink:href="#path-1"></use>
                </mask>
                <g id="Clip-2"></g>
                <path d="M11.0706994,0.0918504902 L0,11.6430147 L0.849341765,11.6476103 L11.2818284,0.735232843 L19.7761509,9.62064951 L19.7725315,9.61636029 L19.7761509,9.62064951 L21.7037586,11.6420956 L22.55491,11.6420956 L11.4929574,0.0918504902 C11.3723122,-0.0306985294 11.1611832,-0.0306985294 11.0706994,0.0918504902" id="Fill-1" stroke="#0F3F88" stroke-width="0.25" fill="#0F3F88" mask="url(#mask-2)"></path>
            </g>
        </g>
    </g>
</svg>