<?xml version="1.0" encoding="UTF-8"?>
<svg width="12px" height="10px" viewBox="0 0 12 10" version="1.1" xmlns="http://www.w3.org/2000/svg" xmlns:xlink="http://www.w3.org/1999/xlink">
    <!-- Generator: Sketch 44 (41411) - http://www.bohemiancoding.com/sketch -->
    <title>Icn_IPC</title>
    <desc>Created with Sketch.</desc>
    <defs>
        <polygon id="path-1" points="11.2276364 0.11912 11.2276364 7.2 0 7.2 0 0.11912 11.2276364 0.11912"></polygon>
    </defs>
    <g id="Page-1" stroke="none" stroke-width="1" fill="none" fill-rule="evenodd">
        <g id="Icn_IPC">
            <g id="Group-3" transform="translate(0.000000, 2.400000)">
                <mask id="mask-2" fill="white">
                    <use xlink:href="#path-1"></use>
                </mask>
                <g id="Clip-2"></g>
                <path d="M6.00250909,5.24232 L6.00250909,5.71432 L5.38396364,5.71432 L5.38396364,5.27432 C4.96069091,5.26072 4.55050909,5.17752 4.31050909,5.07592 L4.50032727,4.53432 C4.76541818,4.64072 5.13741818,4.73752 5.5476,4.73752 C5.9076,4.73752 6.15414545,4.63592 6.15414545,4.45032 C6.15414545,4.27512 5.95232727,4.16392 5.48541818,4.04792 C4.80905455,3.88152 4.34869091,3.64952 4.34869091,3.20072 C4.34869091,2.79352 4.74032727,2.47432 5.4156,2.37672 L5.4156,1.93752 L6.03414545,1.93752 L6.03414545,2.34472 C6.45741818,2.35832 6.74105455,2.42312 6.94941818,2.49752 L6.76614545,3.02072 C6.60250909,2.96952 6.31123636,2.86312 5.85741818,2.86312 C5.44723636,2.86312 5.31414545,2.99272 5.31414545,3.12232 C5.31414545,3.27512 5.5356,3.37272 6.07232727,3.52072 C6.82287273,3.71512 7.12614545,3.96952 7.12614545,4.38632 C7.12614545,4.79832 6.72796364,5.14952 6.00250909,5.24232 M7.67814545,0.11912 L3.57741818,0.11912 C1.56687273,1.58072 -0.933490909,3.87832 0.3516,5.55432 C1.36723636,6.87912 3.66250909,7.22152 5.88905455,7.19912 C8.1156,7.17592 10.2745091,6.78792 11.0152364,5.55432 C11.9632364,3.97752 9.54578182,1.61672 7.67814545,0.11912" id="Fill-1" fill="#767676" mask="url(#mask-2)"></path>
            </g>
            <path d="M8.89036364,0.25168 C8.32745455,0.00128 7.63472727,0.90368 7.14054545,0.88928 C6.64636364,0.87568 6.25690909,-0.01472 5.69181818,0.00048 C5.12781818,0.01488 4.90418182,0.82448 4.45145455,0.90048 C3.99763636,0.97648 2.86854545,-0.05552 2.41581818,0.30688 C2.04927273,0.60048 3.17181818,1.77408 3.61145455,2.20928 L4.01290909,2.20928 L7.28454545,2.20928 L7.65981818,2.20928 C8.12127273,1.74848 9.35181818,0.45648 8.89036364,0.25168" id="Fill-4" fill="#767676"></path>
        </g>
    </g>
</svg>