<?xml version="1.0" encoding="UTF-8"?>
<svg width="18px" height="9px" viewBox="0 0 18 9" version="1.1" xmlns="http://www.w3.org/2000/svg" xmlns:xlink="http://www.w3.org/1999/xlink">
    <!-- Generator: Sketch 44 (41411) - http://www.bohemiancoding.com/sketch -->
    <title>Icn_Comision</title>
    <desc>Created with Sketch.</desc>
    <defs></defs>
    <g id="Page-1" stroke="none" stroke-width="1" fill="none" fill-rule="evenodd">
        <path d="M8.368875,7.47675 C8.717625,7.128 9.282375,7.128 9.63,7.47675 C9.97875,7.8255 9.97875,8.39025 9.63,8.737875 C9.282375,9.086625 8.717625,9.086625 8.368875,8.737875 C8.020125,8.39025 8.020125,7.8255 8.368875,7.47675 L8.368875,7.47675 Z M9,4.83975 L9,1.227375 C5.124375,1.227375 1.911375,4.0635 1.323,7.772625 L5.749875,7.772625 C5.9175,6.125625 7.308,4.83975 9,4.83975 L9,4.83975 Z M0,9 C0,4.02975 4.028625,0 9,0 C13.97025,0 18,4.02975 18,9 L10.834875,9 C11.06325,8.530875 11.100375,7.993125 10.9485,7.5015 L14.351625,3.3345 L13.773375,2.75625 L9.606375,6.159375 C8.906625,5.94225 8.11125,6.109875 7.55775,6.6645 C6.9255,7.29675 6.795,8.2395 7.164,9 L0,9 Z" id="Icn_Comision" fill="#767676"></path>
    </g>
</svg>