<?xml version="1.0" encoding="UTF-8"?>
<svg width="50px" height="50px" viewBox="0 0 50 50" version="1.1" xmlns="http://www.w3.org/2000/svg" xmlns:xlink="http://www.w3.org/1999/xlink">
    <!-- Generator: Sketch 43.1 (39012) - http://www.bohemiancoding.com/sketch -->
    <title>Group 8</title>
    <desc>Created with Sketch.</desc>
    <defs></defs>
    <g id="Page-1" stroke="none" stroke-width="1" fill="none" fill-rule="evenodd">
        <g id="BITACORA03-Copy-7" transform="translate(-539.000000, -766.000000)">
            <g id="seguimiento" transform="translate(69.000000, 710.000000)">
                <g id="resumen" transform="translate(0.000000, 25.000000)">
                    <g id="Group-8-Copy-2" transform="translate(467.000000, 31.000000)">
                        <g id="Group-8" transform="translate(3.000000, 0.000000)">
                            <rect id="Rectangle-14-Copy" stroke-opacity="0.5" stroke="#D2CFCD" x="0.5" y="0.5" width="49" height="49" rx="24.5"></rect>
                            <path d="M17.4268378,18.6188431 C18.2445945,18.9032802 19.1334606,18.8677256 19.9156627,18.4766245 L20.3423184,18.2632967 C20.9111927,17.9788595 21.5511763,17.9433049 22.1556052,18.1566327 L30.1909543,20.9298948 C30.119845,21.2854413 29.9776264,21.8543155 29.5154161,22.1387527 C29.124315,22.3876352 28.5554408,22.4231898 27.8443479,22.1743073 L24.3244383,20.9654495 C24.2177744,20.9298948 24.0755558,20.9298948 23.9688919,21.0010041 C23.862228,21.0721134 23.7911187,21.1432227 23.7555641,21.2854413 C23.7555641,21.3209959 23.2577991,23.2053919 21.6222855,24.0587033 C20.5912009,24.6275776 19.3467884,24.6275776 17.8534935,24.1298126 C17.6401656,24.0587033 17.3912831,24.1653673 17.3201738,24.3786951 C17.2490646,24.592023 17.3557285,24.8409055 17.5690563,24.9120147 C18.3512585,25.1964519 19.0979059,25.3031158 19.8089988,25.3031158 C20.6267556,25.3031158 21.3378484,25.1253426 22.0133866,24.7697962 C23.4711269,23.9875941 24.1466651,22.600963 24.4311023,21.8898702 L27.5243561,22.9565094 C28.5198861,23.3120559 29.3376429,23.2409466 29.9420718,22.8142909 C30.9376018,22.103198 31.0087111,20.6810123 31.0087111,20.6454577 C31.0087111,20.4676845 30.9020471,20.2899113 30.7242739,20.218802 L22.368933,17.338876 C21.5511763,17.0544388 20.6978648,17.1255481 19.9156627,17.4810945 L19.489007,17.6944224 C18.9201327,17.9788595 18.2801492,18.0144142 17.6757203,17.8010863 L16.8579635,17.4810945 L16.8579635,17.4810945 L16.8579635,17.4810945 L12.5914064,16.0233542 C12.4847425,15.9877996 12.3780786,15.9877996 12.2714147,16.0589089 C12.1647507,16.0944635 12.0936414,16.2011274 12.0580868,16.3077914 L8.46706795,26.7964108 C8.39595867,27.0097386 8.50262259,27.2586211 8.71595045,27.3297304 L12.9825075,28.7874707 C13.0180621,28.7874707 13.0891714,28.8230254 13.1247261,28.8230254 C13.1958354,28.8230254 13.2669446,28.8230254 13.3024993,28.7874707 C13.4091632,28.7519161 13.4802725,28.6452522 13.5158271,28.5385882 L16.9646274,18.4766245 L17.4268378,18.6188431 Z M12.8758436,27.86305 L9.39148865,26.6897469 L12.6980704,17.0188842 L16.1824253,18.1921874 L12.8758436,27.86305 Z M41.4262212,26.2630911 L36.5552352,16.3077914 C36.5196806,16.2011274 36.4130167,16.1300181 36.3063527,16.0944635 C36.1996888,16.0589089 36.0930249,16.0589089 35.986361,16.1300181 L31.9331318,18.1210781 C31.7198039,18.227742 31.6486946,18.4766245 31.7553585,18.6899524 L36.4485713,28.360815 L34.8841671,29.7830007 C33.5330907,31.0274132 32.0397957,32.0584978 30.3687275,32.8406999 L22.6178155,36.6806013 C22.1911598,36.8939291 21.6578402,36.7161559 21.4445123,36.2895002 C21.2311845,35.8628445 21.4089577,35.3295249 21.8356134,35.116197 L21.9422773,35.0806424 L21.9422773,35.0806424 L26.2088344,32.9829185 C26.4221622,32.8762546 26.4932715,32.6273721 26.3866076,32.4140442 C26.2799437,32.2007164 26.0310612,32.1296071 25.8177333,32.236271 L21.480067,34.3695496 L21.480067,34.3695496 L19.4178977,35.3650795 C18.991242,35.5784074 18.4579224,35.4006342 18.2445945,34.9739785 C18.1379306,34.7606506 18.1379306,34.5117681 18.2090399,34.2984403 C18.2801492,34.0851124 18.4579224,33.9073392 18.6712502,33.8006753 L20.3067638,33.0184732 L20.3067638,33.0184732 L24.9288673,30.7429761 C25.1421951,30.6363121 25.2133044,30.3874296 25.1066405,30.1741018 C24.9999765,29.9607739 24.751094,29.8896646 24.5377662,29.9963286 L17.4979471,33.3384649 C17.0712913,33.5517928 16.5379717,33.3740196 16.3246439,32.9473639 C16.111316,32.5207082 16.2890892,31.9873885 16.7157449,31.7740607 L19.489007,30.4229843 L19.489007,30.4229843 L23.0800259,28.6808068 C23.2933537,28.5741429 23.364463,28.3252604 23.2577991,28.1119325 C23.1511351,27.8986047 22.9022527,27.8274954 22.6889248,27.9341593 L17.2490646,30.6007575 L17.106846,30.6718668 C16.6801903,30.8851946 16.1468707,30.7074214 15.9335428,30.2807657 C15.7202149,29.85411 15.8979882,29.3207904 16.3246439,29.1074625 L19.2756792,27.6497222 C19.489007,27.5430583 19.5601163,27.2941758 19.4534524,27.0808479 C19.3467884,26.8675201 19.0979059,26.7964108 18.8845781,26.9030747 L15.9335428,28.360815 C15.0802314,28.7874707 14.724685,29.8185554 15.1513407,30.6718668 C15.3291139,30.9918586 15.5779964,31.240741 15.8624335,31.4185143 C15.3646685,31.84517 15.22245,32.6273721 15.5424417,33.3384649 C15.8268789,33.9428938 16.4668624,34.2984403 17.106846,34.2984403 C17.1779553,34.2984403 17.2490646,34.2984403 17.3201738,34.2628856 C17.2490646,34.618432 17.3201738,34.9739785 17.4623924,35.2939702 C17.7468295,35.8983992 18.3868131,36.2539456 19.0267967,36.2539456 C19.2756792,36.2539456 19.5245617,36.1828363 19.7734441,36.0761724 L20.484537,35.720626 C20.4489823,36.0050631 20.5200916,36.3250549 20.6623102,36.609492 C20.9467473,37.2139209 21.5867309,37.5694673 22.2267145,37.5694673 C22.4755969,37.5694673 22.7244794,37.4983581 22.9733619,37.3916941 L30.7598286,33.5873474 C32.4664514,32.734036 34.0664103,31.6673968 35.4530413,30.3874296 L37.2307734,28.7519161 L41.248448,26.7964108 C41.3551119,26.7608561 41.4262212,26.6541922 41.4617758,26.5475283 C41.4973305,26.5119736 41.4973305,26.3697551 41.4262212,26.2630911 Z M37.1952188,27.8986047 L32.6797792,18.725507 L35.986361,17.1255481 L40.4662459,26.2986458 L37.1952188,27.8986047 Z" id="Shape" fill="#D2CFCD" fill-rule="nonzero"></path>
                        </g>
                    </g>
                </g>
            </g>
        </g>
    </g>
</svg>