<?xml version="1.0" encoding="UTF-8"?>
<svg width="50px" height="50px" viewBox="0 0 50 50" version="1.1" xmlns="http://www.w3.org/2000/svg" xmlns:xlink="http://www.w3.org/1999/xlink">
    <!-- Generator: Sketch 43.1 (39012) - http://www.bohemiancoding.com/sketch -->
    <title>Group 5 Copy 2</title>
    <desc>Created with Sketch.</desc>
    <defs></defs>
    <g id="Page-1" stroke="none" stroke-width="1" fill="none" fill-rule="evenodd">
        <g id="BITACORA03-Copy-7" transform="translate(-316.000000, -766.000000)" stroke="#D2CFCD">
            <g id="seguimiento" transform="translate(69.000000, 710.000000)">
                <g id="resumen" transform="translate(0.000000, 25.000000)">
                    <g id="Group-5-Copy" transform="translate(238.000000, 31.000000)">
                        <g id="Group-5-Copy-2" transform="translate(9.000000, 0.000000)">
                            <rect id="Rectangle-14" stroke-opacity="0.518455616" x="0.5" y="0.5" width="49" height="49" rx="24.5"></rect>
                            <path d="M32.7648614,28.0966455 C32.3942654,27.7355372 31.895167,27.5368053 31.3777854,27.544337 C30.8242852,27.5428908 30.2924696,27.7594222 29.897397,28.1470846 L28.1143738,29.9301077 L27.8268708,29.7712245 C26.2038589,28.9344395 24.7160501,27.8581161 23.4134472,26.5784277 C22.1286426,25.2706493 21.0480624,23.7768812 20.2080406,22.1473504 L20.0617672,21.8775011 L21.8473123,20.0944779 C22.6506309,19.3121339 22.672031,18.028127 21.8952295,17.2194477 L18.220739,13.5550451 C17.8510208,13.1922973 17.3515609,12.9925134 16.833663,13.0002147 C16.2780063,12.9978366 15.7439848,13.2154345 15.3482307,13.6054842 L14.4478923,14.5133885 C14.4266776,14.5346561 14.4080538,14.5583591 14.3924093,14.5840033 L14.3192725,14.7050572 C13.9635079,15.1664784 13.6748246,15.6759195 13.4618074,16.218231 C13.2685343,16.7169671 13.1388928,17.2380749 13.0759481,17.7692342 C12.5866885,21.8270619 14.4327606,25.5292939 19.4438879,30.5404212 C25.3755292,36.4720625 30.3740467,36.9310586 31.7636447,36.9310586 C31.9160026,36.9328385 32.0683535,36.9269465 32.2201188,36.9134049 C32.7533182,36.8484155 33.2761524,36.716224 33.7761659,36.5199797 C34.3244132,36.3068902 34.8384703,36.0145998 35.3019495,35.6524267 L35.5087499,35.4910215 L36.3838687,34.6335563 C37.1863019,33.8538217 37.2077186,32.5722021 36.4317859,31.766092 L32.7648614,28.0966455 Z M35.0270562,34.9109715 L34.8379095,35.059767 C34.4324711,35.3756596 33.9830091,35.630553 33.5037946,35.8163539 C33.0645075,35.988559 32.6052466,36.1046452 32.1368942,36.1618619 C32.1242845,36.1618619 31.9956647,36.1769936 31.7636447,36.1769936 C30.4471835,36.1769936 25.7109494,35.7331293 19.9785426,30.0082884 C15.1515181,25.1787419 13.368495,21.6606128 13.8274911,17.8575026 C13.8828188,17.391218 13.9963504,16.9337027 14.1654332,16.4956462 C14.3521563,16.0137535 14.606939,15.5610896 14.9220201,15.1514435 L15.0178545,15.0177798 L15.8879294,14.1426609 C16.13997,13.8943807 16.4798745,13.7556996 16.833663,13.7568016 C17.1508601,13.7494701 17.457807,13.8693429 17.6860843,14.0896998 L21.3530088,17.7541024 C21.8332048,18.2669956 21.8118494,19.0706347 21.3050917,19.5573012 L19.3051803,21.5471248 C19.1844623,21.667042 19.1586625,21.8528004 19.2421314,22.0010769 L19.5346783,22.5054682 C20.4081202,24.2044937 21.5339169,25.7613923 22.8737485,27.1231703 C24.2263268,28.450035 25.7711368,29.565495 27.4561432,30.431977 L27.9933199,30.7295679 C28.1430843,30.8072818 28.3262092,30.776418 28.4422282,30.6539092 L30.4270078,28.6691295 C30.6806379,28.4223117 31.0213719,28.2854744 31.3752634,28.2883141 C31.6953471,28.2851793 32.0033163,28.4105474 32.2302066,28.6363441 L35.8946092,32.3032687 C36.1252636,32.5343589 36.2518387,32.849431 36.2451611,33.1758656 C36.239659,33.5231302 36.0984427,33.8544454 35.851736,34.0989016 L35.0270562,34.9109715 Z" id="Shape" stroke-width="0.3" fill-rule="nonzero"></path>
                        </g>
                    </g>
                </g>
            </g>
        </g>
    </g>
</svg>