<?xml version="1.0" encoding="UTF-8"?>
<svg width="22px" height="22px" viewBox="0 0 22 22" version="1.1" xmlns="http://www.w3.org/2000/svg" xmlns:xlink="http://www.w3.org/1999/xlink">
    <!-- Generator: Sketch 43.2 (39069) - http://www.bohemiancoding.com/sketch -->
    <title>Shape Copy 3</title>
    <desc>Created with Sketch.</desc>
    <defs></defs>
    <g id="Page-1" stroke="none" stroke-width="1" fill="none" fill-rule="evenodd">
        <g id="PROSPECTOS01" transform="translate(-303.000000, -553.000000)" stroke="#0F3F88" stroke-width="0.3" fill="#0F3F88" fill-rule="nonzero">
            <g id="ETAPAS" transform="translate(69.000000, 498.000000)">
                <g id="input_buscador" transform="translate(19.000000, 38.000000)">
                    <path d="M235.907397,37.445463 L230.835776,32.3738416 C233.945011,29.009751 233.868555,23.7852164 230.606406,20.4975824 C228.924361,18.8155371 226.732605,18 224.566334,18 C222.400064,18 220.182822,18.8410226 218.526263,20.4975824 C215.162172,23.861673 215.162172,29.2900919 218.500777,32.628697 C220.182822,34.3107423 222.374578,35.1262794 224.540849,35.1262794 C226.6154,35.1262794 228.689952,34.3728402 230.315741,32.8908932 C230.327702,32.8799905 235.411819,37.9525631 235.411819,37.9525631 C235.488276,38.0290197 235.564733,38.0545053 235.641189,38.0545053 C235.717646,38.0545053 235.830941,38.0061448 235.881912,37.9296882 C236.034825,37.8022605 236.034825,37.5728907 235.907397,37.445463 Z M224.523816,34.2981907 C222.456711,34.2981907 220.51413,33.5012346 219.069647,32.0318468 C216.056157,29.0183565 216.056157,24.1120954 219.069647,21.12351 C220.539035,19.6541222 222.456711,18.8571661 224.523816,18.8571661 C226.590921,18.8571661 228.533501,19.6541222 229.977984,21.12351 C232.991474,24.1370003 232.991474,29.0432614 229.977984,32.0318468 C228.533501,33.5012346 226.590921,34.2981907 224.523816,34.2981907 Z" id="Shape-Copy-3"></path>
                </g>
            </g>
        </g>
    </g>
</svg>