<?xml version="1.0" encoding="UTF-8"?>
<svg width="40px" height="26px" viewBox="0 0 40 26" version="1.1" xmlns="http://www.w3.org/2000/svg" xmlns:xlink="http://www.w3.org/1999/xlink">
    <!-- Generator: Sketch 43.2 (39069) - http://www.bohemiancoding.com/sketch -->
    <title>Group 8</title>
    <desc>Created with Sketch.</desc>
    <defs></defs>
    <g id="Page-1" stroke="none" stroke-width="1" fill="none" fill-rule="evenodd" opacity="0.5">
        <g id="Administrador-Copy-95" transform="translate(-936.000000, -277.000000)">
            <g id="ETAPAS" transform="translate(205.000000, 263.000000)">
                <g id="ETAPAS01-Copy-2">
                    <g>
                        <g id="etapa-1-copy-4" transform="translate(674.000000, 0.000000)">
                            <g id="Group-8" transform="translate(58.000000, 15.000000)">
                                <g id="noun_6358_cc">
                                    <g id="Group" transform="translate(4.204545, 6.157895)" fill-rule="nonzero">
                                        <polygon id="Shape" stroke="#051C48" stroke-width="0.8" points="13.2327045 14.0728421 31.9929659 6.28968421 30.1534773 1.84210526 33.5187955 1.84210526 33.5187955 14.4151579 12.4094545 14.4151579 13.0561136 14.1482105"></polygon>
                                        <polygon id="Shape" fill="#051C48" points="6.15377273 0.119157895 0.360329545 2.52294737 0.360329545 0.119157895"></polygon>
                                    </g>
                                    <path d="M32.2867045,7.27705263 L34.1249318,11.7271579 L15.3646705,19.5107368 L15.1893409,19.5827368 L14.5414205,19.8505263 L4.85036364,23.8724211 L3.279125,20.072 C3.29552273,20.064 3.31444318,20.0593684 3.33420455,20.0530526 C4.44294318,19.5928421 4.96935227,18.3208421 4.51105682,17.2088421 C4.05276136,16.0985263 2.78214773,15.5713684 1.67214773,16.0311579 C1.65532955,16.0366316 1.63682955,16.048 1.61917045,16.0576842 L0.0479318182,12.2572632 L6.25257955,9.68084211 L12.0468636,7.27705263 L29.3212386,0.111157895 L32.2867045,7.27705263 Z M11.9732841,18.3355789 L12.2436364,18.9903158 L12.778875,18.7612632 L12.5076818,18.1094737 L11.9732841,18.3355789 Z M12.2381705,17.4568421 L11.9678182,16.8004211 L11.4325795,17.0273684 L11.7029318,17.6808421 L12.2381705,17.4568421 Z M11.6962045,16.1477895 L11.4258523,15.4955789 L10.8906136,15.7195789 L11.1618068,16.3751579 L11.6962045,16.1477895 Z M11.1559205,14.8416842 L10.8847273,14.1869474 L10.3494886,14.4143158 L10.6206818,15.0682105 L11.1559205,14.8416842 Z M10.6147955,13.5351579 L10.3444432,12.8821053 L9.80920455,13.1065263 L10.0803977,13.76 L10.6147955,13.5351579 Z M10.0745114,12.2269474 L9.80373864,11.5751579 L9.26934091,11.8016842 L9.53927273,12.4551579 L10.0745114,12.2269474 Z M9.53422727,10.9208421 L9.26219318,10.2661053 L8.72779545,10.4926316 L9.00109091,11.1461053 L9.53422727,10.9208421 Z M8.72232955,8.96126316 L8.19003409,9.18652632 L8.45828409,9.84210526 L8.99352273,9.61389474 L8.72232955,8.96126316 Z M13.3195795,20.0711579 L13.2031136,19.7886316 L13.0483864,19.4168421 L12.5139886,19.6408421 L12.5921932,19.8303158 L12.7843409,20.2968421 L13.3195795,20.0711579 Z" id="Shape" stroke="#051C48" stroke-width="0.8" fill-rule="nonzero"></path>
                                    <polygon id="Path" fill="#FFFFFF" points="11.9732841 18.3355789 12.5076818 18.1094737 12.778875 18.7612632 12.2436364 18.9903158"></polygon>
                                    <polygon id="Path" fill="#FFFFFF" points="12.2381705 17.4568421 11.7029318 17.6808421 11.4325795 17.0273684 11.9678182 16.8004211"></polygon>
                                    <polygon id="Path" fill="#FFFFFF" points="11.6962045 16.1477895 11.1618068 16.3751579 10.8906136 15.7195789 11.4258523 15.4955789"></polygon>
                                    <polygon id="Path" fill="#FFFFFF" points="11.1559205 14.8416842 10.6206818 15.0682105 10.3494886 14.4143158 10.8847273 14.1869474"></polygon>
                                    <polygon id="Path" fill="#FFFFFF" points="10.6147955 13.5351579 10.0803977 13.76 9.80920455 13.1065263 10.3444432 12.8821053"></polygon>
                                    <polygon id="Path" fill="#FFFFFF" points="10.0745114 12.2269474 9.53927273 12.4551579 9.26934091 11.8016842 9.80373864 11.5751579"></polygon>
                                    <polygon id="Path" fill="#FFFFFF" points="9.53422727 10.9208421 9.00109091 11.1461053 8.72779545 10.4926316 9.26219318 10.2661053"></polygon>
                                    <polygon id="Path" fill="#FFFFFF" points="8.72232955 8.96126316 8.99352273 9.61389474 8.45828409 9.84210526 8.19003409 9.18652632"></polygon>
                                    <polygon id="Path" fill="#FFFFFF" points="13.3195795 20.0711579 12.7843409 20.2968421 12.5921932 19.8303158 12.5139886 19.6408421 13.0483864 19.4168421 13.2031136 19.7886316"></polygon>
                                </g>
                                <text id="$" font-family="ProximaNova-Light, Proxima Nova" font-size="10" font-weight="300" fill="#051C48">
                                    <tspan x="15.9423077" y="14.9411765">$</tspan>
                                </text>
                            </g>
                        </g>
                    </g>
                </g>
            </g>
        </g>
    </g>
</svg>