<?xml version="1.0" encoding="UTF-8"?>
<svg width="38px" height="23px" viewBox="0 0 38 23" version="1.1" xmlns="http://www.w3.org/2000/svg" xmlns:xlink="http://www.w3.org/1999/xlink">
    <!-- Generator: Sketch 43.2 (39069) - http://www.bohemiancoding.com/sketch -->
    <title>Group 6</title>
    <desc>Created with Sketch.</desc>
    <defs></defs>
    <g id="Page-1" stroke="none" stroke-width="1" fill="none" fill-rule="evenodd" opacity="0.5">
        <g id="Administrador-Copy-90" transform="translate(-606.000000, -279.000000)" fill-rule="nonzero" fill="#051C48">
            <g id="ETAPAS" transform="translate(205.000000, 263.000000)">
                <g id="ETAPAS01-Copy-2">
                    <g>
                        <g id="etapa-1-copy-2" transform="translate(342.000000, 0.000000)">
                            <g id="Group-6" transform="translate(59.000000, 16.000000)">
                                <g id="Group-Copy-8" transform="translate(0.000000, 3.450000)">
                                    <path d="M6.90988462,8.69547924 C9.16846381,8.69547924 11.0067314,6.7934202 11.0067314,4.45671047 C11.0067314,2.11876804 9.16846381,0.216708995 6.90988462,0.216708995 C4.65130544,0.216708995 2.81327613,2.11876804 2.81327613,4.45671047 C2.81327613,6.7934202 4.65130544,8.69547924 6.90988462,8.69547924 Z M6.90988462,1.17624416 C8.65760889,1.17624416 10.0791389,2.64809023 10.0791389,4.45646393 C10.0791389,6.26459108 8.65760889,7.735451 6.90988462,7.735451 C5.16239863,7.735451 3.74086857,6.26459108 3.74086857,4.45646393 C3.74086857,2.64833677 5.16239863,1.17624416 6.90988462,1.17624416 Z" id="Shape"></path>
                                    <path d="M6.90988462,10.1212223 C3.78065998,10.1212223 1.02909627,12.1884634 0.0636185929,15.2657804 L0.94617765,15.5618754 C1.78775394,12.8817349 4.18405428,11.0812505 6.90988462,11.0812505 C9.63595324,11.0812505 12.0322536,12.8817349 12.8738299,15.5618754 L13.7561507,15.2657804 C12.790673,12.1884634 10.0391093,10.1212223 6.90988462,10.1212223 Z" id="Shape"></path>
                                </g>
                                <g id="Group-Copy-11" transform="translate(17.395514, 0.000000)">
                                    <path d="M10.0990621,12.4221132 C13.4000625,12.4221132 16.0867613,9.704886 16.0867613,6.36672924 C16.0867613,3.02681148 13.4000625,0.309584279 10.0990621,0.309584279 C6.7980618,0.309584279 4.11171127,3.02681148 4.11171127,6.36672924 C4.11171127,9.704886 6.7980618,12.4221132 10.0990621,12.4221132 Z M10.0990621,1.6803488 C12.6534284,1.6803488 14.7310492,3.78298605 14.7310492,6.36637704 C14.7310492,8.94941583 12.6534284,11.0506443 10.0990621,11.0506443 C7.54504415,11.0506443 5.4674233,8.94941583 5.4674233,6.36637704 C5.4674233,3.78333825 7.54504415,1.6803488 10.0990621,1.6803488 Z" id="Shape"></path>
                                    <path d="M10.0990621,14.458889 C5.52557997,14.458889 1.50406377,17.4120905 0.0929810204,21.8082577 L1.38287503,22.2312506 C2.61287115,18.4024784 6.11515625,15.8303579 10.0990621,15.8303579 C14.0833163,15.8303579 17.5856014,18.4024784 18.8155975,22.2312506 L20.1051433,21.8082577 C18.6940605,17.4120905 14.6725443,14.458889 10.0990621,14.458889 Z" id="Shape"></path>
                                </g>
                            </g>
                        </g>
                    </g>
                </g>
            </g>
        </g>
    </g>
</svg>