<?xml version="1.0" encoding="UTF-8"?>
<svg width="38px" height="25px" viewBox="0 0 38 25" version="1.1" xmlns="http://www.w3.org/2000/svg" xmlns:xlink="http://www.w3.org/1999/xlink">
    <!-- Generator: Sketch 43.2 (39069) - http://www.bohemiancoding.com/sketch -->
    <title>Group 9</title>
    <desc>Created with Sketch.</desc>
    <defs></defs>
    <g id="Page-1" stroke="none" stroke-width="1" fill="none" fill-rule="evenodd" opacity="0.5">
        <g id="Administrador-Copy-90" transform="translate(-274.000000, -278.000000)" fill="#051C48">
            <g id="ETAPAS" transform="translate(205.000000, 263.000000)">
                <g id="ETAPAS01-Copy-2">
                    <g>
                        <g id="etapa-1">
                            <g id="ETAPAS01-Copy-2" transform="translate(10.000000, 0.000000)">
                                <g id="etapa-1">
                                    <g id="Group-9" transform="translate(59.000000, 15.000000)">
                                        <g id="Group" fill-rule="nonzero">
                                            <path d="M35.7217936,0.329960563 L2.2782064,0.329960563 C1.0907064,0.329960563 0.124934943,1.28332969 0.124934943,2.45520469 L0.124934943,22.5449264 C0.124934943,23.7168014 1.0907064,24.6701705 2.2782064,24.6701705 L35.7217936,24.6701705 C36.9092936,24.6701705 37.8750651,23.7168014 37.8750651,22.5449264 L37.8750651,2.45520475 C37.8750651,1.28332975 36.9092936,0.329960563 35.7217936,0.329960563 Z M0.631477857,5.36352994 L37.3685221,5.36352994 L37.3685221,8.24622037 L0.631477857,8.24622037 L0.631477857,5.36352994 Z M2.2782064,0.830448875 L35.7217936,0.830448875 C36.6297363,0.830448875 37.3685221,1.55920863 37.3685221,2.45520475 L37.3685221,4.86304169 L0.631477857,4.86304169 L0.631477857,2.45520475 C0.631477857,1.55920863 1.37026366,0.830448875 2.2782064,0.830448875 Z M35.7217936,24.1696811 L2.2782064,24.1696811 C1.37026366,24.1696811 0.631477857,23.4409213 0.631477857,22.5449252 L0.631477857,8.74670863 L37.3685221,8.74670863 L37.3685221,22.5449252 C37.3685221,23.4409213 36.6297363,24.1696811 35.7217936,24.1696811 Z" id="Shape"></path>
                                        </g>
                                        <polygon id="Path" points="0.633333333 5 37.3703776 5 37.3703776 7.88269044 0.633333333 7.88269044"></polygon>
                                    </g>
                                </g>
                            </g>
                        </g>
                    </g>
                </g>
            </g>
        </g>
    </g>
</svg>
