<?xml version="1.0" encoding="UTF-8"?>
<svg width="13px" height="11px" viewBox="0 0 13 11" version="1.1" xmlns="http://www.w3.org/2000/svg" xmlns:xlink="http://www.w3.org/1999/xlink">
    <!-- Generator: Sketch 43.1 (39012) - http://www.bohemiancoding.com/sketch -->
    <title>Shape</title>
    <desc>Created with Sketch.</desc>
    <defs></defs>
    <g id="01_CUENTA" stroke="none" stroke-width="1" fill="none" fill-rule="evenodd">
        <g id="OPERACIONES_00" transform="translate(-1061.000000, -152.000000)" stroke="#3C86F6" fill-rule="nonzero" stroke-width="0.5" fill="#3C86F6">
            <g id="tiempo" transform="translate(814.000000, 130.000000)">
                <path d="M248.999999,27.4310296 C248.999999,25.0105569 251.019478,23.0458949 253.500001,23.0458949 C253.592736,23.0446019 253.678993,23.092638 253.725743,23.1716092 C253.772493,23.2505804 253.772493,23.3482517 253.725743,23.4272229 C253.678993,23.5061942 253.592736,23.5542302 253.500001,23.5529372 C251.293989,23.5529372 249.514285,25.2879851 249.514285,27.4310296 C249.514285,28.9470732 250.401014,30.2655479 251.699999,30.9050549 L251.699999,29.6374493 C251.698688,29.5460205 251.74741,29.460978 251.82751,29.4148862 C251.907609,29.3687945 252.006676,29.3687945 252.086775,29.4148862 C252.166874,29.460978 252.215597,29.5460205 252.214285,29.6374493 L252.214285,31.4120972 C252.214271,31.5521072 252.099152,31.6656043 251.957142,31.6656183 L250.157142,31.6656183 C250.083085,31.6671913 250.011936,31.6372042 249.961917,31.5833368 C249.911899,31.5294695 249.887869,31.4569539 249.895981,31.384362 C249.910543,31.2537514 250.023899,31.1557497 250.157142,31.1585761 L251.105356,31.1585761 C249.838065,30.3798352 248.999999,28.9964845 248.999999,27.4310296 L248.999999,27.4310296 Z M253.238833,31.6378831 C253.253395,31.5072701 253.366755,31.4092675 253.500001,31.4120972 C255.706003,31.4120972 257.485715,29.6770493 257.485715,27.5340099 C257.485715,26.0161231 256.598032,24.6946442 255.295976,24.0560245 L255.295976,25.3275851 C255.297444,25.4191125 255.248758,25.5043136 255.168596,25.5505002 C255.088434,25.5966868 254.989245,25.5966868 254.909084,25.5505002 C254.828922,25.5043136 254.780236,25.4191125 254.781703,25.3275851 L254.781703,23.5529372 C254.781718,23.4129271 254.896836,23.2994301 255.038846,23.2994161 L256.838833,23.2994161 C256.972079,23.2965864 257.085439,23.3945889 257.100001,23.525202 C257.108114,23.5977951 257.084083,23.6703117 257.034063,23.7241793 C256.984043,23.7780469 256.912892,23.8080332 256.838833,23.8064583 L255.890619,23.8064583 C257.159285,24.5850977 258.000001,25.9681823 258.000001,27.5340099 C258.000001,29.9544775 255.980516,31.9191394 253.500001,31.9191394 C253.425942,31.9207143 253.354792,31.890728 253.304771,31.8368604 C253.254751,31.7829928 253.230721,31.7104762 253.238833,31.6378831 L253.238833,31.6378831 Z" id="Shape" transform="translate(253.500000, 27.482534) rotate(40.000000) translate(-253.500000, -27.482534) "></path>
            </g>
        </g>
    </g>
</svg>