<?xml version="1.0" encoding="UTF-8"?>
<svg width="129px" height="41px" viewBox="0 0 129 41" version="1.1" xmlns="http://www.w3.org/2000/svg" xmlns:xlink="http://www.w3.org/1999/xlink">
    <!-- Generator: Sketch 43.1 (39012) - http://www.bohemiancoding.com/sketch -->
    <title>Page 1</title>
    <desc>Created with Sketch.</desc>
    <defs></defs>
    <g id="Page-1" stroke="none" stroke-width="1" fill="none" fill-rule="evenodd" opacity="0.5">
        <g id="EMPTY_STATES-CALENDARIO" transform="translate(-868.000000, -241.000000)">
            <g id="Page-1" transform="translate(868.000000, 241.000000)">
                <path d="M93.4698713,16.6318727 L96.0222475,14.9951455 L96.6838317,16.6344182 L93.4698713,16.6318727 Z M108.942446,14.5191455 L126.677792,14.1602364 L102.524822,26.3071455 L108.942446,14.5191455 Z M107.929475,14.5395091 L101.528584,26.2982364 L96.8781881,14.7647818 L107.929475,14.5395091 Z M94.8496733,10.9389636 L106.889475,12.0755091 L106.252347,13.7020545 L96.2256139,13.9044182 C96.1432376,13.9069636 96.0634356,13.9311455 95.9939307,13.9756909 L92.8829406,15.9687818 L94.8496733,10.9389636 Z M105.827594,11.0993273 L94.9899703,10.0760545 L91.567495,1.58823636 L105.827594,11.0993273 Z M107.66304,11.2724182 L93.7350198,1.98278182 L125.057297,12.9142364 L107.66304,11.2724182 Z M107.204822,13.6829636 L107.800762,12.1607818 L120.969376,13.4042364 L107.204822,13.6829636 Z M129.033238,13.6575091 C129.021653,13.4831455 128.908386,13.3342364 128.739772,13.2744182 L90.7746238,0.0253272727 C90.6124455,-0.0319454545 90.4309604,0.0100545455 90.3112574,0.133509091 C90.1902673,0.256963636 90.1555149,0.437690909 90.2198713,0.596781818 L94.1417525,10.3318727 L91.5687822,16.9093273 C91.5005644,17.0862364 91.5546238,17.2860545 91.7026436,17.4056909 C91.7386832,17.4349636 91.7798713,17.4566 91.8223465,17.4731455 C91.8725446,17.4935091 91.926604,17.5024182 91.9806634,17.5024182 L97.0352178,17.5062364 L101.058782,27.4882364 C101.105119,27.6015091 101.195218,27.6893273 101.309772,27.7338727 C101.309772,27.7338727 101.312347,27.7338727 101.313634,27.7351455 C101.429475,27.7784182 101.556901,27.7707818 101.667594,27.7147818 L128.792545,14.0749636 C128.950861,13.9960545 129.046109,13.8318727 129.033238,13.6575091 L129.033238,13.6575091 Z" id="Fill-1" fill="#517CBD"></path>
                <path d="M0.0776138614,33.2189455 C5.85939604,34.6405818 14.0918713,34.3796727 16.6867228,30.6060364 C17.7344455,29.0825818 17.6379109,27.1493091 15.9453366,25.4285818 C13.808703,23.2547636 10.6719703,23.9802182 10.8096931,26.3080364 C11.0323663,30.1338545 16.888802,34.3771273 21.8365248,35.6422182 C24.6965248,36.3740364 27.6157327,36.1284 29.1178119,34.5184 C31.5157327,31.9513091 29.1023663,29.3205818 27.4509802,26.4034909 C25.3967228,22.7762182 19.889099,15.7036727 24.449396,12.9774909 C27.6504851,11.0645818 33.8943465,12.7725818 37.3773168,14.7453091 C41.4703861,17.0654909 44.3638515,20.5069455 45.6316733,23.8491273 C47.5134554,28.8153091 44.9675149,33.5180364 49.8122673,38.3976727 C51.9012772,40.5014909 54.8539505,41.2727636 57.7654356,40.4404 C60.4169208,39.6831273 60.8275149,37.7422182 61.4852376,35.9336727 C62.3720693,33.4913091 63.0130594,30.9662182 63.4378119,28.4093091 C63.8458317,25.9542182 61.9125644,23.0740364 58.0923663,21.9362182 C57.1012772,21.6396727 55.8939505,21.7033091 55.4447426,22.2722182 C55.1049406,22.7011273 55.2774158,23.3094909 55.6867228,23.8109455 C58.6702871,27.4624 63.7467228,27.5960364 67.5450396,25.8371273 C70.9636535,24.2551273 73.489,21.6116727 73.258604,18.4005818 C73.1852376,17.3658545 72.9046436,15.7634909 74.8443465,15.6642182 C76.269198,15.5916727 77.6502871,16.7294909 78.219198,17.5936727 C79.4973168,19.5333091 80.739396,22.7571273 84.5042475,21.2654909 C85.459297,20.8874909 86.128604,20.2613091 86.7412772,19.6287636 C87.4672178,18.8804 88.208604,18.0213091 89.2460297,17.4727636" id="Stroke-3" stroke="#517CBD" stroke-width="0.5" stroke-dasharray="5"></path>
            </g>
        </g>
    </g>
</svg>