<?xml version="1.0" encoding="UTF-8"?>
<svg width="39px" height="35px" viewBox="0 0 39 35" version="1.1" xmlns="http://www.w3.org/2000/svg" xmlns:xlink="http://www.w3.org/1999/xlink">
    <!-- Generator: Sketch 43.1 (39012) - http://www.bohemiancoding.com/sketch -->
    <title>Group</title>
    <desc>Created with Sketch.</desc>
    <defs></defs>
    <g id="Page-1" stroke="none" stroke-width="1" fill="none" fill-rule="evenodd" opacity="0.502830616">
        <g id="EMPTY_STATES-CALENDARIO" transform="translate(-901.000000, -478.000000)" stroke="#517CBD" fill-rule="nonzero" stroke-width="0.2" fill="#517CBD">
            <g id="CALENDARIO" transform="translate(557.000000, 185.000000)">
                <g id="CALENDARIO-Copy">
                    <g id="Group" transform="translate(345.000000, 293.000000)">
                        <path d="M9.96913114,1.26944091 C9.0913648,2.08339545 8.58222224,3.19471364 8.57317078,4.25516818 C8.57317078,5.60007727 9.6206137,6.41707727 10.4767531,6.95662273 L0,6.95662273 L0,15.1461727 L2.25609761,15.1461727 L2.25609761,34.7100909 L34.7439025,34.7100909 L34.7439025,15.1461727 L37,15.1461727 L37,6.95662273 L26.523247,6.95662273 C27.9756098,6.05503182 28.4003472,5.22944091 28.4268293,4.25516818 C28.4177598,3.19471364 27.9086353,2.08339545 27.0308689,1.26944091 C25.8162357,0.33585 24.7367291,0.0515772727 23.3929116,0.203077273 C21.6585366,0.59535 20.6226991,1.58907727 19.8113793,2.56325909 C19.2744055,3.22275909 18.8148836,3.99848636 18.5000226,4.86657727 C18.1851616,3.99848636 17.7256352,3.22275909 17.1886659,2.56325909 C16.1658641,1.30707727 14.8621285,0.455577273 13.6212116,0.203077273 C12.1829269,0.140395455 11.2804878,0.140395455 9.96913114,1.26944091 Z M13.4519818,1.09889545 C14.7116107,1.54507727 15.8037514,2.31366818 16.4976909,3.14630455 C17.3194609,4.15553182 17.9140644,5.46430455 18.0205568,6.95671364 L13.5365628,6.95671364 C12.0293182,6.78171364 9.4756098,5.60007727 9.47558724,4.26948636 C9.4756098,3.32521364 10.0100477,2.47912273 10.5754348,1.93789545 C11.5699948,1.16289545 12.1829269,1.05030455 13.4519818,1.09889545 L13.4519818,1.09889545 Z M26.4245427,1.93766818 C27.1182882,2.58103182 27.5136061,3.49398636 27.5243903,4.25516818 C27.1153508,6.01875909 25.0726078,6.93262273 23.4634147,6.95648636 L18.9794208,6.95648636 C19.0859131,5.46407727 19.6805121,4.15530455 20.5022866,3.14607727 C21.4056552,2.03657727 22.1097561,1.50530455 23.5339177,1.09866818 C24.8170732,1.05030455 25.7253149,1.33344091 26.4245427,1.93766818 L26.4245427,1.93766818 Z M0.90243907,7.86657727 L36.097561,7.86657727 L36.097561,14.2362182 L18.9512196,14.2362182 L18.9512196,11.0513955 L18.0487805,11.0513955 L18.0487805,14.2362182 L0.90243907,14.2362182 L0.90243907,7.86657727 Z M3.15853663,15.1461727 L33.8414635,15.1461727 L33.8414635,33.8001364 L18.9512196,33.8001364 L18.9512196,17.4210455 L18.0487805,17.4210455 L18.0487805,33.8001364 L3.15853663,33.8001364 L3.15853663,15.1461727 Z" id="Shape"></path>
                    </g>
                </g>
            </g>
        </g>
    </g>
</svg>