<?xml version="1.0" encoding="UTF-8"?>
<svg width="30px" height="27px" viewBox="0 0 30 27" version="1.1" xmlns="http://www.w3.org/2000/svg" xmlns:xlink="http://www.w3.org/1999/xlink">
    <!-- Generator: Sketch 42 (36781) - http://www.bohemiancoding.com/sketch -->
    <title>AVATAR</title>
    <desc>Created with Sketch.</desc>
    <defs></defs>
    <g id="Page-1" stroke="none" stroke-width="1" fill="none" fill-rule="evenodd">
        <g id="Artboard" transform="translate(-3.000000, -2.000000)" fill-rule="nonzero" fill="#195DC4">
            <path d="M7.88327312,28.5533949 L8.36343213,29 L8.62401002,28.3927182 C8.85725674,27.8496439 9.11845579,27.2907549 9.39984264,26.7321822 C10.5185572,24.5193993 12.0478606,22.6086758 13.9470666,21.0525163 C14.2228629,20.8251019 14.5120143,20.6248887 14.806135,20.4575699 L15.4543186,20.0878239 L14.8455789,19.6545031 C14.3113787,19.2743194 13.8504757,18.8043086 13.4759144,18.2574387 C11.7372791,15.7153952 12.3516093,12.2073942 14.8446471,10.4374209 C15.7760811,9.77731831 16.8652904,9.42844759 17.9948754,9.42844759 C19.8002857,9.42844759 21.4935761,10.3276674 22.523775,11.8338527 C24.2614786,14.374631 23.645906,17.882632 21.1519365,19.6541868 L20.5397803,20.0887728 L21.1923121,20.4582025 C21.4858116,20.6242561 21.7755842,20.824153 22.053244,21.0531489 C23.9512076,22.6086758 25.4808216,24.5193993 26.5995362,26.7315496 C26.8812336,27.2907549 27.1424327,27.8496439 27.3756794,28.3927182 L27.6362573,29 L28.1167269,28.5533949 C31.2200574,25.6675414 33,21.5573192 33,17.2759828 C33,8.85279509 26.270941,2 17.9998447,2 C9.72874846,2 3,8.8524788 3,17.2756666 C3,21.557003 4.77994265,25.6675414 7.88327312,28.5533949 Z M18.0001553,2.94856145 C25.7575497,2.94856145 32.068566,9.37562673 32.068566,17.2756666 C32.068566,21.070545 30.5774642,24.7224591 27.9567774,27.3963966 C27.7906163,27.0329764 27.6138954,26.6651282 27.4287888,26.2975962 C26.250132,23.9662036 24.6385245,21.9530013 22.6390008,20.3139731 C22.5048295,20.2039033 22.3681737,20.0988941 22.2296543,20.0008434 C24.6832483,17.8301275 25.1870115,14.0668783 23.2887373,11.2914109 C22.0846128,9.53061009 20.1058979,8.47925355 17.9954966,8.47925355 C16.674904,8.47925355 15.4012092,8.88695469 14.312621,9.65870859 C11.3978135,11.7278947 10.6797491,15.828628 12.7118839,18.7998805 C13.0171855,19.2455368 13.3718696,19.6478609 13.7703457,20.0008434 C13.6318263,20.0995267 13.4957916,20.2042196 13.3625522,20.3133405 C11.3624072,21.9530013 9.75048917,23.9662036 8.57183233,26.2982288 C8.38672575,26.6651282 8.21000487,27.0326601 8.04384376,27.3963966 C5.42315696,24.7224591 3.93205512,21.070545 3.93205512,17.2756666 C3.93174454,9.37594302 10.2427609,2.94856145 18.0001553,2.94856145 Z" id="AVATAR"></path>
        </g>
    </g>
</svg>