<svg xmlns="http://www.w3.org/2000/svg" width="45" height="45" viewBox="0 0 45 45">
    <g fill="#FFBA3A" fill-rule="evenodd">
        <g transform="translate(21 7)">
            <path fill-rule="nonzero" d="M0 21.2V1.63C0 .719.513 0 1.165 0S2.33.718 2.33 1.63V21.2c0 .912-.513 1.63-1.165 1.63S0 22.112 0 21.2z"/>
            <circle cx="1.25" cy="27.25" r="1.25"/>
        </g>
        <path fill-rule="nonzero" d="M22.5 0C10.087 0 0 10.087 0 22.5S10.087 45 22.5 45 45 34.913 45 22.5 34.913 0 22.5 0zm-.195 2C33.532 2 42.61 11.078 42.61 22.305S33.532 42.61 22.305 42.61 2 33.532 2 22.305 11.078 2 22.305 2z"/>
    </g>
</svg>
